{
 "cells": [
  {
   "cell_type": "markdown",
   "metadata": {},
   "source": [
    "## Helpful Resources\n",
    "\n",
    "### Data\n",
    "- [Original Dataset](https://www.kaggle.com/datasets/blanderbuss/midi-classic-music/code)\n",
    "\n",
    "### Mido\n",
    "- [Mido Documentation](https://mido.readthedocs.io/en/stable/)\n",
    "- [Example using mido](https://medium.com/analytics-vidhya/convert-midi-file-to-numpy-array-in-python-7d00531890c)\n",
    "\n",
    "### MIDI\n",
    "- [MIDI File Statistic Calculation](https://nbviewer.org/github/craffel/midi-ground-truth/blob/master/Statistics.ipynb)\n",
    "- [Useful MIDI Functions](https://gist.github.com/devxpy/063968e0a2ef9b6db0bd6af8079dad2a#file-midi_numbers-py-L153-L159)\n",
    "\n",
    "### AI Research\n",
    "- [Composer Classification Paper](https://hal.science/hal-01879276/document)\n",
    "- [Composer Classification Dissertation](https://dalspace.library.dal.ca/bitstream/handle/10222/82031/RohitNitinKher2022.pdf?sequence=3&isAllowed=y)"
   ]
  },
  {
   "cell_type": "markdown",
   "metadata": {},
   "source": [
    "## Exploration"
   ]
  },
  {
   "cell_type": "code",
   "execution_count": 80,
   "metadata": {},
   "outputs": [],
   "source": [
    "from os import listdir\n",
    "from os.path import isfile, join\n",
    "\n",
    "import pandas as pd\n",
    "from mido import MidiFile"
   ]
  },
  {
   "cell_type": "code",
   "execution_count": 81,
   "metadata": {},
   "outputs": [],
   "source": [
    "# Location of data files\n",
    "PATH = \"data/project/\""
   ]
  },
  {
   "cell_type": "code",
   "execution_count": 82,
   "metadata": {},
   "outputs": [
    {
     "data": {
      "text/plain": [
       "['Bach', 'Beethoven', 'Chopin', 'Mozart']"
      ]
     },
     "execution_count": 82,
     "metadata": {},
     "output_type": "execute_result"
    }
   ],
   "source": [
    "# Composers we are to use\n",
    "COMPOSERS = [f for f in listdir(PATH)]\n",
    "COMPOSERS"
   ]
  },
  {
   "cell_type": "code",
   "execution_count": 83,
   "metadata": {},
   "outputs": [
    {
     "name": "stdout",
     "output_type": "stream",
     "text": [
      "['(2542)Prelude opus.28, No.16 in B flat minor.mid', '19 Polish Songs, for Solo Voice and Piano accomplements, No.10.mid', '19 Polish Songs, for Solo Voice and Piano accomplements, No.11.mid', '19 Polish Songs, for Solo Voice and Piano accomplements, No.12.mid', '19 Polish Songs, for Solo Voice and Piano accomplements, No.13.mid', '19 Polish Songs, for Solo Voice and Piano accomplements, No.14.mid', '19 Polish Songs, for Solo Voice and Piano accomplements, No.15.mid', '19 Polish Songs, for Solo Voice and Piano accomplements, No.16.mid', '19 Polish Songs, for Solo Voice and Piano accomplements, No.17.mid', '19 Polish Songs, for Solo Voice and Piano accomplements, No.18.mid', '19 Polish Songs, for Solo Voice and Piano accomplements, No.19.mid', '19 Polish Songs, for Solo Voice and Piano accomplements, No.2.mid', '19 Polish Songs, for Solo Voice and Piano accomplements, No.3.mid', '19 Polish Songs, for Solo Voice and Piano accomplements, No.4.mid', '19 Polish Songs, for Solo Voice and Piano accomplements, No.5.mid', '19 Polish Songs, for Solo Voice and Piano accomplements, No.6.mid', '19 Polish Songs, for Solo Voice and Piano accomplements, No.7.mid', '19 Polish Songs, for Solo Voice and Piano accomplements, No.8.mid', '19 Polish Songs, for Solo Voice and Piano accomplements, No.9.mid', '2 Polonaises op26 n1.mid', 'Ballad op32.mid', 'Ballad op53.mid', 'Ballade No.2 in F Major.mid', 'Barcarolle in F sharp Major.mid', 'Ecossaise No.2 in G.mid', 'Etude No.1.mid', 'Etude No.2 in A Minor.mid', 'Etude No.7 in C Major Opus.10, No.7.mid', 'Etude Op 25, No.1.mid', 'Etude op. 10-5 Black keys.mid', 'Etude Op.10 No.11.mid', 'Etude op10 n01.mid', 'Etude op10 n02.mid', 'Etude op10 n03.mid', 'Etude op10 n04 Drchew.mid', \"Etude op10 n05 ''Black Key''.mid\", 'Etude op10 n06.mid', 'Etude op10 n07.mid', 'Etude op10 n08.mid', 'Etude op10 n09.mid', 'Etude op10 n10.mid', 'Etude op10 n11.mid', \"Etude op10 n12 ''Revolutionary''.mid\", \"Etude op25 n01 ''Harp Etude''.mid\", 'Etude op25 n02.mid', 'Etude op25 n03.mid', 'Etude op25 n04.mid', 'Etude op25 n05.mid', 'Etude op25 n06.mid', 'Etude op25 n07.mid', 'Etude op25 n08.mid', 'Etude op25 n09.mid', 'Etude op25 n10.mid', \"Etude op25 n11 ''Winter Wind''.mid\", \"Etude op25 n12 ''The Ocean''.mid\", 'Fantasie Impromptu op66.mid', 'Finale to B Minor Paino Sonata.mid', 'Grande Waltz op18.mid', 'Imprompt Fantastique.mid', 'Impromptu n3 op51.mid', 'Mazurka op30 n2 Drchew.mid', 'Mazurka op33 n2 Drchew.mid', 'Mazurka op67 n3 Drchew.mid', 'Mazurka op68 n2 Drchew.mid', 'Mazurka op7 n1.mid', 'Mazurka op7 n2.mid', 'Nocturne No.1, Opus.62.mid', 'Nocturne No.15 in F Minor Opus.55 -1.mid', 'Nocturne No.18 in E Major Op62.mid', 'Nocturne op09 n2.mid', 'Nocturne op09 n3.mid', 'Nocturne op15 n2.mid', 'Nocturne op15 n3.mid', 'Nocturne op27 n1.mid', 'Nocturne op27 n2.mid', 'Nocturne op32 n1.mid', 'Nocturne op32 n2.mid', 'Nocturne op33 n2.mid', 'Nocturne op33 n4.mid', 'Nocturne op37 01.mid', 'Nocturne op37 n2.mid', 'Nocturne op48 n1.mid', 'Nocturne op48 n2.mid', 'Nocturne op55 n1.mid', 'Nocturne op55 n2.mid', 'Nocturne op62 n2.mid', 'Nocturne op72 n1.mid', \"Op.53 'Polonaise in A flat' Heroic.mid\", 'Piano Concerto n1 op11 1mov.mid', 'Piano Concerto n1 op11 2mov.mid', 'Piano Concerto n1 op11 3mov.mid', 'Piano Concerto n2 1mov.mid', 'Piano Concerto n2 2mov.mid', 'Piano Concerto n2 3mov.mid', 'Polonaise Opus.40, No.1 (Military).mid', \"Prelude n01 op28 ''Reunion''.mid\", \"Prelude n02 op28 ''Presentiment of Death''.mid\", \"Prelude n03 op28 ''Thou Art So Like A Flower''.mid\", \"Prelude n04 op28 ''Suffocation''.mid\", \"Prelude n05 op28 ''Uncertainty''.mid\", \"Prelude n06 op28 ''Tolling Bells''.mid\", \"Prelude n07 op28 ''The Polish Dance''.mid\", \"Prelude n08 op28 ''Desparation''.mid\", \"Prelude n09 op28 ''Vision''.mid\", \"Prelude n10 op28 ''The Night Moth''.mid\", \"Prelude n11 op28 ''Dragonfly''.mid\", \"Prelude n12 op28 ''Duel''.mid\", \"Prelude n13 op28 ''Loss''.mid\", \"Prelude n14 op28 ''Fear''.mid\", \"Prelude n15 op28 ''Raindrop''.mid\", \"Prelude n16 op28 ''Hades''.mid\", \"Prelude n17 op28 ''Scene On the Place of Notre Dame.mid\", \"Prelude n18 op28 ''Suicide''.mid\", 'Prelude n19 op28.mid', \"Prelude n20 op28 ''Funeral March''.mid\", \"Prelude n21 op28 ''Sunday''.mid\", \"Prelude n22 op28 ''Impatience''.mid\", \"Prelude n23 op28 ''A Pleasure Boat''.mid\", \"Prelude n24 op28 ''The Storm''.mid\", 'Prelude op.28-15 Raindrop.mid', 'Revolutionary.mid', 'Scherzo n1 op20.mid', 'Scherzo No.2, Opus.31.mid', 'Scherzo op31.mid', 'Sonata No.3 1st Mov Allegro.mid', 'Sonata No.3, 2nd Mov, Scherzo.mid', 'Sonata op35 n1 .mid', 'Sonata op35 n2 .mid', 'Sonata op35 n3 .mid', 'Sonata op35 n4 .mid', 'Tarantella.mid', 'Trois Nouvelles Etudes (Op.posth.).mid', 'Waltz in Ab (Op.posth., Brown21).mid', 'Waltz op64 n1.mid', 'Waltz op70 n2.mid', 'Winter wind etude.mid']\n"
     ]
    }
   ],
   "source": [
    "# Using Chopin for now\n",
    "composer_path = PATH + COMPOSERS[2]\n",
    "files = [f for f in listdir(composer_path) if isfile(join(composer_path, f))]\n",
    "print(files)\n",
    "\n",
    "# Import the first file for the selected composer\n",
    "mid = MidiFile(composer_path + \"/\" + files[0])"
   ]
  },
  {
   "cell_type": "code",
   "execution_count": 84,
   "metadata": {},
   "outputs": [
    {
     "name": "stdout",
     "output_type": "stream",
     "text": [
      "Track 0: \n",
      "MetaMessage('time_signature', numerator=6, denominator=4, clocks_per_click=24, notated_32nd_notes_per_beat=8, time=0)\n",
      "MetaMessage('key_signature', key='Bbm', time=0)\n",
      "MetaMessage('set_tempo', tempo=333333, time=0)\n",
      "MetaMessage('time_signature', numerator=4, denominator=4, clocks_per_click=24, notated_32nd_notes_per_beat=8, time=12288)\n",
      "MetaMessage('end_of_track', time=184321)\n",
      "Track 1: Acoustic Grand Piano\n",
      "MetaMessage('track_name', name='Acoustic Grand Piano', time=0)\n",
      "program_change channel=0 program=0 time=0\n",
      "note_on channel=0 note=63 velocity=80 time=0\n",
      "note_on channel=0 note=69 velocity=80 time=0\n",
      "note_on channel=0 note=78 velocity=80 time=0\n",
      "note_on channel=0 note=29 velocity=80 time=0\n",
      "note_on channel=0 note=41 velocity=80 time=0\n",
      "note_off channel=0 note=63 velocity=0 time=1024\n",
      "note_off channel=0 note=69 velocity=0 time=0\n",
      "note_off channel=0 note=78 velocity=0 time=0\n",
      "note_on channel=0 note=63 velocity=80 time=0\n",
      "note_on channel=0 note=69 velocity=80 time=0\n",
      "note_on channel=0 note=77 velocity=80 time=0\n",
      "note_on channel=0 note=48 velocity=80 time=0\n",
      "note_on channel=0 note=53 velocity=80 time=0\n",
      "note_on channel=0 note=60 velocity=80 time=0\n",
      "note_off channel=0 note=63 velocity=0 time=1024\n",
      "note_off channel=0 note=69 velocity=0 time=0\n",
      "note_off channel=0 note=77 velocity=0 time=0\n",
      "note_on channel=0 note=63 velocity=80 time=0\n",
      "note_on channel=0 note=69 velocity=80 time=0\n",
      "note_on channel=0 note=76 velocity=80 time=0\n",
      "note_off channel=0 note=48 velocity=0 time=0\n",
      "note_off channel=0 note=53 velocity=0 time=0\n",
      "note_off channel=0 note=60 velocity=0 time=0\n",
      "note_on channel=0 note=48 velocity=80 time=0\n",
      "note_on channel=0 note=53 velocity=80 time=0\n",
      "note_on channel=0 note=60 velocity=80 time=0\n",
      "note_off channel=0 note=63 velocity=0 time=1024\n",
      "note_off channel=0 note=69 velocity=0 time=0\n",
      "note_off channel=0 note=76 velocity=0 time=0\n",
      "note_on channel=0 note=63 velocity=80 time=0\n",
      "note_on channel=0 note=69 velocity=80 time=0\n",
      "note_on channel=0 note=75 velocity=80 time=0\n",
      "note_off channel=0 note=48 velocity=0 time=0\n",
      "note_off channel=0 note=53 velocity=0 time=0\n",
      "note_off channel=0 note=60 velocity=0 time=0\n",
      "note_on channel=0 note=48 velocity=80 time=0\n",
      "note_on channel=0 note=53 velocity=80 time=0\n",
      "note_on channel=0 note=60 velocity=80 time=0\n",
      "note_off channel=0 note=63 velocity=0 time=1024\n",
      "note_off channel=0 note=69 velocity=0 time=0\n",
      "note_off channel=0 note=75 velocity=0 time=0\n",
      "note_on channel=0 note=63 velocity=80 time=0\n",
      "note_on channel=0 note=69 velocity=80 time=0\n",
      "note_on channel=0 note=73 velocity=80 time=0\n",
      "note_off channel=0 note=48 velocity=0 time=0\n",
      "note_off channel=0 note=53 velocity=0 time=0\n",
      "note_off channel=0 note=60 velocity=0 time=0\n",
      "note_on channel=0 note=48 velocity=80 time=0\n",
      "note_on channel=0 note=53 velocity=80 time=0\n",
      "note_on channel=0 note=60 velocity=80 time=0\n",
      "note_off channel=0 note=63 velocity=0 time=1024\n",
      "note_off channel=0 note=69 velocity=0 time=0\n",
      "note_off channel=0 note=73 velocity=0 time=0\n",
      "note_on channel=0 note=63 velocity=80 time=0\n",
      "note_on channel=0 note=69 velocity=80 time=0\n",
      "note_on channel=0 note=72 velocity=80 time=0\n",
      "note_off channel=0 note=48 velocity=0 time=0\n",
      "note_off channel=0 note=53 velocity=0 time=0\n",
      "note_off channel=0 note=60 velocity=0 time=0\n",
      "note_on channel=0 note=48 velocity=80 time=0\n",
      "note_on channel=0 note=53 velocity=80 time=0\n",
      "note_on channel=0 note=60 velocity=80 time=0\n",
      "note_off channel=0 note=63 velocity=0 time=1024\n",
      "note_off channel=0 note=69 velocity=0 time=0\n",
      "note_off channel=0 note=72 velocity=0 time=0\n",
      "note_off channel=0 note=48 velocity=0 time=0\n",
      "note_off channel=0 note=53 velocity=0 time=0\n",
      "note_off channel=0 note=60 velocity=0 time=0\n",
      "note_off channel=0 note=29 velocity=0 time=0\n",
      "note_off channel=0 note=41 velocity=0 time=0\n",
      "note_on channel=0 note=77 velocity=64 time=6144\n",
      "note_on channel=0 note=46 velocity=64 time=0\n",
      "note_off channel=0 note=77 velocity=0 time=256\n",
      "note_on channel=0 note=72 velocity=64 time=0\n",
      "note_off channel=0 note=72 velocity=0 time=256\n",
      "note_on channel=0 note=75 velocity=64 time=0\n",
      "note_on channel=0 note=53 velocity=48 time=0\n",
      "note_on channel=0 note=61 velocity=48 time=0\n",
      "note_off channel=0 note=75 velocity=0 time=256\n",
      "note_on channel=0 note=73 velocity=64 time=0\n",
      "note_off channel=0 note=73 velocity=0 time=256\n",
      "note_on channel=0 note=65 velocity=64 time=0\n",
      "note_off channel=0 note=46 velocity=0 time=0\n",
      "note_off channel=0 note=65 velocity=0 time=256\n",
      "note_on channel=0 note=69 velocity=64 time=0\n",
      "note_off channel=0 note=69 velocity=0 time=256\n",
      "note_on channel=0 note=70 velocity=64 time=0\n",
      "note_off channel=0 note=53 velocity=0 time=0\n",
      "note_off channel=0 note=61 velocity=0 time=0\n",
      "note_on channel=0 note=41 velocity=64 time=0\n",
      "note_off channel=0 note=70 velocity=0 time=256\n",
      "note_on channel=0 note=72 velocity=64 time=0\n",
      "note_off channel=0 note=72 velocity=0 time=256\n",
      "note_on channel=0 note=73 velocity=64 time=0\n",
      "note_off channel=0 note=41 velocity=0 time=0\n",
      "note_on channel=0 note=46 velocity=64 time=0\n",
      "note_off channel=0 note=73 velocity=0 time=256\n",
      "note_on channel=0 note=75 velocity=64 time=0\n",
      "note_off channel=0 note=75 velocity=0 time=256\n",
      "note_on channel=0 note=77 velocity=64 time=0\n",
      "note_on channel=0 note=53 velocity=48 time=0\n",
      "note_on channel=0 note=61 velocity=48 time=0\n",
      "note_off channel=0 note=77 velocity=0 time=256\n",
      "note_on channel=0 note=79 velocity=64 time=0\n",
      "note_off channel=0 note=79 velocity=0 time=256\n",
      "note_on channel=0 note=81 velocity=64 time=0\n",
      "note_off channel=0 note=46 velocity=0 time=0\n",
      "note_off channel=0 note=81 velocity=0 time=256\n",
      "note_on channel=0 note=82 velocity=64 time=0\n",
      "note_off channel=0 note=82 velocity=0 time=256\n",
      "note_on channel=0 note=84 velocity=64 time=0\n",
      "note_off channel=0 note=53 velocity=0 time=0\n",
      "note_off channel=0 note=61 velocity=0 time=0\n",
      "note_on channel=0 note=41 velocity=64 time=0\n",
      "note_off channel=0 note=84 velocity=0 time=256\n",
      "note_on channel=0 note=85 velocity=64 time=0\n",
      "note_off channel=0 note=85 velocity=0 time=256\n",
      "note_off channel=0 note=41 velocity=0 time=0\n",
      "note_on channel=0 note=87 velocity=64 time=0\n",
      "note_on channel=0 note=46 velocity=64 time=0\n",
      "note_off channel=0 note=87 velocity=0 time=256\n",
      "note_on channel=0 note=89 velocity=64 time=0\n",
      "note_off channel=0 note=89 velocity=0 time=256\n",
      "note_on channel=0 note=91 velocity=64 time=0\n",
      "note_on channel=0 note=53 velocity=48 time=0\n",
      "note_on channel=0 note=61 velocity=48 time=0\n",
      "note_off channel=0 note=91 velocity=0 time=256\n",
      "note_on channel=0 note=93 velocity=64 time=0\n",
      "note_off channel=0 note=93 velocity=0 time=256\n",
      "note_on channel=0 note=94 velocity=64 time=0\n",
      "note_off channel=0 note=46 velocity=0 time=0\n",
      "note_off channel=0 note=94 velocity=0 time=256\n",
      "note_on channel=0 note=96 velocity=64 time=0\n",
      "note_off channel=0 note=96 velocity=0 time=256\n",
      "note_on channel=0 note=97 velocity=64 time=0\n",
      "note_off channel=0 note=53 velocity=0 time=0\n",
      "note_off channel=0 note=61 velocity=0 time=0\n",
      "note_on channel=0 note=41 velocity=64 time=0\n",
      "note_off channel=0 note=97 velocity=0 time=256\n",
      "note_on channel=0 note=99 velocity=64 time=0\n",
      "note_off channel=0 note=99 velocity=0 time=256\n",
      "note_on channel=0 note=100 velocity=64 time=0\n",
      "note_off channel=0 note=41 velocity=0 time=0\n",
      "note_on channel=0 note=46 velocity=64 time=0\n",
      "note_off channel=0 note=100 velocity=0 time=256\n",
      "note_on channel=0 note=101 velocity=64 time=0\n",
      "note_off channel=0 note=101 velocity=0 time=256\n",
      "note_on channel=0 note=99 velocity=64 time=0\n",
      "note_on channel=0 note=53 velocity=48 time=0\n",
      "note_on channel=0 note=61 velocity=48 time=0\n",
      "note_off channel=0 note=99 velocity=0 time=256\n",
      "note_on channel=0 note=97 velocity=64 time=0\n",
      "note_off channel=0 note=97 velocity=0 time=256\n",
      "note_on channel=0 note=96 velocity=64 time=0\n",
      "note_off channel=0 note=46 velocity=0 time=0\n",
      "note_off channel=0 note=96 velocity=0 time=256\n",
      "note_on channel=0 note=94 velocity=64 time=0\n",
      "note_off channel=0 note=94 velocity=0 time=256\n",
      "note_on channel=0 note=93 velocity=64 time=0\n",
      "note_off channel=0 note=53 velocity=0 time=0\n",
      "note_off channel=0 note=61 velocity=0 time=0\n",
      "note_on channel=0 note=41 velocity=64 time=0\n",
      "note_off channel=0 note=93 velocity=0 time=256\n",
      "note_on channel=0 note=94 velocity=64 time=0\n",
      "note_off channel=0 note=94 velocity=0 time=256\n",
      "note_off channel=0 note=41 velocity=0 time=0\n",
      "note_on channel=0 note=92 velocity=64 time=0\n",
      "note_on channel=0 note=46 velocity=64 time=0\n",
      "note_off channel=0 note=92 velocity=0 time=256\n",
      "note_on channel=0 note=90 velocity=64 time=0\n",
      "note_off channel=0 note=90 velocity=0 time=256\n",
      "note_on channel=0 note=89 velocity=64 time=0\n",
      "note_on channel=0 note=53 velocity=48 time=0\n",
      "note_on channel=0 note=61 velocity=48 time=0\n",
      "note_off channel=0 note=89 velocity=0 time=256\n",
      "note_on channel=0 note=88 velocity=64 time=0\n",
      "note_off channel=0 note=88 velocity=0 time=256\n",
      "note_on channel=0 note=89 velocity=64 time=0\n",
      "note_off channel=0 note=46 velocity=0 time=0\n",
      "note_off channel=0 note=89 velocity=0 time=256\n",
      "note_on channel=0 note=87 velocity=64 time=0\n",
      "note_off channel=0 note=87 velocity=0 time=256\n",
      "note_on channel=0 note=85 velocity=64 time=0\n",
      "note_off channel=0 note=53 velocity=0 time=0\n",
      "note_off channel=0 note=61 velocity=0 time=0\n",
      "note_on channel=0 note=41 velocity=64 time=0\n",
      "note_off channel=0 note=85 velocity=0 time=256\n",
      "note_on channel=0 note=84 velocity=64 time=0\n",
      "note_off channel=0 note=84 velocity=0 time=256\n",
      "note_on channel=0 note=82 velocity=64 time=0\n",
      "note_off channel=0 note=41 velocity=0 time=0\n",
      "note_on channel=0 note=46 velocity=64 time=0\n",
      "note_off channel=0 note=82 velocity=0 time=256\n",
      "note_on channel=0 note=81 velocity=64 time=0\n",
      "note_off channel=0 note=81 velocity=0 time=256\n",
      "note_on channel=0 note=82 velocity=64 time=0\n",
      "note_on channel=0 note=53 velocity=48 time=0\n",
      "note_on channel=0 note=61 velocity=48 time=0\n",
      "note_off channel=0 note=82 velocity=0 time=256\n",
      "note_on channel=0 note=80 velocity=64 time=0\n",
      "note_off channel=0 note=80 velocity=0 time=256\n",
      "note_on channel=0 note=78 velocity=64 time=0\n",
      "note_off channel=0 note=46 velocity=0 time=0\n",
      "note_off channel=0 note=78 velocity=0 time=256\n",
      "note_on channel=0 note=77 velocity=64 time=0\n",
      "note_off channel=0 note=77 velocity=0 time=256\n",
      "note_on channel=0 note=75 velocity=64 time=0\n",
      "note_off channel=0 note=53 velocity=0 time=0\n",
      "note_off channel=0 note=61 velocity=0 time=0\n",
      "note_on channel=0 note=41 velocity=64 time=0\n",
      "note_off channel=0 note=75 velocity=0 time=256\n",
      "note_on channel=0 note=73 velocity=64 time=0\n",
      "note_off channel=0 note=73 velocity=0 time=256\n",
      "note_off channel=0 note=41 velocity=0 time=0\n",
      "note_on channel=0 note=72 velocity=64 time=0\n",
      "note_on channel=0 note=46 velocity=64 time=0\n",
      "note_off channel=0 note=72 velocity=0 time=256\n",
      "note_on channel=0 note=73 velocity=64 time=0\n",
      "note_off channel=0 note=73 velocity=0 time=256\n",
      "note_on channel=0 note=75 velocity=64 time=0\n",
      "note_on channel=0 note=51 velocity=48 time=0\n",
      "note_on channel=0 note=54 velocity=48 time=0\n",
      "note_on channel=0 note=63 velocity=48 time=0\n",
      "note_off channel=0 note=75 velocity=0 time=256\n",
      "note_on channel=0 note=77 velocity=64 time=0\n",
      "note_off channel=0 note=77 velocity=0 time=256\n",
      "note_on channel=0 note=78 velocity=64 time=0\n",
      "note_off channel=0 note=46 velocity=0 time=0\n",
      "note_off channel=0 note=78 velocity=0 time=256\n",
      "note_on channel=0 note=80 velocity=64 time=0\n",
      "note_off channel=0 note=80 velocity=0 time=256\n",
      "note_on channel=0 note=82 velocity=64 time=0\n",
      "note_off channel=0 note=51 velocity=0 time=0\n",
      "note_off channel=0 note=54 velocity=0 time=0\n",
      "note_off channel=0 note=63 velocity=0 time=0\n",
      "note_on channel=0 note=34 velocity=64 time=0\n",
      "note_off channel=0 note=82 velocity=0 time=256\n",
      "note_on channel=0 note=84 velocity=64 time=0\n",
      "note_off channel=0 note=84 velocity=0 time=256\n",
      "note_on channel=0 note=82 velocity=64 time=0\n",
      "note_off channel=0 note=34 velocity=0 time=0\n",
      "note_on channel=0 note=46 velocity=64 time=0\n",
      "note_off channel=0 note=82 velocity=0 time=256\n",
      "note_on channel=0 note=80 velocity=64 time=0\n",
      "note_off channel=0 note=80 velocity=0 time=256\n",
      "note_on channel=0 note=78 velocity=64 time=0\n",
      "note_on channel=0 note=51 velocity=48 time=0\n",
      "note_on channel=0 note=54 velocity=48 time=0\n",
      "note_on channel=0 note=63 velocity=48 time=0\n",
      "note_off channel=0 note=78 velocity=0 time=256\n",
      "note_on channel=0 note=77 velocity=64 time=0\n",
      "note_off channel=0 note=77 velocity=0 time=256\n",
      "note_on channel=0 note=75 velocity=64 time=0\n",
      "note_off channel=0 note=46 velocity=0 time=0\n",
      "note_off channel=0 note=75 velocity=0 time=256\n",
      "note_on channel=0 note=73 velocity=64 time=0\n",
      "note_off channel=0 note=73 velocity=0 time=256\n",
      "note_on channel=0 note=72 velocity=64 time=0\n",
      "note_off channel=0 note=51 velocity=0 time=0\n",
      "note_off channel=0 note=54 velocity=0 time=0\n",
      "note_off channel=0 note=63 velocity=0 time=0\n",
      "note_on channel=0 note=34 velocity=64 time=0\n",
      "note_off channel=0 note=72 velocity=0 time=256\n",
      "note_on channel=0 note=75 velocity=64 time=0\n",
      "note_off channel=0 note=75 velocity=0 time=256\n",
      "note_off channel=0 note=34 velocity=0 time=0\n",
      "note_on channel=0 note=78 velocity=64 time=0\n",
      "note_on channel=0 note=46 velocity=64 time=0\n",
      "note_off channel=0 note=78 velocity=0 time=256\n",
      "note_on channel=0 note=74 velocity=64 time=0\n",
      "note_off channel=0 note=74 velocity=0 time=256\n",
      "note_on channel=0 note=77 velocity=64 time=0\n",
      "note_on channel=0 note=51 velocity=48 time=0\n",
      "note_on channel=0 note=54 velocity=48 time=0\n",
      "note_on channel=0 note=63 velocity=48 time=0\n",
      "note_off channel=0 note=77 velocity=0 time=256\n",
      "note_on channel=0 note=75 velocity=64 time=0\n",
      "note_off channel=0 note=75 velocity=0 time=256\n",
      "note_on channel=0 note=72 velocity=64 time=0\n",
      "note_off channel=0 note=46 velocity=0 time=0\n",
      "note_off channel=0 note=72 velocity=0 time=256\n",
      "note_on channel=0 note=66 velocity=64 time=0\n",
      "note_off channel=0 note=66 velocity=0 time=256\n",
      "note_on channel=0 note=71 velocity=64 time=0\n",
      "note_off channel=0 note=51 velocity=0 time=0\n",
      "note_off channel=0 note=54 velocity=0 time=0\n",
      "note_off channel=0 note=63 velocity=0 time=0\n",
      "note_on channel=0 note=34 velocity=64 time=0\n",
      "note_off channel=0 note=71 velocity=0 time=256\n",
      "note_on channel=0 note=72 velocity=64 time=0\n",
      "note_off channel=0 note=72 velocity=0 time=256\n",
      "note_on channel=0 note=73 velocity=64 time=0\n",
      "note_off channel=0 note=34 velocity=0 time=0\n",
      "note_on channel=0 note=46 velocity=64 time=0\n",
      "note_off channel=0 note=73 velocity=0 time=256\n",
      "note_on channel=0 note=72 velocity=64 time=0\n",
      "note_off channel=0 note=72 velocity=0 time=256\n",
      "note_on channel=0 note=74 velocity=64 time=0\n",
      "note_on channel=0 note=51 velocity=48 time=0\n",
      "note_on channel=0 note=54 velocity=48 time=0\n",
      "note_on channel=0 note=63 velocity=48 time=0\n",
      "note_off channel=0 note=74 velocity=0 time=256\n",
      "note_on channel=0 note=75 velocity=64 time=0\n",
      "note_off channel=0 note=75 velocity=0 time=256\n",
      "note_on channel=0 note=77 velocity=64 time=0\n",
      "note_off channel=0 note=46 velocity=0 time=0\n",
      "note_off channel=0 note=77 velocity=0 time=256\n",
      "note_on channel=0 note=75 velocity=64 time=0\n",
      "note_off channel=0 note=75 velocity=0 time=256\n",
      "note_on channel=0 note=76 velocity=64 time=0\n",
      "note_off channel=0 note=51 velocity=0 time=0\n",
      "note_off channel=0 note=54 velocity=0 time=0\n",
      "note_off channel=0 note=63 velocity=0 time=0\n",
      "note_on channel=0 note=34 velocity=64 time=0\n",
      "note_off channel=0 note=76 velocity=0 time=256\n",
      "note_on channel=0 note=77 velocity=64 time=0\n",
      "note_off channel=0 note=77 velocity=0 time=256\n",
      "note_off channel=0 note=34 velocity=0 time=0\n",
      "note_on channel=0 note=80 velocity=64 time=0\n",
      "note_on channel=0 note=46 velocity=64 time=0\n",
      "note_off channel=0 note=80 velocity=0 time=256\n",
      "note_on channel=0 note=78 velocity=64 time=0\n",
      "note_off channel=0 note=78 velocity=0 time=256\n",
      "note_on channel=0 note=81 velocity=64 time=0\n",
      "note_on channel=0 note=51 velocity=48 time=0\n",
      "note_on channel=0 note=54 velocity=48 time=0\n",
      "note_on channel=0 note=63 velocity=48 time=0\n",
      "note_off channel=0 note=81 velocity=0 time=256\n",
      "note_on channel=0 note=82 velocity=64 time=0\n",
      "note_off channel=0 note=82 velocity=0 time=256\n",
      "note_on channel=0 note=85 velocity=64 time=0\n",
      "note_off channel=0 note=46 velocity=0 time=0\n",
      "note_off channel=0 note=85 velocity=0 time=256\n",
      "note_on channel=0 note=84 velocity=64 time=0\n",
      "note_off channel=0 note=84 velocity=0 time=256\n",
      "note_on channel=0 note=86 velocity=64 time=0\n",
      "note_off channel=0 note=51 velocity=0 time=0\n",
      "note_off channel=0 note=54 velocity=0 time=0\n",
      "note_off channel=0 note=63 velocity=0 time=0\n",
      "note_on channel=0 note=34 velocity=64 time=0\n",
      "note_off channel=0 note=86 velocity=0 time=256\n",
      "note_on channel=0 note=87 velocity=64 time=0\n",
      "note_off channel=0 note=87 velocity=0 time=256\n",
      "note_on channel=0 note=89 velocity=64 time=0\n",
      "note_off channel=0 note=34 velocity=0 time=0\n",
      "note_on channel=0 note=46 velocity=64 time=0\n",
      "note_off channel=0 note=89 velocity=0 time=256\n",
      "note_on channel=0 note=87 velocity=64 time=0\n",
      "note_off channel=0 note=87 velocity=0 time=256\n",
      "note_on channel=0 note=88 velocity=64 time=0\n",
      "note_on channel=0 note=51 velocity=48 time=0\n",
      "note_on channel=0 note=54 velocity=48 time=0\n",
      "note_on channel=0 note=63 velocity=48 time=0\n",
      "note_off channel=0 note=88 velocity=0 time=256\n",
      "note_on channel=0 note=89 velocity=64 time=0\n",
      "note_off channel=0 note=89 velocity=0 time=256\n",
      "note_on channel=0 note=92 velocity=64 time=0\n",
      "note_off channel=0 note=46 velocity=0 time=0\n",
      "note_off channel=0 note=92 velocity=0 time=256\n",
      "note_on channel=0 note=94 velocity=64 time=0\n",
      "note_off channel=0 note=94 velocity=0 time=256\n",
      "note_on channel=0 note=92 velocity=64 time=0\n",
      "note_off channel=0 note=51 velocity=0 time=0\n",
      "note_off channel=0 note=54 velocity=0 time=0\n",
      "note_off channel=0 note=63 velocity=0 time=0\n",
      "note_on channel=0 note=46 velocity=64 time=0\n",
      "note_off channel=0 note=92 velocity=0 time=256\n",
      "note_on channel=0 note=91 velocity=64 time=0\n",
      "note_off channel=0 note=91 velocity=0 time=256\n",
      "note_off channel=0 note=46 velocity=0 time=0\n",
      "note_on channel=0 note=90 velocity=64 time=0\n",
      "note_on channel=0 note=45 velocity=64 time=0\n",
      "note_off channel=0 note=90 velocity=0 time=256\n",
      "note_on channel=0 note=101 velocity=64 time=0\n",
      "note_off channel=0 note=101 velocity=0 time=256\n",
      "note_on channel=0 note=99 velocity=64 time=0\n",
      "note_on channel=0 note=54 velocity=48 time=0\n",
      "note_on channel=0 note=63 velocity=48 time=0\n",
      "note_off channel=0 note=99 velocity=0 time=256\n",
      "note_on channel=0 note=87 velocity=64 time=0\n",
      "note_off channel=0 note=87 velocity=0 time=256\n",
      "note_on channel=0 note=97 velocity=64 time=0\n",
      "note_off channel=0 note=45 velocity=0 time=0\n",
      "note_off channel=0 note=97 velocity=0 time=256\n",
      "note_on channel=0 note=96 velocity=64 time=0\n",
      "note_off channel=0 note=96 velocity=0 time=256\n",
      "note_on channel=0 note=84 velocity=64 time=0\n",
      "note_off channel=0 note=54 velocity=0 time=0\n",
      "note_off channel=0 note=63 velocity=0 time=0\n",
      "note_on channel=0 note=33 velocity=64 time=0\n",
      "note_off channel=0 note=84 velocity=0 time=256\n",
      "note_on channel=0 note=94 velocity=64 time=0\n",
      "note_off channel=0 note=94 velocity=0 time=256\n",
      "note_on channel=0 note=93 velocity=64 time=0\n",
      "note_off channel=0 note=33 velocity=0 time=0\n",
      "note_on channel=0 note=45 velocity=64 time=0\n",
      "note_off channel=0 note=93 velocity=0 time=256\n",
      "note_on channel=0 note=81 velocity=64 time=0\n",
      "note_off channel=0 note=81 velocity=0 time=256\n",
      "note_on channel=0 note=92 velocity=64 time=0\n",
      "note_on channel=0 note=54 velocity=48 time=0\n",
      "note_on channel=0 note=63 velocity=48 time=0\n",
      "note_off channel=0 note=92 velocity=0 time=256\n",
      "note_on channel=0 note=90 velocity=64 time=0\n",
      "note_off channel=0 note=90 velocity=0 time=256\n",
      "note_on channel=0 note=78 velocity=64 time=0\n",
      "note_off channel=0 note=45 velocity=0 time=0\n",
      "note_off channel=0 note=78 velocity=0 time=256\n",
      "note_on channel=0 note=89 velocity=64 time=0\n",
      "note_off channel=0 note=89 velocity=0 time=256\n",
      "note_on channel=0 note=87 velocity=64 time=0\n",
      "note_off channel=0 note=54 velocity=0 time=0\n",
      "note_off channel=0 note=63 velocity=0 time=0\n",
      "note_on channel=0 note=45 velocity=64 time=0\n",
      "note_off channel=0 note=87 velocity=0 time=256\n",
      "note_on channel=0 note=78 velocity=64 time=0\n",
      "note_off channel=0 note=78 velocity=0 time=256\n",
      "note_off channel=0 note=45 velocity=0 time=0\n",
      "note_on channel=0 note=77 velocity=64 time=0\n",
      "note_on channel=0 note=46 velocity=64 time=0\n",
      "note_off channel=0 note=77 velocity=0 time=256\n",
      "note_on channel=0 note=87 velocity=64 time=0\n",
      "note_off channel=0 note=87 velocity=0 time=256\n",
      "note_on channel=0 note=85 velocity=64 time=0\n",
      "note_on channel=0 note=53 velocity=48 time=0\n",
      "note_on channel=0 note=61 velocity=48 time=0\n",
      "note_off channel=0 note=85 velocity=0 time=256\n",
      "note_on channel=0 note=77 velocity=64 time=0\n",
      "note_off channel=0 note=77 velocity=0 time=256\n",
      "note_on channel=0 note=85 velocity=64 time=0\n",
      "note_off channel=0 note=46 velocity=0 time=0\n",
      "note_off channel=0 note=85 velocity=0 time=256\n",
      "note_on channel=0 note=84 velocity=64 time=0\n",
      "note_off channel=0 note=84 velocity=0 time=256\n",
      "note_on channel=0 note=75 velocity=64 time=0\n",
      "note_off channel=0 note=53 velocity=0 time=0\n",
      "note_off channel=0 note=61 velocity=0 time=0\n",
      "note_on channel=0 note=46 velocity=64 time=0\n",
      "note_off channel=0 note=75 velocity=0 time=256\n",
      "note_on channel=0 note=84 velocity=64 time=0\n",
      "note_off channel=0 note=84 velocity=0 time=256\n",
      "note_on channel=0 note=73 velocity=64 time=0\n",
      "note_off channel=0 note=46 velocity=0 time=0\n",
      "note_on channel=0 note=49 velocity=64 time=0\n",
      "note_off channel=0 note=73 velocity=0 time=256\n",
      "note_on channel=0 note=82 velocity=64 time=0\n",
      "note_off channel=0 note=82 velocity=0 time=256\n",
      "note_on channel=0 note=80 velocity=64 time=0\n",
      "note_on channel=0 note=53 velocity=48 time=0\n",
      "note_on channel=0 note=58 velocity=48 time=0\n",
      "note_on channel=0 note=65 velocity=48 time=0\n",
      "note_off channel=0 note=80 velocity=0 time=256\n",
      "note_on channel=0 note=72 velocity=64 time=0\n",
      "note_off channel=0 note=72 velocity=0 time=256\n",
      "note_on channel=0 note=80 velocity=64 time=0\n",
      "note_off channel=0 note=49 velocity=0 time=0\n",
      "note_off channel=0 note=80 velocity=0 time=256\n",
      "note_on channel=0 note=78 velocity=64 time=0\n",
      "note_off channel=0 note=78 velocity=0 time=256\n",
      "note_on channel=0 note=70 velocity=64 time=0\n",
      "note_off channel=0 note=53 velocity=0 time=0\n",
      "note_off channel=0 note=58 velocity=0 time=0\n",
      "note_off channel=0 note=65 velocity=0 time=0\n",
      "note_on channel=0 note=49 velocity=64 time=0\n",
      "note_off channel=0 note=70 velocity=0 time=256\n",
      "note_on channel=0 note=78 velocity=64 time=0\n",
      "note_off channel=0 note=78 velocity=0 time=256\n",
      "note_off channel=0 note=49 velocity=0 time=0\n",
      "note_on channel=0 note=69 velocity=64 time=0\n",
      "note_on channel=0 note=51 velocity=64 time=0\n",
      "note_off channel=0 note=69 velocity=0 time=256\n",
      "note_on channel=0 note=70 velocity=64 time=0\n",
      "note_off channel=0 note=70 velocity=0 time=256\n",
      "note_on channel=0 note=72 velocity=64 time=0\n",
      "note_on channel=0 note=57 velocity=48 time=0\n",
      "note_on channel=0 note=66 velocity=48 time=0\n",
      "note_off channel=0 note=72 velocity=0 time=256\n",
      "note_on channel=0 note=73 velocity=64 time=0\n",
      "note_off channel=0 note=73 velocity=0 time=256\n",
      "note_on channel=0 note=75 velocity=64 time=0\n",
      "note_off channel=0 note=51 velocity=0 time=0\n",
      "note_off channel=0 note=75 velocity=0 time=256\n",
      "note_on channel=0 note=76 velocity=64 time=0\n",
      "note_off channel=0 note=76 velocity=0 time=256\n",
      "note_on channel=0 note=77 velocity=64 time=0\n",
      "note_off channel=0 note=57 velocity=0 time=0\n",
      "note_off channel=0 note=66 velocity=0 time=0\n",
      "note_on channel=0 note=51 velocity=64 time=0\n",
      "note_off channel=0 note=77 velocity=0 time=256\n",
      "note_on channel=0 note=78 velocity=64 time=0\n",
      "note_off channel=0 note=78 velocity=0 time=256\n",
      "note_on channel=0 note=76 velocity=64 time=0\n",
      "note_off channel=0 note=51 velocity=0 time=0\n",
      "note_on channel=0 note=49 velocity=64 time=0\n",
      "note_off channel=0 note=76 velocity=0 time=256\n",
      "note_on channel=0 note=77 velocity=64 time=0\n",
      "note_off channel=0 note=77 velocity=0 time=256\n",
      "note_on channel=0 note=74 velocity=64 time=0\n",
      "note_on channel=0 note=53 velocity=48 time=0\n",
      "note_on channel=0 note=58 velocity=48 time=0\n",
      "note_on channel=0 note=65 velocity=48 time=0\n",
      "note_off channel=0 note=74 velocity=0 time=256\n",
      "note_on channel=0 note=75 velocity=64 time=0\n",
      "note_off channel=0 note=75 velocity=0 time=256\n",
      "note_on channel=0 note=72 velocity=64 time=0\n",
      "note_off channel=0 note=49 velocity=0 time=0\n",
      "note_off channel=0 note=72 velocity=0 time=256\n",
      "note_on channel=0 note=73 velocity=64 time=0\n",
      "note_off channel=0 note=73 velocity=0 time=256\n",
      "note_on channel=0 note=72 velocity=64 time=0\n",
      "note_off channel=0 note=53 velocity=0 time=0\n",
      "note_off channel=0 note=58 velocity=0 time=0\n",
      "note_off channel=0 note=65 velocity=0 time=0\n",
      "note_on channel=0 note=49 velocity=64 time=0\n",
      "note_off channel=0 note=72 velocity=0 time=256\n",
      "note_on channel=0 note=70 velocity=64 time=0\n",
      "note_off channel=0 note=70 velocity=0 time=256\n",
      "note_off channel=0 note=49 velocity=0 time=0\n",
      "note_on channel=0 note=69 velocity=64 time=0\n",
      "note_on channel=0 note=51 velocity=64 time=0\n",
      "note_off channel=0 note=69 velocity=0 time=256\n",
      "note_on channel=0 note=70 velocity=64 time=0\n",
      "note_off channel=0 note=70 velocity=0 time=256\n",
      "note_on channel=0 note=72 velocity=64 time=0\n",
      "note_on channel=0 note=57 velocity=48 time=0\n",
      "note_on channel=0 note=66 velocity=48 time=0\n",
      "note_off channel=0 note=72 velocity=0 time=256\n",
      "note_on channel=0 note=73 velocity=64 time=0\n",
      "note_off channel=0 note=73 velocity=0 time=256\n",
      "note_on channel=0 note=75 velocity=64 time=0\n",
      "note_off channel=0 note=51 velocity=0 time=0\n",
      "note_off channel=0 note=75 velocity=0 time=256\n",
      "note_on channel=0 note=76 velocity=64 time=0\n",
      "note_off channel=0 note=76 velocity=0 time=256\n",
      "note_on channel=0 note=77 velocity=64 time=0\n",
      "note_off channel=0 note=57 velocity=0 time=0\n",
      "note_off channel=0 note=66 velocity=0 time=0\n",
      "note_on channel=0 note=51 velocity=64 time=0\n",
      "note_off channel=0 note=77 velocity=0 time=256\n",
      "note_on channel=0 note=78 velocity=64 time=0\n",
      "note_off channel=0 note=78 velocity=0 time=256\n",
      "note_on channel=0 note=76 velocity=64 time=0\n",
      "note_off channel=0 note=51 velocity=0 time=0\n",
      "note_on channel=0 note=49 velocity=64 time=0\n",
      "note_off channel=0 note=76 velocity=0 time=256\n",
      "note_on channel=0 note=77 velocity=64 time=0\n",
      "note_off channel=0 note=77 velocity=0 time=256\n",
      "note_on channel=0 note=74 velocity=64 time=0\n",
      "note_on channel=0 note=53 velocity=48 time=0\n",
      "note_on channel=0 note=58 velocity=48 time=0\n",
      "note_on channel=0 note=65 velocity=48 time=0\n",
      "note_off channel=0 note=74 velocity=0 time=256\n",
      "note_on channel=0 note=75 velocity=64 time=0\n",
      "note_off channel=0 note=75 velocity=0 time=256\n",
      "note_on channel=0 note=72 velocity=64 time=0\n",
      "note_off channel=0 note=49 velocity=0 time=0\n",
      "note_off channel=0 note=72 velocity=0 time=256\n",
      "note_on channel=0 note=73 velocity=64 time=0\n",
      "note_off channel=0 note=73 velocity=0 time=256\n",
      "note_on channel=0 note=72 velocity=64 time=0\n",
      "note_off channel=0 note=53 velocity=0 time=0\n",
      "note_off channel=0 note=58 velocity=0 time=0\n",
      "note_off channel=0 note=65 velocity=0 time=0\n",
      "note_on channel=0 note=49 velocity=64 time=0\n",
      "note_off channel=0 note=72 velocity=0 time=256\n",
      "note_on channel=0 note=70 velocity=64 time=0\n",
      "note_off channel=0 note=70 velocity=0 time=256\n",
      "note_off channel=0 note=49 velocity=0 time=0\n",
      "note_on channel=0 note=71 velocity=64 time=0\n",
      "note_on channel=0 note=53 velocity=64 time=0\n",
      "note_off channel=0 note=71 velocity=0 time=256\n",
      "note_on channel=0 note=72 velocity=64 time=0\n",
      "note_off channel=0 note=72 velocity=0 time=256\n",
      "note_on channel=0 note=74 velocity=64 time=0\n",
      "note_on channel=0 note=59 velocity=48 time=0\n",
      "note_on channel=0 note=68 velocity=48 time=0\n",
      "note_off channel=0 note=74 velocity=0 time=256\n",
      "note_on channel=0 note=75 velocity=64 time=0\n",
      "note_off channel=0 note=75 velocity=0 time=256\n",
      "note_on channel=0 note=76 velocity=64 time=0\n",
      "note_off channel=0 note=53 velocity=0 time=0\n",
      "note_off channel=0 note=76 velocity=0 time=256\n",
      "note_on channel=0 note=77 velocity=64 time=0\n",
      "note_off channel=0 note=77 velocity=0 time=256\n",
      "note_on channel=0 note=79 velocity=64 time=0\n",
      "note_off channel=0 note=59 velocity=0 time=0\n",
      "note_off channel=0 note=68 velocity=0 time=0\n",
      "note_on channel=0 note=53 velocity=64 time=0\n",
      "note_off channel=0 note=79 velocity=0 time=256\n",
      "note_on channel=0 note=80 velocity=64 time=0\n",
      "note_off channel=0 note=80 velocity=0 time=256\n",
      "note_on channel=0 note=78 velocity=64 time=0\n",
      "note_off channel=0 note=53 velocity=0 time=0\n",
      "note_on channel=0 note=51 velocity=64 time=0\n",
      "note_off channel=0 note=78 velocity=0 time=256\n",
      "note_on channel=0 note=79 velocity=64 time=0\n",
      "note_off channel=0 note=79 velocity=0 time=256\n",
      "note_on channel=0 note=76 velocity=64 time=0\n",
      "note_on channel=0 note=55 velocity=48 time=0\n",
      "note_on channel=0 note=60 velocity=48 time=0\n",
      "note_on channel=0 note=67 velocity=48 time=0\n",
      "note_off channel=0 note=76 velocity=0 time=256\n",
      "note_on channel=0 note=77 velocity=64 time=0\n",
      "note_off channel=0 note=77 velocity=0 time=256\n",
      "note_on channel=0 note=74 velocity=64 time=0\n",
      "note_off channel=0 note=51 velocity=0 time=0\n",
      "note_off channel=0 note=74 velocity=0 time=256\n",
      "note_on channel=0 note=75 velocity=64 time=0\n",
      "note_off channel=0 note=75 velocity=0 time=256\n",
      "note_on channel=0 note=74 velocity=64 time=0\n",
      "note_off channel=0 note=55 velocity=0 time=0\n",
      "note_off channel=0 note=60 velocity=0 time=0\n",
      "note_off channel=0 note=67 velocity=0 time=0\n",
      "note_on channel=0 note=51 velocity=64 time=0\n",
      "note_off channel=0 note=74 velocity=0 time=256\n",
      "note_on channel=0 note=72 velocity=64 time=0\n",
      "note_off channel=0 note=72 velocity=0 time=256\n",
      "note_off channel=0 note=51 velocity=0 time=0\n",
      "note_on channel=0 note=71 velocity=64 time=0\n",
      "note_on channel=0 note=53 velocity=64 time=0\n",
      "note_off channel=0 note=71 velocity=0 time=256\n",
      "note_on channel=0 note=72 velocity=64 time=0\n",
      "note_off channel=0 note=72 velocity=0 time=256\n",
      "note_on channel=0 note=74 velocity=64 time=0\n",
      "note_on channel=0 note=59 velocity=48 time=0\n",
      "note_on channel=0 note=68 velocity=48 time=0\n",
      "note_off channel=0 note=74 velocity=0 time=256\n",
      "note_on channel=0 note=75 velocity=64 time=0\n",
      "note_off channel=0 note=75 velocity=0 time=256\n",
      "note_on channel=0 note=76 velocity=64 time=0\n",
      "note_off channel=0 note=53 velocity=0 time=0\n",
      "note_off channel=0 note=76 velocity=0 time=256\n",
      "note_on channel=0 note=77 velocity=64 time=0\n",
      "note_off channel=0 note=77 velocity=0 time=256\n",
      "note_on channel=0 note=79 velocity=64 time=0\n",
      "note_off channel=0 note=59 velocity=0 time=0\n",
      "note_off channel=0 note=68 velocity=0 time=0\n",
      "note_on channel=0 note=53 velocity=64 time=0\n",
      "note_off channel=0 note=79 velocity=0 time=256\n",
      "note_on channel=0 note=80 velocity=64 time=0\n",
      "note_off channel=0 note=80 velocity=0 time=256\n",
      "note_on channel=0 note=78 velocity=64 time=0\n",
      "note_off channel=0 note=53 velocity=0 time=0\n",
      "note_on channel=0 note=51 velocity=64 time=0\n",
      "note_off channel=0 note=78 velocity=0 time=256\n",
      "note_on channel=0 note=79 velocity=64 time=0\n",
      "note_off channel=0 note=79 velocity=0 time=256\n",
      "note_on channel=0 note=76 velocity=64 time=0\n",
      "note_on channel=0 note=55 velocity=48 time=0\n",
      "note_on channel=0 note=60 velocity=48 time=0\n",
      "note_on channel=0 note=67 velocity=48 time=0\n",
      "note_off channel=0 note=76 velocity=0 time=256\n",
      "note_on channel=0 note=77 velocity=64 time=0\n",
      "note_off channel=0 note=77 velocity=0 time=256\n",
      "note_on channel=0 note=74 velocity=64 time=0\n",
      "note_off channel=0 note=51 velocity=0 time=0\n",
      "note_off channel=0 note=74 velocity=0 time=256\n",
      "note_on channel=0 note=75 velocity=64 time=0\n",
      "note_off channel=0 note=75 velocity=0 time=256\n",
      "note_on channel=0 note=74 velocity=64 time=0\n",
      "note_off channel=0 note=55 velocity=0 time=0\n",
      "note_off channel=0 note=60 velocity=0 time=0\n",
      "note_off channel=0 note=67 velocity=0 time=0\n",
      "note_on channel=0 note=51 velocity=64 time=0\n",
      "note_off channel=0 note=74 velocity=0 time=256\n",
      "note_on channel=0 note=72 velocity=64 time=0\n",
      "note_off channel=0 note=72 velocity=0 time=256\n",
      "note_off channel=0 note=51 velocity=0 time=0\n",
      "note_on channel=0 note=73 velocity=64 time=0\n",
      "note_on channel=0 note=53 velocity=64 time=0\n",
      "note_off channel=0 note=73 velocity=0 time=256\n",
      "note_on channel=0 note=75 velocity=64 time=0\n",
      "note_off channel=0 note=75 velocity=0 time=256\n",
      "note_on channel=0 note=77 velocity=64 time=0\n",
      "note_on channel=0 note=56 velocity=48 time=0\n",
      "note_on channel=0 note=61 velocity=48 time=0\n",
      "note_on channel=0 note=68 velocity=48 time=0\n",
      "note_off channel=0 note=77 velocity=0 time=256\n",
      "note_on channel=0 note=78 velocity=64 time=0\n",
      "note_off channel=0 note=78 velocity=0 time=256\n",
      "note_on channel=0 note=80 velocity=64 time=0\n",
      "note_off channel=0 note=53 velocity=0 time=0\n",
      "note_off channel=0 note=80 velocity=0 time=256\n",
      "note_on channel=0 note=82 velocity=64 time=0\n",
      "note_off channel=0 note=82 velocity=0 time=256\n",
      "note_on channel=0 note=83 velocity=64 time=0\n",
      "note_off channel=0 note=56 velocity=0 time=0\n",
      "note_off channel=0 note=61 velocity=0 time=0\n",
      "note_off channel=0 note=68 velocity=0 time=0\n",
      "note_on channel=0 note=53 velocity=64 time=0\n",
      "note_off channel=0 note=83 velocity=0 time=256\n",
      "note_on channel=0 note=84 velocity=64 time=0\n",
      "note_off channel=0 note=84 velocity=0 time=256\n",
      "note_on channel=0 note=85 velocity=64 time=0\n",
      "note_off channel=0 note=53 velocity=0 time=0\n",
      "note_on channel=0 note=54 velocity=64 time=0\n",
      "note_off channel=0 note=85 velocity=0 time=256\n",
      "note_on channel=0 note=86 velocity=64 time=0\n",
      "note_off channel=0 note=86 velocity=0 time=256\n",
      "note_on channel=0 note=89 velocity=64 time=0\n",
      "note_on channel=0 note=57 velocity=48 time=0\n",
      "note_on channel=0 note=60 velocity=48 time=0\n",
      "note_on channel=0 note=69 velocity=48 time=0\n",
      "note_off channel=0 note=89 velocity=0 time=256\n",
      "note_on channel=0 note=87 velocity=64 time=0\n",
      "note_off channel=0 note=87 velocity=0 time=256\n",
      "note_on channel=0 note=84 velocity=64 time=0\n",
      "note_off channel=0 note=54 velocity=0 time=0\n",
      "note_off channel=0 note=84 velocity=0 time=256\n",
      "note_on channel=0 note=81 velocity=64 time=0\n",
      "note_off channel=0 note=81 velocity=0 time=256\n",
      "note_on channel=0 note=78 velocity=64 time=0\n",
      "note_off channel=0 note=57 velocity=0 time=0\n",
      "note_off channel=0 note=60 velocity=0 time=0\n",
      "note_off channel=0 note=69 velocity=0 time=0\n",
      "note_on channel=0 note=54 velocity=64 time=0\n",
      "note_off channel=0 note=78 velocity=0 time=256\n",
      "note_on channel=0 note=75 velocity=64 time=0\n",
      "note_off channel=0 note=75 velocity=0 time=256\n",
      "note_off channel=0 note=54 velocity=0 time=0\n",
      "note_on channel=0 note=73 velocity=64 time=0\n",
      "note_on channel=0 note=53 velocity=64 time=0\n",
      "note_off channel=0 note=73 velocity=0 time=256\n",
      "note_on channel=0 note=75 velocity=64 time=0\n",
      "note_off channel=0 note=75 velocity=0 time=256\n",
      "note_on channel=0 note=77 velocity=64 time=0\n",
      "note_on channel=0 note=56 velocity=48 time=0\n",
      "note_on channel=0 note=61 velocity=48 time=0\n",
      "note_on channel=0 note=68 velocity=48 time=0\n",
      "note_off channel=0 note=77 velocity=0 time=256\n",
      "note_on channel=0 note=78 velocity=64 time=0\n",
      "note_off channel=0 note=78 velocity=0 time=256\n",
      "note_on channel=0 note=80 velocity=64 time=0\n",
      "note_off channel=0 note=53 velocity=0 time=0\n",
      "note_off channel=0 note=80 velocity=0 time=256\n",
      "note_on channel=0 note=82 velocity=64 time=0\n",
      "note_off channel=0 note=82 velocity=0 time=256\n",
      "note_on channel=0 note=83 velocity=64 time=0\n",
      "note_off channel=0 note=56 velocity=0 time=0\n",
      "note_off channel=0 note=61 velocity=0 time=0\n",
      "note_off channel=0 note=68 velocity=0 time=0\n",
      "note_on channel=0 note=53 velocity=64 time=0\n",
      "note_off channel=0 note=83 velocity=0 time=256\n",
      "note_on channel=0 note=84 velocity=64 time=0\n",
      "note_off channel=0 note=84 velocity=0 time=256\n",
      "note_on channel=0 note=85 velocity=64 time=0\n",
      "note_off channel=0 note=53 velocity=0 time=0\n",
      "note_on channel=0 note=52 velocity=64 time=0\n",
      "note_off channel=0 note=85 velocity=0 time=256\n",
      "note_on channel=0 note=84 velocity=64 time=0\n",
      "note_off channel=0 note=84 velocity=0 time=256\n",
      "note_on channel=0 note=87 velocity=64 time=0\n",
      "note_on channel=0 note=58 velocity=48 time=0\n",
      "note_on channel=0 note=61 velocity=48 time=0\n",
      "note_on channel=0 note=67 velocity=48 time=0\n",
      "note_off channel=0 note=87 velocity=0 time=256\n",
      "note_on channel=0 note=85 velocity=64 time=0\n",
      "note_off channel=0 note=85 velocity=0 time=256\n",
      "note_on channel=0 note=82 velocity=64 time=0\n",
      "note_off channel=0 note=52 velocity=0 time=0\n",
      "note_off channel=0 note=82 velocity=0 time=256\n",
      "note_on channel=0 note=79 velocity=64 time=0\n",
      "note_off channel=0 note=79 velocity=0 time=256\n",
      "note_on channel=0 note=76 velocity=64 time=0\n",
      "note_off channel=0 note=58 velocity=0 time=0\n",
      "note_off channel=0 note=61 velocity=0 time=0\n",
      "note_off channel=0 note=67 velocity=0 time=0\n",
      "note_on channel=0 note=52 velocity=64 time=0\n",
      "note_off channel=0 note=76 velocity=0 time=256\n",
      "note_on channel=0 note=73 velocity=64 time=0\n",
      "note_off channel=0 note=73 velocity=0 time=256\n",
      "note_off channel=0 note=52 velocity=0 time=0\n",
      "note_on channel=0 note=72 velocity=64 time=0\n",
      "note_on channel=0 note=51 velocity=64 time=0\n",
      "note_off channel=0 note=72 velocity=0 time=256\n",
      "note_on channel=0 note=73 velocity=64 time=0\n",
      "note_off channel=0 note=73 velocity=0 time=256\n",
      "note_on channel=0 note=74 velocity=64 time=0\n",
      "note_on channel=0 note=57 velocity=48 time=0\n",
      "note_on channel=0 note=60 velocity=48 time=0\n",
      "note_on channel=0 note=66 velocity=48 time=0\n",
      "note_off channel=0 note=74 velocity=0 time=256\n",
      "note_on channel=0 note=75 velocity=64 time=0\n",
      "note_off channel=0 note=75 velocity=0 time=256\n",
      "note_on channel=0 note=76 velocity=64 time=0\n",
      "note_off channel=0 note=51 velocity=0 time=0\n",
      "note_off channel=0 note=76 velocity=0 time=256\n",
      "note_on channel=0 note=77 velocity=64 time=0\n",
      "note_off channel=0 note=77 velocity=0 time=256\n",
      "note_on channel=0 note=78 velocity=64 time=0\n",
      "note_off channel=0 note=57 velocity=0 time=0\n",
      "note_off channel=0 note=60 velocity=0 time=0\n",
      "note_off channel=0 note=66 velocity=0 time=0\n",
      "note_on channel=0 note=51 velocity=64 time=0\n",
      "note_off channel=0 note=78 velocity=0 time=256\n",
      "note_on channel=0 note=79 velocity=64 time=0\n",
      "note_off channel=0 note=79 velocity=0 time=256\n",
      "note_on channel=0 note=80 velocity=64 time=0\n",
      "note_off channel=0 note=51 velocity=0 time=0\n",
      "note_on channel=0 note=49 velocity=64 time=0\n",
      "note_off channel=0 note=80 velocity=0 time=256\n",
      "note_on channel=0 note=81 velocity=64 time=0\n",
      "note_off channel=0 note=81 velocity=0 time=256\n",
      "note_on channel=0 note=84 velocity=64 time=0\n",
      "note_on channel=0 note=53 velocity=48 time=0\n",
      "note_on channel=0 note=58 velocity=48 time=0\n",
      "note_on channel=0 note=65 velocity=48 time=0\n",
      "note_off channel=0 note=84 velocity=0 time=256\n",
      "note_on channel=0 note=82 velocity=64 time=0\n",
      "note_off channel=0 note=82 velocity=0 time=256\n",
      "note_on channel=0 note=78 velocity=64 time=0\n",
      "note_off channel=0 note=49 velocity=0 time=0\n",
      "note_off channel=0 note=78 velocity=0 time=256\n",
      "note_on channel=0 note=77 velocity=64 time=0\n",
      "note_off channel=0 note=77 velocity=0 time=256\n",
      "note_on channel=0 note=75 velocity=64 time=0\n",
      "note_off channel=0 note=53 velocity=0 time=0\n",
      "note_off channel=0 note=58 velocity=0 time=0\n",
      "note_off channel=0 note=65 velocity=0 time=0\n",
      "note_off channel=0 note=75 velocity=0 time=256\n",
      "note_on channel=0 note=73 velocity=64 time=0\n",
      "note_off channel=0 note=73 velocity=0 time=256\n",
      "note_on channel=0 note=72 velocity=64 time=0\n",
      "note_on channel=0 note=41 velocity=64 time=0\n",
      "note_off channel=0 note=72 velocity=0 time=256\n",
      "note_on channel=0 note=70 velocity=64 time=0\n",
      "note_off channel=0 note=70 velocity=0 time=256\n",
      "note_on channel=0 note=69 velocity=64 time=0\n",
      "note_on channel=0 note=48 velocity=48 time=212\n",
      "note_off channel=0 note=69 velocity=0 time=44\n",
      "note_on channel=0 note=72 velocity=64 time=0\n",
      "note_on channel=0 note=53 velocity=48 time=56\n",
      "note_on channel=0 note=57 velocity=48 time=100\n",
      "note_off channel=0 note=72 velocity=0 time=100\n",
      "note_on channel=0 note=66 velocity=64 time=0\n",
      "note_on channel=0 note=63 velocity=48 time=0\n",
      "note_off channel=0 note=41 velocity=0 time=0\n",
      "note_off channel=0 note=66 velocity=0 time=256\n",
      "note_on channel=0 note=65 velocity=64 time=0\n",
      "note_off channel=0 note=65 velocity=0 time=256\n",
      "note_on channel=0 note=64 velocity=64 time=0\n",
      "note_off channel=0 note=64 velocity=0 time=256\n",
      "note_on channel=0 note=65 velocity=64 time=0\n",
      "note_off channel=0 note=65 velocity=0 time=256\n",
      "note_on channel=0 note=66 velocity=64 time=0\n",
      "note_off channel=0 note=66 velocity=0 time=256\n",
      "note_on channel=0 note=65 velocity=64 time=0\n",
      "note_off channel=0 note=65 velocity=0 time=256\n",
      "note_on channel=0 note=70 velocity=64 time=0\n",
      "note_off channel=0 note=70 velocity=0 time=256\n",
      "note_on channel=0 note=69 velocity=64 time=0\n",
      "note_off channel=0 note=69 velocity=0 time=256\n",
      "note_on channel=0 note=73 velocity=64 time=0\n",
      "note_off channel=0 note=48 velocity=0 time=0\n",
      "note_off channel=0 note=53 velocity=0 time=0\n",
      "note_off channel=0 note=57 velocity=0 time=0\n",
      "note_off channel=0 note=63 velocity=0 time=0\n",
      "note_off channel=0 note=73 velocity=0 time=256\n",
      "note_on channel=0 note=72 velocity=64 time=0\n",
      "note_off channel=0 note=72 velocity=0 time=256\n",
      "note_on channel=0 note=80 velocity=64 time=0\n",
      "note_off channel=0 note=80 velocity=0 time=256\n",
      "note_on channel=0 note=78 velocity=64 time=0\n",
      "note_off channel=0 note=78 velocity=0 time=256\n",
      "note_on channel=0 note=77 velocity=64 time=0\n",
      "note_on channel=0 note=34 velocity=72 time=0\n",
      "note_on channel=0 note=46 velocity=72 time=0\n",
      "note_off channel=0 note=77 velocity=0 time=256\n",
      "note_on channel=0 note=72 velocity=64 time=0\n",
      "note_off channel=0 note=72 velocity=0 time=256\n",
      "note_on channel=0 note=75 velocity=64 time=0\n",
      "note_on channel=0 note=49 velocity=64 time=0\n",
      "note_on channel=0 note=53 velocity=64 time=0\n",
      "note_on channel=0 note=61 velocity=64 time=0\n",
      "note_off channel=0 note=75 velocity=0 time=256\n",
      "note_on channel=0 note=73 velocity=64 time=0\n",
      "note_off channel=0 note=73 velocity=0 time=256\n",
      "note_on channel=0 note=65 velocity=64 time=0\n",
      "note_off channel=0 note=34 velocity=0 time=0\n",
      "note_off channel=0 note=46 velocity=0 time=0\n",
      "note_off channel=0 note=65 velocity=0 time=256\n",
      "note_on channel=0 note=69 velocity=64 time=0\n",
      "note_off channel=0 note=69 velocity=0 time=256\n",
      "note_on channel=0 note=70 velocity=64 time=0\n",
      "note_off channel=0 note=49 velocity=0 time=0\n",
      "note_off channel=0 note=53 velocity=0 time=0\n",
      "note_off channel=0 note=61 velocity=0 time=0\n",
      "note_on channel=0 note=29 velocity=72 time=0\n",
      "note_on channel=0 note=41 velocity=72 time=0\n",
      "note_off channel=0 note=70 velocity=0 time=256\n",
      "note_on channel=0 note=72 velocity=64 time=0\n",
      "note_off channel=0 note=72 velocity=0 time=256\n",
      "note_on channel=0 note=73 velocity=64 time=0\n",
      "note_off channel=0 note=29 velocity=0 time=0\n",
      "note_off channel=0 note=41 velocity=0 time=0\n",
      "note_on channel=0 note=34 velocity=72 time=0\n",
      "note_on channel=0 note=46 velocity=72 time=0\n",
      "note_off channel=0 note=73 velocity=0 time=256\n",
      "note_on channel=0 note=75 velocity=64 time=0\n",
      "note_off channel=0 note=75 velocity=0 time=256\n",
      "note_on channel=0 note=77 velocity=64 time=0\n",
      "note_on channel=0 note=49 velocity=64 time=0\n",
      "note_on channel=0 note=53 velocity=64 time=0\n",
      "note_on channel=0 note=61 velocity=64 time=0\n",
      "note_off channel=0 note=77 velocity=0 time=256\n",
      "note_on channel=0 note=79 velocity=64 time=0\n",
      "note_off channel=0 note=79 velocity=0 time=256\n",
      "note_on channel=0 note=81 velocity=64 time=0\n",
      "note_off channel=0 note=34 velocity=0 time=0\n",
      "note_off channel=0 note=46 velocity=0 time=0\n",
      "note_off channel=0 note=81 velocity=0 time=256\n",
      "note_on channel=0 note=82 velocity=64 time=0\n",
      "note_off channel=0 note=82 velocity=0 time=256\n",
      "note_on channel=0 note=84 velocity=64 time=0\n",
      "note_on channel=0 note=29 velocity=72 time=0\n",
      "note_on channel=0 note=41 velocity=72 time=0\n",
      "note_off channel=0 note=84 velocity=0 time=256\n",
      "note_on channel=0 note=85 velocity=64 time=0\n",
      "note_off channel=0 note=85 velocity=0 time=256\n",
      "note_off channel=0 note=49 velocity=0 time=0\n",
      "note_off channel=0 note=53 velocity=0 time=0\n",
      "note_off channel=0 note=61 velocity=0 time=0\n",
      "note_off channel=0 note=29 velocity=0 time=0\n",
      "note_off channel=0 note=41 velocity=0 time=0\n",
      "note_on channel=0 note=87 velocity=64 time=0\n",
      "note_on channel=0 note=34 velocity=72 time=0\n",
      "note_on channel=0 note=46 velocity=72 time=0\n",
      "note_off channel=0 note=87 velocity=0 time=256\n",
      "note_on channel=0 note=89 velocity=64 time=0\n",
      "note_off channel=0 note=89 velocity=0 time=256\n",
      "note_on channel=0 note=91 velocity=64 time=0\n",
      "note_on channel=0 note=49 velocity=64 time=0\n",
      "note_on channel=0 note=53 velocity=64 time=0\n",
      "note_on channel=0 note=61 velocity=64 time=0\n",
      "note_off channel=0 note=91 velocity=0 time=256\n",
      "note_on channel=0 note=93 velocity=64 time=0\n",
      "note_off channel=0 note=93 velocity=0 time=256\n",
      "note_on channel=0 note=94 velocity=64 time=0\n",
      "note_off channel=0 note=34 velocity=0 time=0\n",
      "note_off channel=0 note=46 velocity=0 time=0\n",
      "note_off channel=0 note=94 velocity=0 time=256\n",
      "note_on channel=0 note=96 velocity=64 time=0\n",
      "note_off channel=0 note=96 velocity=0 time=256\n",
      "note_on channel=0 note=97 velocity=64 time=0\n",
      "note_off channel=0 note=49 velocity=0 time=0\n",
      "note_off channel=0 note=53 velocity=0 time=0\n",
      "note_off channel=0 note=61 velocity=0 time=0\n",
      "note_on channel=0 note=29 velocity=72 time=0\n",
      "note_on channel=0 note=41 velocity=72 time=0\n",
      "note_off channel=0 note=97 velocity=0 time=256\n",
      "note_on channel=0 note=99 velocity=64 time=0\n",
      "note_off channel=0 note=99 velocity=0 time=256\n",
      "note_on channel=0 note=100 velocity=64 time=0\n",
      "note_off channel=0 note=29 velocity=0 time=0\n",
      "note_off channel=0 note=41 velocity=0 time=0\n",
      "note_on channel=0 note=34 velocity=72 time=0\n",
      "note_on channel=0 note=46 velocity=72 time=0\n",
      "note_off channel=0 note=100 velocity=0 time=256\n",
      "note_on channel=0 note=101 velocity=64 time=0\n",
      "note_off channel=0 note=101 velocity=0 time=256\n",
      "note_on channel=0 note=99 velocity=64 time=0\n",
      "note_on channel=0 note=49 velocity=64 time=0\n",
      "note_on channel=0 note=53 velocity=64 time=0\n",
      "note_on channel=0 note=61 velocity=64 time=0\n",
      "note_off channel=0 note=99 velocity=0 time=256\n",
      "note_on channel=0 note=97 velocity=64 time=0\n",
      "note_off channel=0 note=97 velocity=0 time=256\n",
      "note_on channel=0 note=96 velocity=64 time=0\n",
      "note_off channel=0 note=34 velocity=0 time=0\n",
      "note_off channel=0 note=46 velocity=0 time=0\n",
      "note_off channel=0 note=96 velocity=0 time=256\n",
      "note_on channel=0 note=94 velocity=64 time=0\n",
      "note_off channel=0 note=94 velocity=0 time=256\n",
      "note_on channel=0 note=93 velocity=64 time=0\n",
      "note_off channel=0 note=49 velocity=0 time=0\n",
      "note_off channel=0 note=53 velocity=0 time=0\n",
      "note_off channel=0 note=61 velocity=0 time=0\n",
      "note_on channel=0 note=29 velocity=72 time=0\n",
      "note_on channel=0 note=41 velocity=72 time=0\n",
      "note_off channel=0 note=93 velocity=0 time=256\n",
      "note_on channel=0 note=94 velocity=64 time=0\n",
      "note_off channel=0 note=94 velocity=0 time=256\n",
      "note_off channel=0 note=29 velocity=0 time=0\n",
      "note_off channel=0 note=41 velocity=0 time=0\n",
      "note_on channel=0 note=92 velocity=64 time=0\n",
      "note_on channel=0 note=34 velocity=72 time=0\n",
      "note_on channel=0 note=46 velocity=72 time=0\n",
      "note_off channel=0 note=92 velocity=0 time=256\n",
      "note_on channel=0 note=90 velocity=64 time=0\n",
      "note_off channel=0 note=90 velocity=0 time=256\n",
      "note_on channel=0 note=89 velocity=64 time=0\n",
      "note_on channel=0 note=49 velocity=64 time=0\n",
      "note_on channel=0 note=53 velocity=64 time=0\n",
      "note_on channel=0 note=61 velocity=64 time=0\n",
      "note_off channel=0 note=89 velocity=0 time=256\n",
      "note_on channel=0 note=88 velocity=64 time=0\n",
      "note_off channel=0 note=88 velocity=0 time=256\n",
      "note_on channel=0 note=89 velocity=64 time=0\n",
      "note_off channel=0 note=34 velocity=0 time=0\n",
      "note_off channel=0 note=46 velocity=0 time=0\n",
      "note_off channel=0 note=89 velocity=0 time=256\n",
      "note_on channel=0 note=87 velocity=64 time=0\n",
      "note_off channel=0 note=87 velocity=0 time=256\n",
      "note_on channel=0 note=85 velocity=64 time=0\n",
      "note_off channel=0 note=49 velocity=0 time=0\n",
      "note_off channel=0 note=53 velocity=0 time=0\n",
      "note_off channel=0 note=61 velocity=0 time=0\n",
      "note_on channel=0 note=29 velocity=72 time=0\n",
      "note_on channel=0 note=41 velocity=72 time=0\n",
      "note_off channel=0 note=85 velocity=0 time=256\n",
      "note_on channel=0 note=84 velocity=64 time=0\n",
      "note_off channel=0 note=84 velocity=0 time=256\n",
      "note_on channel=0 note=82 velocity=64 time=0\n",
      "note_off channel=0 note=29 velocity=0 time=0\n",
      "note_off channel=0 note=41 velocity=0 time=0\n",
      "note_on channel=0 note=34 velocity=72 time=0\n",
      "note_on channel=0 note=46 velocity=72 time=0\n",
      "note_off channel=0 note=82 velocity=0 time=256\n",
      "note_on channel=0 note=81 velocity=64 time=0\n",
      "note_off channel=0 note=81 velocity=0 time=256\n",
      "note_on channel=0 note=82 velocity=64 time=0\n",
      "note_on channel=0 note=49 velocity=64 time=0\n",
      "note_on channel=0 note=53 velocity=64 time=0\n",
      "note_on channel=0 note=61 velocity=64 time=0\n",
      "note_off channel=0 note=82 velocity=0 time=256\n",
      "note_on channel=0 note=80 velocity=64 time=0\n",
      "note_off channel=0 note=80 velocity=0 time=256\n",
      "note_on channel=0 note=78 velocity=64 time=0\n",
      "note_off channel=0 note=34 velocity=0 time=0\n",
      "note_off channel=0 note=46 velocity=0 time=0\n",
      "note_off channel=0 note=78 velocity=0 time=256\n",
      "note_on channel=0 note=77 velocity=64 time=0\n",
      "note_off channel=0 note=77 velocity=0 time=256\n",
      "note_on channel=0 note=75 velocity=64 time=0\n",
      "note_off channel=0 note=49 velocity=0 time=0\n",
      "note_off channel=0 note=53 velocity=0 time=0\n",
      "note_off channel=0 note=61 velocity=0 time=0\n",
      "note_on channel=0 note=29 velocity=72 time=0\n",
      "note_on channel=0 note=41 velocity=72 time=0\n",
      "note_off channel=0 note=75 velocity=0 time=256\n",
      "note_on channel=0 note=73 velocity=64 time=0\n",
      "note_off channel=0 note=73 velocity=0 time=256\n",
      "note_off channel=0 note=29 velocity=0 time=0\n",
      "note_off channel=0 note=41 velocity=0 time=0\n",
      "note_on channel=0 note=72 velocity=64 time=0\n",
      "note_on channel=0 note=34 velocity=72 time=0\n",
      "note_on channel=0 note=46 velocity=72 time=0\n",
      "note_off channel=0 note=72 velocity=0 time=256\n",
      "note_on channel=0 note=73 velocity=64 time=0\n",
      "note_off channel=0 note=73 velocity=0 time=256\n",
      "note_on channel=0 note=75 velocity=64 time=0\n",
      "note_on channel=0 note=51 velocity=64 time=0\n",
      "note_on channel=0 note=54 velocity=64 time=0\n",
      "note_on channel=0 note=63 velocity=64 time=0\n",
      "note_off channel=0 note=75 velocity=0 time=256\n",
      "note_on channel=0 note=77 velocity=64 time=0\n",
      "note_off channel=0 note=77 velocity=0 time=256\n",
      "note_on channel=0 note=78 velocity=64 time=0\n",
      "note_off channel=0 note=34 velocity=0 time=0\n",
      "note_off channel=0 note=46 velocity=0 time=0\n",
      "note_off channel=0 note=78 velocity=0 time=256\n",
      "note_on channel=0 note=80 velocity=64 time=0\n",
      "note_off channel=0 note=80 velocity=0 time=256\n",
      "note_on channel=0 note=82 velocity=64 time=0\n",
      "note_off channel=0 note=51 velocity=0 time=0\n",
      "note_off channel=0 note=54 velocity=0 time=0\n",
      "note_off channel=0 note=63 velocity=0 time=0\n",
      "note_on channel=0 note=29 velocity=72 time=0\n",
      "note_on channel=0 note=41 velocity=72 time=0\n",
      "note_off channel=0 note=82 velocity=0 time=256\n",
      "note_on channel=0 note=84 velocity=64 time=0\n",
      "note_off channel=0 note=84 velocity=0 time=256\n",
      "note_on channel=0 note=82 velocity=64 time=0\n",
      "note_off channel=0 note=29 velocity=0 time=0\n",
      "note_off channel=0 note=41 velocity=0 time=0\n",
      "note_on channel=0 note=34 velocity=72 time=0\n",
      "note_on channel=0 note=46 velocity=72 time=0\n",
      "note_off channel=0 note=82 velocity=0 time=256\n",
      "note_on channel=0 note=80 velocity=64 time=0\n",
      "note_off channel=0 note=80 velocity=0 time=256\n",
      "note_on channel=0 note=78 velocity=64 time=0\n",
      "note_on channel=0 note=51 velocity=64 time=0\n",
      "note_on channel=0 note=54 velocity=64 time=0\n",
      "note_on channel=0 note=63 velocity=64 time=0\n",
      "note_off channel=0 note=78 velocity=0 time=256\n",
      "note_on channel=0 note=77 velocity=64 time=0\n",
      "note_off channel=0 note=77 velocity=0 time=256\n",
      "note_on channel=0 note=75 velocity=64 time=0\n",
      "note_off channel=0 note=34 velocity=0 time=0\n",
      "note_off channel=0 note=46 velocity=0 time=0\n",
      "note_off channel=0 note=75 velocity=0 time=256\n",
      "note_on channel=0 note=73 velocity=64 time=0\n",
      "note_off channel=0 note=73 velocity=0 time=256\n",
      "note_on channel=0 note=72 velocity=64 time=0\n",
      "note_off channel=0 note=51 velocity=0 time=0\n",
      "note_off channel=0 note=54 velocity=0 time=0\n",
      "note_off channel=0 note=63 velocity=0 time=0\n",
      "note_on channel=0 note=29 velocity=72 time=0\n",
      "note_on channel=0 note=41 velocity=72 time=0\n",
      "note_off channel=0 note=72 velocity=0 time=256\n",
      "note_on channel=0 note=75 velocity=64 time=0\n",
      "note_off channel=0 note=75 velocity=0 time=256\n",
      "note_off channel=0 note=29 velocity=0 time=0\n",
      "note_off channel=0 note=41 velocity=0 time=0\n",
      "note_on channel=0 note=78 velocity=64 time=0\n",
      "note_on channel=0 note=33 velocity=72 time=0\n",
      "note_on channel=0 note=45 velocity=72 time=0\n",
      "note_off channel=0 note=78 velocity=0 time=256\n",
      "note_on channel=0 note=74 velocity=64 time=0\n",
      "note_off channel=0 note=74 velocity=0 time=256\n",
      "note_on channel=0 note=76 velocity=64 time=0\n",
      "note_on channel=0 note=51 velocity=64 time=0\n",
      "note_on channel=0 note=54 velocity=64 time=0\n",
      "note_on channel=0 note=63 velocity=64 time=0\n",
      "note_off channel=0 note=76 velocity=0 time=256\n",
      "note_on channel=0 note=75 velocity=64 time=0\n",
      "note_off channel=0 note=75 velocity=0 time=256\n",
      "note_on channel=0 note=72 velocity=64 time=0\n",
      "note_off channel=0 note=33 velocity=0 time=0\n",
      "note_off channel=0 note=45 velocity=0 time=0\n",
      "note_off channel=0 note=72 velocity=0 time=256\n",
      "note_on channel=0 note=66 velocity=64 time=0\n",
      "note_off channel=0 note=66 velocity=0 time=256\n",
      "note_on channel=0 note=71 velocity=64 time=0\n",
      "note_off channel=0 note=51 velocity=0 time=0\n",
      "note_off channel=0 note=54 velocity=0 time=0\n",
      "note_off channel=0 note=63 velocity=0 time=0\n",
      "note_on channel=0 note=27 velocity=72 time=0\n",
      "note_on channel=0 note=39 velocity=72 time=0\n",
      "note_off channel=0 note=71 velocity=0 time=256\n",
      "note_on channel=0 note=72 velocity=64 time=0\n",
      "note_off channel=0 note=72 velocity=0 time=256\n",
      "note_on channel=0 note=73 velocity=64 time=0\n",
      "note_off channel=0 note=27 velocity=0 time=0\n",
      "note_off channel=0 note=39 velocity=0 time=0\n",
      "note_on channel=0 note=33 velocity=72 time=0\n",
      "note_on channel=0 note=45 velocity=72 time=0\n",
      "note_off channel=0 note=73 velocity=0 time=256\n",
      "note_on channel=0 note=72 velocity=64 time=0\n",
      "note_off channel=0 note=72 velocity=0 time=256\n",
      "note_on channel=0 note=74 velocity=64 time=0\n",
      "note_on channel=0 note=51 velocity=64 time=0\n",
      "note_on channel=0 note=54 velocity=64 time=0\n",
      "note_on channel=0 note=63 velocity=64 time=0\n",
      "note_off channel=0 note=74 velocity=0 time=256\n",
      "note_on channel=0 note=75 velocity=64 time=0\n",
      "note_off channel=0 note=75 velocity=0 time=256\n",
      "note_on channel=0 note=76 velocity=64 time=0\n",
      "note_off channel=0 note=33 velocity=0 time=0\n",
      "note_off channel=0 note=45 velocity=0 time=0\n",
      "note_off channel=0 note=76 velocity=0 time=256\n",
      "note_on channel=0 note=75 velocity=64 time=0\n",
      "note_off channel=0 note=75 velocity=0 time=256\n",
      "note_on channel=0 note=76 velocity=64 time=0\n",
      "note_off channel=0 note=51 velocity=0 time=0\n",
      "note_off channel=0 note=54 velocity=0 time=0\n",
      "note_off channel=0 note=63 velocity=0 time=0\n",
      "note_on channel=0 note=27 velocity=72 time=0\n",
      "note_on channel=0 note=39 velocity=72 time=0\n",
      "note_off channel=0 note=76 velocity=0 time=256\n",
      "note_on channel=0 note=77 velocity=64 time=0\n",
      "note_off channel=0 note=77 velocity=0 time=256\n",
      "note_off channel=0 note=27 velocity=0 time=0\n",
      "note_off channel=0 note=39 velocity=0 time=0\n",
      "note_on channel=0 note=80 velocity=64 time=0\n",
      "note_on channel=0 note=33 velocity=72 time=0\n",
      "note_on channel=0 note=45 velocity=72 time=0\n",
      "note_off channel=0 note=80 velocity=0 time=256\n",
      "note_on channel=0 note=78 velocity=64 time=0\n",
      "note_off channel=0 note=78 velocity=0 time=256\n",
      "note_on channel=0 note=83 velocity=64 time=0\n",
      "note_on channel=0 note=51 velocity=64 time=0\n",
      "note_on channel=0 note=54 velocity=64 time=0\n",
      "note_on channel=0 note=63 velocity=64 time=0\n",
      "note_off channel=0 note=83 velocity=0 time=256\n",
      "note_on channel=0 note=84 velocity=64 time=0\n",
      "note_off channel=0 note=84 velocity=0 time=256\n",
      "note_on channel=0 note=85 velocity=64 time=0\n",
      "note_off channel=0 note=33 velocity=0 time=0\n",
      "note_off channel=0 note=45 velocity=0 time=0\n",
      "note_off channel=0 note=85 velocity=0 time=256\n",
      "note_on channel=0 note=84 velocity=64 time=0\n",
      "note_off channel=0 note=84 velocity=0 time=256\n",
      "note_on channel=0 note=86 velocity=64 time=0\n",
      "note_off channel=0 note=51 velocity=0 time=0\n",
      "note_off channel=0 note=54 velocity=0 time=0\n",
      "note_off channel=0 note=63 velocity=0 time=0\n",
      "note_on channel=0 note=27 velocity=72 time=0\n",
      "note_on channel=0 note=39 velocity=72 time=0\n",
      "note_off channel=0 note=86 velocity=0 time=256\n",
      "note_on channel=0 note=87 velocity=64 time=0\n",
      "note_off channel=0 note=87 velocity=0 time=256\n",
      "note_on channel=0 note=88 velocity=64 time=0\n",
      "note_off channel=0 note=27 velocity=0 time=0\n",
      "note_off channel=0 note=39 velocity=0 time=0\n",
      "note_on channel=0 note=33 velocity=72 time=0\n",
      "note_on channel=0 note=45 velocity=72 time=0\n",
      "note_off channel=0 note=88 velocity=0 time=256\n",
      "note_on channel=0 note=87 velocity=64 time=0\n",
      "note_off channel=0 note=87 velocity=0 time=256\n",
      "note_on channel=0 note=88 velocity=64 time=0\n",
      "note_on channel=0 note=51 velocity=64 time=0\n",
      "note_on channel=0 note=54 velocity=64 time=0\n",
      "note_on channel=0 note=63 velocity=64 time=0\n",
      "note_off channel=0 note=88 velocity=0 time=256\n",
      "note_on channel=0 note=89 velocity=64 time=0\n",
      "note_off channel=0 note=89 velocity=0 time=256\n",
      "note_on channel=0 note=92 velocity=64 time=0\n",
      "note_off channel=0 note=33 velocity=0 time=0\n",
      "note_off channel=0 note=45 velocity=0 time=0\n",
      "note_off channel=0 note=92 velocity=0 time=256\n",
      "note_on channel=0 note=94 velocity=64 time=0\n",
      "note_off channel=0 note=94 velocity=0 time=256\n",
      "note_on channel=0 note=92 velocity=64 time=0\n",
      "note_off channel=0 note=51 velocity=0 time=0\n",
      "note_off channel=0 note=54 velocity=0 time=0\n",
      "note_off channel=0 note=63 velocity=0 time=0\n",
      "note_on channel=0 note=27 velocity=72 time=0\n",
      "note_on channel=0 note=39 velocity=72 time=0\n",
      "note_off channel=0 note=92 velocity=0 time=256\n",
      "note_on channel=0 note=91 velocity=64 time=0\n",
      "note_off channel=0 note=91 velocity=0 time=256\n",
      "note_off channel=0 note=27 velocity=0 time=0\n",
      "note_off channel=0 note=39 velocity=0 time=0\n",
      "note_on channel=0 note=90 velocity=64 time=0\n",
      "note_on channel=0 note=32 velocity=72 time=0\n",
      "note_on channel=0 note=44 velocity=72 time=0\n",
      "note_off channel=0 note=90 velocity=0 time=256\n",
      "note_on channel=0 note=101 velocity=64 time=0\n",
      "note_off channel=0 note=101 velocity=0 time=256\n",
      "note_on channel=0 note=99 velocity=64 time=0\n",
      "note_on channel=0 note=51 velocity=64 time=0\n",
      "note_on channel=0 note=60 velocity=64 time=0\n",
      "note_on channel=0 note=66 velocity=64 time=0\n",
      "note_off channel=0 note=99 velocity=0 time=256\n",
      "note_on channel=0 note=90 velocity=64 time=0\n",
      "note_off channel=0 note=90 velocity=0 time=256\n",
      "note_on channel=0 note=99 velocity=64 time=0\n",
      "note_off channel=0 note=32 velocity=0 time=0\n",
      "note_off channel=0 note=44 velocity=0 time=0\n",
      "note_off channel=0 note=99 velocity=0 time=256\n",
      "note_on channel=0 note=97 velocity=64 time=0\n",
      "note_off channel=0 note=97 velocity=0 time=256\n",
      "note_on channel=0 note=89 velocity=64 time=0\n",
      "note_off channel=0 note=51 velocity=0 time=0\n",
      "note_off channel=0 note=60 velocity=0 time=0\n",
      "note_off channel=0 note=66 velocity=0 time=0\n",
      "note_on channel=0 note=27 velocity=72 time=0\n",
      "note_on channel=0 note=39 velocity=72 time=0\n",
      "note_off channel=0 note=89 velocity=0 time=256\n",
      "note_on channel=0 note=97 velocity=64 time=0\n",
      "note_off channel=0 note=97 velocity=0 time=256\n",
      "note_on channel=0 note=96 velocity=64 time=0\n",
      "note_off channel=0 note=27 velocity=0 time=0\n",
      "note_off channel=0 note=39 velocity=0 time=0\n",
      "note_on channel=0 note=32 velocity=72 time=0\n",
      "note_on channel=0 note=44 velocity=72 time=0\n",
      "note_off channel=0 note=96 velocity=0 time=256\n",
      "note_on channel=0 note=87 velocity=64 time=0\n",
      "note_off channel=0 note=87 velocity=0 time=256\n",
      "note_on channel=0 note=96 velocity=64 time=0\n",
      "note_on channel=0 note=51 velocity=64 time=0\n",
      "note_on channel=0 note=60 velocity=64 time=0\n",
      "note_on channel=0 note=66 velocity=64 time=0\n",
      "note_off channel=0 note=96 velocity=0 time=256\n",
      "note_on channel=0 note=94 velocity=64 time=0\n",
      "note_off channel=0 note=94 velocity=0 time=256\n",
      "note_on channel=0 note=85 velocity=64 time=0\n",
      "note_off channel=0 note=32 velocity=0 time=0\n",
      "note_off channel=0 note=44 velocity=0 time=0\n",
      "note_off channel=0 note=85 velocity=0 time=256\n",
      "note_on channel=0 note=94 velocity=64 time=0\n",
      "note_off channel=0 note=94 velocity=0 time=256\n",
      "note_on channel=0 note=92 velocity=64 time=0\n",
      "note_on channel=0 note=32 velocity=72 time=0\n",
      "note_off channel=0 note=92 velocity=0 time=256\n",
      "note_on channel=0 note=84 velocity=64 time=0\n",
      "note_off channel=0 note=84 velocity=0 time=256\n",
      "note_off channel=0 note=51 velocity=0 time=0\n",
      "note_off channel=0 note=60 velocity=0 time=0\n",
      "note_off channel=0 note=66 velocity=0 time=0\n",
      "note_off channel=0 note=32 velocity=0 time=0\n",
      "note_on channel=0 note=92 velocity=64 time=0\n",
      "note_on channel=0 note=44 velocity=72 time=0\n",
      "note_off channel=0 note=92 velocity=0 time=256\n",
      "note_on channel=0 note=90 velocity=64 time=0\n",
      "note_off channel=0 note=90 velocity=0 time=256\n",
      "note_on channel=0 note=82 velocity=64 time=0\n",
      "note_on channel=0 note=53 velocity=64 time=0\n",
      "note_on channel=0 note=61 velocity=64 time=0\n",
      "note_on channel=0 note=65 velocity=64 time=0\n",
      "note_off channel=0 note=82 velocity=0 time=256\n",
      "note_on channel=0 note=90 velocity=64 time=0\n",
      "note_off channel=0 note=90 velocity=0 time=256\n",
      "note_on channel=0 note=89 velocity=64 time=0\n",
      "note_off channel=0 note=44 velocity=0 time=0\n",
      "note_off channel=0 note=89 velocity=0 time=256\n",
      "note_on channel=0 note=80 velocity=64 time=0\n",
      "note_off channel=0 note=80 velocity=0 time=256\n",
      "note_on channel=0 note=89 velocity=64 time=0\n",
      "note_off channel=0 note=53 velocity=0 time=0\n",
      "note_off channel=0 note=61 velocity=0 time=0\n",
      "note_off channel=0 note=65 velocity=0 time=0\n",
      "note_on channel=0 note=32 velocity=72 time=0\n",
      "note_off channel=0 note=89 velocity=0 time=256\n",
      "note_on channel=0 note=87 velocity=64 time=0\n",
      "note_off channel=0 note=87 velocity=0 time=256\n",
      "note_on channel=0 note=78 velocity=64 time=0\n",
      "note_off channel=0 note=32 velocity=0 time=0\n",
      "note_on channel=0 note=44 velocity=72 time=0\n",
      "note_off channel=0 note=78 velocity=0 time=256\n",
      "note_on channel=0 note=87 velocity=64 time=0\n",
      "note_off channel=0 note=87 velocity=0 time=256\n",
      "note_on channel=0 note=85 velocity=64 time=0\n",
      "note_on channel=0 note=53 velocity=64 time=0\n",
      "note_on channel=0 note=61 velocity=64 time=0\n",
      "note_off channel=0 note=85 velocity=0 time=256\n",
      "note_on channel=0 note=77 velocity=64 time=0\n",
      "note_off channel=0 note=77 velocity=0 time=256\n",
      "note_on channel=0 note=82 velocity=64 time=0\n",
      "note_off channel=0 note=44 velocity=0 time=0\n",
      "note_off channel=0 note=82 velocity=0 time=256\n",
      "note_on channel=0 note=80 velocity=64 time=0\n",
      "note_off channel=0 note=80 velocity=0 time=256\n",
      "note_on channel=0 note=77 velocity=64 time=0\n",
      "note_off channel=0 note=53 velocity=0 time=0\n",
      "note_off channel=0 note=61 velocity=0 time=0\n",
      "note_on channel=0 note=32 velocity=64 time=0\n",
      "note_off channel=0 note=77 velocity=0 time=256\n",
      "note_on channel=0 note=73 velocity=64 time=0\n",
      "note_off channel=0 note=73 velocity=0 time=256\n",
      "note_off channel=0 note=32 velocity=0 time=0\n",
      "note_on channel=0 note=72 velocity=64 time=0\n",
      "note_on channel=0 note=44 velocity=64 time=0\n",
      "note_off channel=0 note=72 velocity=0 time=256\n",
      "note_on channel=0 note=73 velocity=64 time=0\n",
      "note_off channel=0 note=73 velocity=0 time=256\n",
      "note_on channel=0 note=75 velocity=64 time=0\n",
      "note_on channel=0 note=51 velocity=48 time=0\n",
      "note_on channel=0 note=54 velocity=48 time=0\n",
      "note_on channel=0 note=60 velocity=48 time=0\n",
      "note_off channel=0 note=75 velocity=0 time=256\n",
      "note_on channel=0 note=76 velocity=64 time=0\n",
      "note_off channel=0 note=76 velocity=0 time=256\n",
      "note_on channel=0 note=77 velocity=64 time=0\n",
      "note_off channel=0 note=44 velocity=0 time=0\n",
      "note_off channel=0 note=77 velocity=0 time=256\n",
      "note_on channel=0 note=78 velocity=64 time=0\n",
      "note_off channel=0 note=78 velocity=0 time=256\n",
      "note_on channel=0 note=80 velocity=64 time=0\n",
      "note_off channel=0 note=51 velocity=0 time=0\n",
      "note_off channel=0 note=54 velocity=0 time=0\n",
      "note_off channel=0 note=60 velocity=0 time=0\n",
      "note_on channel=0 note=32 velocity=64 time=0\n",
      "note_off channel=0 note=80 velocity=0 time=256\n",
      "note_on channel=0 note=81 velocity=64 time=0\n",
      "note_off channel=0 note=81 velocity=0 time=256\n",
      "note_on channel=0 note=79 velocity=64 time=0\n",
      "note_off channel=0 note=32 velocity=0 time=0\n",
      "note_on channel=0 note=44 velocity=64 time=0\n",
      "note_off channel=0 note=79 velocity=0 time=256\n",
      "note_on channel=0 note=80 velocity=64 time=0\n",
      "note_off channel=0 note=80 velocity=0 time=256\n",
      "note_on channel=0 note=75 velocity=64 time=0\n",
      "note_on channel=0 note=52 velocity=48 time=0\n",
      "note_on channel=0 note=61 velocity=48 time=0\n",
      "note_off channel=0 note=75 velocity=0 time=256\n",
      "note_on channel=0 note=76 velocity=64 time=0\n",
      "note_off channel=0 note=76 velocity=0 time=256\n",
      "note_on channel=0 note=68 velocity=64 time=0\n",
      "note_off channel=0 note=44 velocity=0 time=0\n",
      "note_off channel=0 note=68 velocity=0 time=256\n",
      "note_on channel=0 note=76 velocity=64 time=0\n",
      "note_off channel=0 note=76 velocity=0 time=256\n",
      "note_on channel=0 note=75 velocity=64 time=0\n",
      "note_on channel=0 note=32 velocity=64 time=0\n",
      "note_off channel=0 note=75 velocity=0 time=256\n",
      "note_on channel=0 note=73 velocity=64 time=0\n",
      "note_off channel=0 note=73 velocity=0 time=256\n",
      "note_off channel=0 note=52 velocity=0 time=0\n",
      "note_off channel=0 note=61 velocity=0 time=0\n",
      "note_off channel=0 note=32 velocity=0 time=0\n",
      "note_on channel=0 note=72 velocity=64 time=0\n",
      "note_on channel=0 note=44 velocity=64 time=0\n",
      "note_off channel=0 note=72 velocity=0 time=256\n",
      "note_on channel=0 note=73 velocity=64 time=0\n",
      "note_off channel=0 note=73 velocity=0 time=256\n",
      "note_on channel=0 note=75 velocity=64 time=0\n",
      "note_on channel=0 note=51 velocity=48 time=0\n",
      "note_on channel=0 note=54 velocity=48 time=0\n",
      "note_on channel=0 note=60 velocity=48 time=0\n",
      "note_off channel=0 note=75 velocity=0 time=256\n",
      "note_on channel=0 note=76 velocity=64 time=0\n",
      "note_off channel=0 note=76 velocity=0 time=256\n",
      "note_on channel=0 note=77 velocity=64 time=0\n",
      "note_off channel=0 note=44 velocity=0 time=0\n",
      "note_off channel=0 note=77 velocity=0 time=256\n",
      "note_on channel=0 note=78 velocity=64 time=0\n",
      "note_off channel=0 note=78 velocity=0 time=256\n",
      "note_on channel=0 note=80 velocity=64 time=0\n",
      "note_off channel=0 note=51 velocity=0 time=0\n",
      "note_off channel=0 note=54 velocity=0 time=0\n",
      "note_off channel=0 note=60 velocity=0 time=0\n",
      "note_on channel=0 note=44 velocity=64 time=0\n",
      "note_off channel=0 note=80 velocity=0 time=256\n",
      "note_on channel=0 note=81 velocity=64 time=0\n",
      "note_off channel=0 note=81 velocity=0 time=256\n",
      "note_on channel=0 note=79 velocity=64 time=0\n",
      "note_off channel=0 note=44 velocity=0 time=0\n",
      "note_on channel=0 note=49 velocity=64 time=0\n",
      "note_off channel=0 note=79 velocity=0 time=256\n",
      "note_on channel=0 note=80 velocity=64 time=0\n",
      "note_off channel=0 note=80 velocity=0 time=256\n",
      "note_on channel=0 note=75 velocity=64 time=0\n",
      "note_on channel=0 note=52 velocity=48 time=0\n",
      "note_on channel=0 note=61 velocity=48 time=0\n",
      "note_off channel=0 note=75 velocity=0 time=256\n",
      "note_on channel=0 note=76 velocity=64 time=0\n",
      "note_off channel=0 note=76 velocity=0 time=256\n",
      "note_on channel=0 note=68 velocity=64 time=0\n",
      "note_off channel=0 note=49 velocity=0 time=0\n",
      "note_off channel=0 note=68 velocity=0 time=256\n",
      "note_on channel=0 note=76 velocity=64 time=0\n",
      "note_off channel=0 note=76 velocity=0 time=256\n",
      "note_on channel=0 note=73 velocity=64 time=0\n",
      "note_off channel=0 note=52 velocity=0 time=0\n",
      "note_off channel=0 note=61 velocity=0 time=0\n",
      "note_on channel=0 note=43 velocity=64 time=0\n",
      "note_off channel=0 note=73 velocity=0 time=256\n",
      "note_on channel=0 note=71 velocity=64 time=0\n",
      "note_off channel=0 note=71 velocity=0 time=256\n",
      "note_off channel=0 note=43 velocity=0 time=0\n",
      "note_on channel=0 note=70 velocity=64 time=0\n",
      "note_on channel=0 note=42 velocity=64 time=0\n",
      "note_off channel=0 note=70 velocity=0 time=256\n",
      "note_on channel=0 note=71 velocity=64 time=0\n",
      "note_off channel=0 note=71 velocity=0 time=256\n",
      "note_on channel=0 note=73 velocity=64 time=0\n",
      "note_on channel=0 note=54 velocity=48 time=0\n",
      "note_on channel=0 note=58 velocity=48 time=0\n",
      "note_on channel=0 note=64 velocity=48 time=0\n",
      "note_off channel=0 note=73 velocity=0 time=256\n",
      "note_on channel=0 note=74 velocity=64 time=0\n",
      "note_off channel=0 note=74 velocity=0 time=256\n",
      "note_on channel=0 note=75 velocity=64 time=0\n",
      "note_off channel=0 note=42 velocity=0 time=0\n",
      "note_off channel=0 note=75 velocity=0 time=256\n",
      "note_on channel=0 note=76 velocity=64 time=0\n",
      "note_off channel=0 note=76 velocity=0 time=256\n",
      "note_on channel=0 note=78 velocity=64 time=0\n",
      "note_off channel=0 note=54 velocity=0 time=0\n",
      "note_off channel=0 note=58 velocity=0 time=0\n",
      "note_off channel=0 note=64 velocity=0 time=0\n",
      "note_on channel=0 note=30 velocity=64 time=0\n",
      "note_off channel=0 note=78 velocity=0 time=256\n",
      "note_on channel=0 note=79 velocity=64 time=0\n",
      "note_off channel=0 note=79 velocity=0 time=256\n",
      "note_on channel=0 note=77 velocity=64 time=0\n",
      "note_off channel=0 note=30 velocity=0 time=0\n",
      "note_on channel=0 note=42 velocity=64 time=0\n",
      "note_off channel=0 note=77 velocity=0 time=256\n",
      "note_on channel=0 note=78 velocity=64 time=0\n",
      "note_off channel=0 note=78 velocity=0 time=256\n",
      "note_on channel=0 note=75 velocity=64 time=0\n",
      "note_on channel=0 note=54 velocity=48 time=0\n",
      "note_on channel=0 note=59 velocity=48 time=0\n",
      "note_on channel=0 note=62 velocity=48 time=0\n",
      "note_off channel=0 note=75 velocity=0 time=256\n",
      "note_on channel=0 note=76 velocity=64 time=0\n",
      "note_off channel=0 note=76 velocity=0 time=256\n",
      "note_on channel=0 note=73 velocity=64 time=0\n",
      "note_off channel=0 note=42 velocity=0 time=0\n",
      "note_off channel=0 note=73 velocity=0 time=256\n",
      "note_on channel=0 note=74 velocity=64 time=0\n",
      "note_off channel=0 note=74 velocity=0 time=256\n",
      "note_on channel=0 note=71 velocity=64 time=0\n",
      "note_off channel=0 note=54 velocity=0 time=0\n",
      "note_off channel=0 note=59 velocity=0 time=0\n",
      "note_off channel=0 note=62 velocity=0 time=0\n",
      "note_on channel=0 note=41 velocity=64 time=0\n",
      "note_off channel=0 note=71 velocity=0 time=256\n",
      "note_on channel=0 note=69 velocity=64 time=0\n",
      "note_off channel=0 note=69 velocity=0 time=256\n",
      "note_off channel=0 note=41 velocity=0 time=0\n",
      "note_on channel=0 note=68 velocity=64 time=0\n",
      "note_on channel=0 note=40 velocity=64 time=0\n",
      "note_off channel=0 note=68 velocity=0 time=256\n",
      "note_on channel=0 note=69 velocity=64 time=0\n",
      "note_off channel=0 note=69 velocity=0 time=256\n",
      "note_on channel=0 note=71 velocity=64 time=0\n",
      "note_on channel=0 note=52 velocity=48 time=0\n",
      "note_on channel=0 note=56 velocity=48 time=0\n",
      "note_on channel=0 note=62 velocity=48 time=0\n",
      "note_off channel=0 note=71 velocity=0 time=256\n",
      "note_on channel=0 note=72 velocity=64 time=0\n",
      "note_off channel=0 note=72 velocity=0 time=256\n",
      "note_on channel=0 note=73 velocity=64 time=0\n",
      "note_off channel=0 note=40 velocity=0 time=0\n",
      "note_off channel=0 note=73 velocity=0 time=256\n",
      "note_on channel=0 note=74 velocity=64 time=0\n",
      "note_off channel=0 note=74 velocity=0 time=256\n",
      "note_on channel=0 note=76 velocity=64 time=0\n",
      "note_off channel=0 note=52 velocity=0 time=0\n",
      "note_off channel=0 note=56 velocity=0 time=0\n",
      "note_off channel=0 note=62 velocity=0 time=0\n",
      "note_on channel=0 note=28 velocity=64 time=0\n",
      "note_off channel=0 note=76 velocity=0 time=256\n",
      "note_on channel=0 note=77 velocity=64 time=0\n",
      "note_off channel=0 note=77 velocity=0 time=256\n",
      "note_on channel=0 note=75 velocity=64 time=0\n",
      "note_off channel=0 note=28 velocity=0 time=0\n",
      "note_on channel=0 note=40 velocity=64 time=0\n",
      "note_off channel=0 note=75 velocity=0 time=256\n",
      "note_on channel=0 note=76 velocity=64 time=0\n",
      "note_off channel=0 note=76 velocity=0 time=256\n",
      "note_on channel=0 note=73 velocity=64 time=0\n",
      "note_on channel=0 note=52 velocity=48 time=0\n",
      "note_on channel=0 note=57 velocity=48 time=0\n",
      "note_on channel=0 note=60 velocity=48 time=0\n",
      "note_off channel=0 note=73 velocity=0 time=256\n",
      "note_on channel=0 note=74 velocity=64 time=0\n",
      "note_off channel=0 note=74 velocity=0 time=256\n",
      "note_on channel=0 note=71 velocity=64 time=0\n",
      "note_off channel=0 note=40 velocity=0 time=0\n",
      "note_off channel=0 note=71 velocity=0 time=256\n",
      "note_on channel=0 note=72 velocity=64 time=0\n",
      "note_off channel=0 note=72 velocity=0 time=256\n",
      "note_on channel=0 note=71 velocity=64 time=0\n",
      "note_off channel=0 note=52 velocity=0 time=0\n",
      "note_off channel=0 note=57 velocity=0 time=0\n",
      "note_off channel=0 note=60 velocity=0 time=0\n",
      "note_on channel=0 note=28 velocity=64 time=0\n",
      "note_on channel=0 note=40 velocity=64 time=0\n",
      "note_off channel=0 note=71 velocity=0 time=256\n",
      "note_on channel=0 note=69 velocity=64 time=0\n",
      "note_off channel=0 note=69 velocity=0 time=256\n",
      "note_off channel=0 note=28 velocity=0 time=0\n",
      "note_off channel=0 note=40 velocity=0 time=0\n",
      "note_on channel=0 note=68 velocity=64 time=0\n",
      "note_on channel=0 note=29 velocity=64 time=0\n",
      "note_on channel=0 note=41 velocity=64 time=0\n",
      "note_off channel=0 note=68 velocity=0 time=256\n",
      "note_on channel=0 note=69 velocity=64 time=0\n",
      "note_off channel=0 note=69 velocity=0 time=256\n",
      "note_on channel=0 note=73 velocity=64 time=0\n",
      "note_off channel=0 note=73 velocity=0 time=256\n",
      "note_on channel=0 note=72 velocity=64 time=0\n",
      "note_on channel=0 note=48 velocity=64 time=56\n",
      "note_on channel=0 note=53 velocity=64 time=100\n",
      "note_off channel=0 note=72 velocity=0 time=100\n",
      "note_on channel=0 note=70 velocity=64 time=0\n",
      "note_on channel=0 note=63 velocity=72 time=0\n",
      "note_off channel=0 note=29 velocity=0 time=0\n",
      "note_off channel=0 note=41 velocity=0 time=0\n",
      "note_off channel=0 note=70 velocity=0 time=256\n",
      "note_on channel=0 note=69 velocity=64 time=0\n",
      "note_off channel=0 note=69 velocity=0 time=256\n",
      "note_on channel=0 note=78 velocity=64 time=0\n",
      "note_off channel=0 note=78 velocity=0 time=256\n",
      "note_on channel=0 note=77 velocity=64 time=0\n",
      "note_on channel=0 note=46 velocity=64 time=56\n",
      "note_on channel=0 note=53 velocity=64 time=100\n",
      "note_off channel=0 note=77 velocity=0 time=100\n",
      "note_on channel=0 note=75 velocity=64 time=0\n",
      "note_off channel=0 note=53 velocity=0 time=0\n",
      "note_off channel=0 note=63 velocity=0 time=0\n",
      "note_on channel=0 note=61 velocity=72 time=0\n",
      "note_off channel=0 note=48 velocity=0 time=0\n",
      "note_off channel=0 note=75 velocity=0 time=256\n",
      "note_on channel=0 note=73 velocity=64 time=0\n",
      "note_off channel=0 note=73 velocity=0 time=256\n",
      "note_on channel=0 note=84 velocity=64 time=0\n",
      "note_off channel=0 note=84 velocity=0 time=256\n",
      "note_on channel=0 note=82 velocity=64 time=0\n",
      "note_on channel=0 note=51 velocity=64 time=56\n",
      "note_on channel=0 note=58 velocity=64 time=100\n",
      "note_off channel=0 note=82 velocity=0 time=100\n",
      "note_on channel=0 note=80 velocity=64 time=0\n",
      "note_off channel=0 note=53 velocity=0 time=0\n",
      "note_off channel=0 note=61 velocity=0 time=0\n",
      "note_on channel=0 note=66 velocity=72 time=0\n",
      "note_off channel=0 note=46 velocity=0 time=0\n",
      "note_off channel=0 note=80 velocity=0 time=256\n",
      "note_on channel=0 note=78 velocity=64 time=0\n",
      "note_off channel=0 note=78 velocity=0 time=256\n",
      "note_on channel=0 note=77 velocity=64 time=0\n",
      "note_off channel=0 note=77 velocity=0 time=256\n",
      "note_on channel=0 note=75 velocity=64 time=0\n",
      "note_on channel=0 note=44 velocity=64 time=56\n",
      "note_on channel=0 note=54 velocity=64 time=100\n",
      "note_off channel=0 note=75 velocity=0 time=100\n",
      "note_off channel=0 note=58 velocity=0 time=0\n",
      "note_off channel=0 note=66 velocity=0 time=0\n",
      "note_off channel=0 note=51 velocity=0 time=0\n",
      "note_on channel=0 note=73 velocity=64 time=0\n",
      "note_on channel=0 note=60 velocity=72 time=0\n",
      "note_off channel=0 note=73 velocity=0 time=256\n",
      "note_on channel=0 note=72 velocity=64 time=0\n",
      "note_off channel=0 note=72 velocity=0 time=256\n",
      "note_on channel=0 note=82 velocity=64 time=0\n",
      "note_off channel=0 note=82 velocity=0 time=256\n",
      "note_on channel=0 note=80 velocity=64 time=0\n",
      "note_on channel=0 note=49 velocity=64 time=56\n",
      "note_on channel=0 note=56 velocity=64 time=100\n",
      "note_off channel=0 note=80 velocity=0 time=100\n",
      "note_on channel=0 note=78 velocity=64 time=0\n",
      "note_off channel=0 note=54 velocity=0 time=0\n",
      "note_off channel=0 note=60 velocity=0 time=0\n",
      "note_on channel=0 note=65 velocity=72 time=0\n",
      "note_off channel=0 note=44 velocity=0 time=0\n",
      "note_off channel=0 note=78 velocity=0 time=256\n",
      "note_on channel=0 note=77 velocity=64 time=0\n",
      "note_off channel=0 note=77 velocity=0 time=256\n",
      "note_on channel=0 note=75 velocity=64 time=0\n",
      "note_off channel=0 note=75 velocity=0 time=256\n",
      "note_on channel=0 note=73 velocity=64 time=0\n",
      "note_on channel=0 note=42 velocity=64 time=56\n",
      "note_on channel=0 note=49 velocity=64 time=100\n",
      "note_off channel=0 note=73 velocity=0 time=100\n",
      "note_on channel=0 note=72 velocity=64 time=0\n",
      "note_off channel=0 note=56 velocity=0 time=0\n",
      "note_off channel=0 note=65 velocity=0 time=0\n",
      "note_on channel=0 note=58 velocity=72 time=0\n",
      "note_off channel=0 note=49 velocity=0 time=0\n",
      "note_off channel=0 note=72 velocity=0 time=256\n",
      "note_on channel=0 note=70 velocity=64 time=0\n",
      "note_off channel=0 note=70 velocity=0 time=256\n",
      "note_on channel=0 note=80 velocity=64 time=0\n",
      "note_off channel=0 note=80 velocity=0 time=256\n",
      "note_on channel=0 note=78 velocity=64 time=0\n",
      "note_on channel=0 note=48 velocity=64 time=56\n",
      "note_on channel=0 note=54 velocity=64 time=100\n",
      "note_off channel=0 note=78 velocity=0 time=100\n",
      "note_on channel=0 note=77 velocity=64 time=0\n",
      "note_off channel=0 note=49 velocity=0 time=0\n",
      "note_off channel=0 note=58 velocity=0 time=0\n",
      "note_on channel=0 note=63 velocity=72 time=0\n",
      "note_off channel=0 note=42 velocity=0 time=0\n",
      "note_off channel=0 note=77 velocity=0 time=256\n",
      "note_on channel=0 note=75 velocity=64 time=0\n",
      "note_off channel=0 note=75 velocity=0 time=256\n",
      "note_on channel=0 note=73 velocity=64 time=0\n",
      "note_off channel=0 note=73 velocity=0 time=256\n",
      "note_on channel=0 note=72 velocity=64 time=0\n",
      "note_off channel=0 note=72 velocity=0 time=256\n",
      "note_off channel=0 note=54 velocity=0 time=0\n",
      "note_off channel=0 note=63 velocity=0 time=0\n",
      "note_off channel=0 note=48 velocity=0 time=0\n",
      "note_on channel=0 note=70 velocity=64 time=0\n",
      "note_on channel=0 note=53 velocity=64 time=0\n",
      "note_on channel=0 note=58 velocity=64 time=0\n",
      "note_on channel=0 note=61 velocity=72 time=0\n",
      "note_on channel=0 note=49 velocity=64 time=0\n",
      "note_off channel=0 note=70 velocity=0 time=256\n",
      "note_on channel=0 note=69 velocity=64 time=0\n",
      "note_off channel=0 note=69 velocity=0 time=256\n",
      "note_on channel=0 note=68 velocity=64 time=0\n",
      "note_off channel=0 note=68 velocity=0 time=256\n",
      "note_on channel=0 note=67 velocity=64 time=0\n",
      "note_off channel=0 note=67 velocity=0 time=256\n",
      "note_on channel=0 note=68 velocity=64 time=0\n",
      "note_off channel=0 note=53 velocity=0 time=0\n",
      "note_off channel=0 note=58 velocity=0 time=0\n",
      "note_off channel=0 note=61 velocity=0 time=0\n",
      "note_on channel=0 note=54 velocity=64 time=0\n",
      "note_on channel=0 note=58 velocity=64 time=0\n",
      "note_on channel=0 note=60 velocity=72 time=0\n",
      "note_off channel=0 note=49 velocity=0 time=0\n",
      "note_on channel=0 note=51 velocity=64 time=0\n",
      "note_off channel=0 note=68 velocity=0 time=256\n",
      "note_on channel=0 note=67 velocity=64 time=0\n",
      "note_off channel=0 note=67 velocity=0 time=256\n",
      "note_on channel=0 note=66 velocity=64 time=0\n",
      "note_off channel=0 note=66 velocity=0 time=256\n",
      "note_on channel=0 note=65 velocity=64 time=0\n",
      "note_off channel=0 note=65 velocity=0 time=256\n",
      "note_on channel=0 note=67 velocity=64 time=0\n",
      "note_off channel=0 note=54 velocity=0 time=0\n",
      "note_off channel=0 note=58 velocity=0 time=0\n",
      "note_off channel=0 note=60 velocity=0 time=0\n",
      "note_off channel=0 note=51 velocity=0 time=0\n",
      "note_off channel=0 note=67 velocity=0 time=256\n",
      "note_on channel=0 note=66 velocity=64 time=0\n",
      "note_off channel=0 note=66 velocity=0 time=256\n",
      "note_on channel=0 note=65 velocity=64 time=0\n",
      "note_off channel=0 note=65 velocity=0 time=256\n",
      "note_on channel=0 note=64 velocity=64 time=0\n",
      "note_off channel=0 note=64 velocity=0 time=256\n",
      "note_on channel=0 note=66 velocity=64 time=0\n",
      "note_on channel=0 note=54 velocity=64 time=0\n",
      "note_off channel=0 note=66 velocity=0 time=256\n",
      "note_on channel=0 note=65 velocity=64 time=0\n",
      "note_off channel=0 note=54 velocity=0 time=0\n",
      "note_on channel=0 note=53 velocity=64 time=0\n",
      "note_off channel=0 note=65 velocity=0 time=256\n",
      "note_on channel=0 note=64 velocity=64 time=0\n",
      "note_off channel=0 note=53 velocity=0 time=0\n",
      "note_on channel=0 note=52 velocity=64 time=0\n",
      "note_off channel=0 note=64 velocity=0 time=256\n",
      "note_on channel=0 note=63 velocity=64 time=0\n",
      "note_off channel=0 note=52 velocity=0 time=0\n",
      "note_on channel=0 note=51 velocity=64 time=0\n",
      "note_off channel=0 note=63 velocity=0 time=256\n",
      "note_off channel=0 note=51 velocity=0 time=0\n",
      "note_on channel=0 note=65 velocity=64 time=0\n",
      "note_on channel=0 note=53 velocity=64 time=0\n",
      "note_off channel=0 note=65 velocity=0 time=256\n",
      "note_on channel=0 note=64 velocity=64 time=0\n",
      "note_off channel=0 note=53 velocity=0 time=0\n",
      "note_on channel=0 note=52 velocity=64 time=0\n",
      "note_off channel=0 note=64 velocity=0 time=256\n",
      "note_on channel=0 note=63 velocity=64 time=0\n",
      "note_off channel=0 note=52 velocity=0 time=0\n",
      "note_on channel=0 note=51 velocity=64 time=0\n",
      "note_off channel=0 note=63 velocity=0 time=256\n",
      "note_on channel=0 note=62 velocity=64 time=0\n",
      "note_off channel=0 note=51 velocity=0 time=0\n",
      "note_on channel=0 note=50 velocity=64 time=0\n",
      "note_off channel=0 note=62 velocity=0 time=256\n",
      "note_on channel=0 note=64 velocity=64 time=0\n",
      "note_off channel=0 note=50 velocity=0 time=0\n",
      "note_on channel=0 note=52 velocity=64 time=0\n",
      "note_off channel=0 note=64 velocity=0 time=256\n",
      "note_on channel=0 note=63 velocity=64 time=0\n",
      "note_off channel=0 note=52 velocity=0 time=0\n",
      "note_on channel=0 note=51 velocity=64 time=0\n",
      "note_off channel=0 note=63 velocity=0 time=256\n",
      "note_on channel=0 note=62 velocity=64 time=0\n",
      "note_off channel=0 note=51 velocity=0 time=0\n",
      "note_on channel=0 note=50 velocity=64 time=0\n",
      "note_off channel=0 note=62 velocity=0 time=256\n",
      "note_on channel=0 note=61 velocity=64 time=0\n",
      "note_off channel=0 note=50 velocity=0 time=0\n",
      "note_on channel=0 note=49 velocity=64 time=0\n",
      "note_off channel=0 note=61 velocity=0 time=256\n",
      "note_on channel=0 note=63 velocity=64 time=0\n",
      "note_off channel=0 note=49 velocity=0 time=0\n",
      "note_on channel=0 note=51 velocity=64 time=0\n",
      "note_off channel=0 note=63 velocity=0 time=256\n",
      "note_on channel=0 note=62 velocity=64 time=0\n",
      "note_off channel=0 note=51 velocity=0 time=0\n",
      "note_on channel=0 note=50 velocity=64 time=0\n",
      "note_off channel=0 note=62 velocity=0 time=256\n",
      "note_on channel=0 note=61 velocity=64 time=0\n",
      "note_off channel=0 note=50 velocity=0 time=0\n",
      "note_on channel=0 note=49 velocity=64 time=0\n",
      "note_off channel=0 note=61 velocity=0 time=256\n",
      "note_on channel=0 note=60 velocity=64 time=0\n",
      "note_off channel=0 note=49 velocity=0 time=0\n",
      "note_on channel=0 note=48 velocity=64 time=0\n",
      "note_off channel=0 note=60 velocity=0 time=256\n",
      "note_on channel=0 note=63 velocity=64 time=0\n",
      "note_off channel=0 note=48 velocity=0 time=0\n",
      "note_on channel=0 note=51 velocity=64 time=0\n",
      "note_off channel=0 note=63 velocity=0 time=256\n",
      "note_on channel=0 note=61 velocity=64 time=0\n",
      "note_off channel=0 note=51 velocity=0 time=0\n",
      "note_on channel=0 note=49 velocity=64 time=0\n",
      "note_off channel=0 note=61 velocity=0 time=256\n",
      "note_on channel=0 note=60 velocity=64 time=0\n",
      "note_off channel=0 note=49 velocity=0 time=0\n",
      "note_on channel=0 note=48 velocity=64 time=0\n",
      "note_off channel=0 note=60 velocity=0 time=256\n",
      "note_on channel=0 note=58 velocity=64 time=0\n",
      "note_off channel=0 note=48 velocity=0 time=0\n",
      "note_on channel=0 note=46 velocity=64 time=0\n",
      "note_off channel=0 note=58 velocity=0 time=256\n",
      "note_off channel=0 note=46 velocity=0 time=0\n",
      "note_on channel=0 note=57 velocity=64 time=0\n",
      "note_on channel=0 note=39 velocity=64 time=0\n",
      "note_off channel=0 note=57 velocity=0 time=256\n",
      "note_on channel=0 note=58 velocity=64 time=0\n",
      "note_off channel=0 note=58 velocity=0 time=256\n",
      "note_on channel=0 note=60 velocity=64 time=0\n",
      "note_on channel=0 note=45 velocity=48 time=0\n",
      "note_on channel=0 note=54 velocity=48 time=0\n",
      "note_off channel=0 note=60 velocity=0 time=256\n",
      "note_on channel=0 note=61 velocity=64 time=0\n",
      "note_off channel=0 note=61 velocity=0 time=256\n",
      "note_on channel=0 note=63 velocity=64 time=0\n",
      "note_off channel=0 note=39 velocity=0 time=0\n",
      "note_off channel=0 note=63 velocity=0 time=256\n",
      "note_on channel=0 note=64 velocity=64 time=0\n",
      "note_off channel=0 note=64 velocity=0 time=256\n",
      "note_on channel=0 note=65 velocity=64 time=0\n",
      "note_off channel=0 note=45 velocity=0 time=0\n",
      "note_off channel=0 note=54 velocity=0 time=0\n",
      "note_on channel=0 note=39 velocity=64 time=0\n",
      "note_off channel=0 note=65 velocity=0 time=256\n",
      "note_on channel=0 note=66 velocity=64 time=0\n",
      "note_off channel=0 note=66 velocity=0 time=256\n",
      "note_on channel=0 note=64 velocity=64 time=0\n",
      "note_off channel=0 note=39 velocity=0 time=0\n",
      "note_on channel=0 note=37 velocity=64 time=0\n",
      "note_off channel=0 note=64 velocity=0 time=256\n",
      "note_on channel=0 note=65 velocity=64 time=0\n",
      "note_off channel=0 note=65 velocity=0 time=256\n",
      "note_on channel=0 note=62 velocity=64 time=0\n",
      "note_on channel=0 note=46 velocity=48 time=0\n",
      "note_on channel=0 note=53 velocity=48 time=0\n",
      "note_off channel=0 note=62 velocity=0 time=256\n",
      "note_on channel=0 note=63 velocity=64 time=0\n",
      "note_off channel=0 note=63 velocity=0 time=256\n",
      "note_on channel=0 note=60 velocity=64 time=0\n",
      "note_off channel=0 note=37 velocity=0 time=0\n",
      "note_off channel=0 note=60 velocity=0 time=256\n",
      "note_on channel=0 note=61 velocity=64 time=0\n",
      "note_off channel=0 note=61 velocity=0 time=256\n",
      "note_on channel=0 note=60 velocity=64 time=0\n",
      "note_off channel=0 note=46 velocity=0 time=0\n",
      "note_off channel=0 note=53 velocity=0 time=0\n",
      "note_on channel=0 note=37 velocity=64 time=0\n",
      "note_off channel=0 note=60 velocity=0 time=256\n",
      "note_on channel=0 note=58 velocity=64 time=0\n",
      "note_off channel=0 note=58 velocity=0 time=256\n",
      "note_off channel=0 note=37 velocity=0 time=0\n",
      "note_on channel=0 note=57 velocity=64 time=0\n",
      "note_on channel=0 note=39 velocity=64 time=0\n",
      "note_off channel=0 note=57 velocity=0 time=256\n",
      "note_on channel=0 note=58 velocity=64 time=0\n",
      "note_off channel=0 note=58 velocity=0 time=256\n",
      "note_on channel=0 note=60 velocity=64 time=0\n",
      "note_on channel=0 note=45 velocity=48 time=0\n",
      "note_on channel=0 note=54 velocity=48 time=0\n",
      "note_off channel=0 note=60 velocity=0 time=256\n",
      "note_on channel=0 note=61 velocity=64 time=0\n",
      "note_off channel=0 note=61 velocity=0 time=256\n",
      "note_on channel=0 note=63 velocity=64 time=0\n",
      "note_off channel=0 note=39 velocity=0 time=0\n",
      "note_off channel=0 note=63 velocity=0 time=256\n",
      "note_on channel=0 note=64 velocity=64 time=0\n",
      "note_off channel=0 note=64 velocity=0 time=256\n",
      "note_on channel=0 note=65 velocity=64 time=0\n",
      "note_off channel=0 note=45 velocity=0 time=0\n",
      "note_off channel=0 note=54 velocity=0 time=0\n",
      "note_on channel=0 note=39 velocity=64 time=0\n",
      "note_off channel=0 note=65 velocity=0 time=256\n",
      "note_on channel=0 note=66 velocity=64 time=0\n",
      "note_off channel=0 note=66 velocity=0 time=256\n",
      "note_on channel=0 note=64 velocity=64 time=0\n",
      "note_off channel=0 note=39 velocity=0 time=0\n",
      "note_on channel=0 note=37 velocity=64 time=0\n",
      "note_off channel=0 note=64 velocity=0 time=256\n",
      "note_on channel=0 note=65 velocity=64 time=0\n",
      "note_off channel=0 note=65 velocity=0 time=256\n",
      "note_on channel=0 note=62 velocity=64 time=0\n",
      "note_on channel=0 note=46 velocity=48 time=0\n",
      "note_on channel=0 note=53 velocity=48 time=0\n",
      "note_off channel=0 note=62 velocity=0 time=256\n",
      "note_on channel=0 note=63 velocity=64 time=0\n",
      "note_off channel=0 note=63 velocity=0 time=256\n",
      "note_on channel=0 note=60 velocity=64 time=0\n",
      "note_off channel=0 note=37 velocity=0 time=0\n",
      "note_off channel=0 note=60 velocity=0 time=256\n",
      "note_on channel=0 note=61 velocity=64 time=0\n",
      "note_off channel=0 note=61 velocity=0 time=256\n",
      "note_on channel=0 note=60 velocity=64 time=0\n",
      "note_off channel=0 note=46 velocity=0 time=0\n",
      "note_off channel=0 note=53 velocity=0 time=0\n",
      "note_on channel=0 note=37 velocity=64 time=0\n",
      "note_off channel=0 note=60 velocity=0 time=256\n",
      "note_on channel=0 note=58 velocity=64 time=0\n",
      "note_off channel=0 note=58 velocity=0 time=256\n",
      "note_off channel=0 note=37 velocity=0 time=0\n",
      "note_on channel=0 note=60 velocity=64 time=0\n",
      "note_on channel=0 note=39 velocity=64 time=0\n",
      "note_off channel=0 note=60 velocity=0 time=256\n",
      "note_on channel=0 note=61 velocity=64 time=0\n",
      "note_off channel=0 note=61 velocity=0 time=256\n",
      "note_on channel=0 note=63 velocity=64 time=0\n",
      "note_on channel=0 note=46 velocity=48 time=0\n",
      "note_on channel=0 note=54 velocity=48 time=0\n",
      "note_off channel=0 note=63 velocity=0 time=256\n",
      "note_on channel=0 note=65 velocity=64 time=0\n",
      "note_off channel=0 note=65 velocity=0 time=256\n",
      "note_on channel=0 note=66 velocity=64 time=0\n",
      "note_off channel=0 note=39 velocity=0 time=0\n",
      "note_off channel=0 note=66 velocity=0 time=256\n",
      "note_on channel=0 note=72 velocity=64 time=0\n",
      "note_off channel=0 note=72 velocity=0 time=256\n",
      "note_on channel=0 note=70 velocity=64 time=0\n",
      "note_off channel=0 note=46 velocity=0 time=0\n",
      "note_off channel=0 note=54 velocity=0 time=0\n",
      "note_on channel=0 note=39 velocity=64 time=0\n",
      "note_off channel=0 note=70 velocity=0 time=256\n",
      "note_on channel=0 note=60 velocity=64 time=0\n",
      "note_off channel=0 note=60 velocity=0 time=256\n",
      "note_on channel=0 note=58 velocity=64 time=0\n",
      "note_off channel=0 note=39 velocity=0 time=0\n",
      "note_on channel=0 note=41 velocity=64 time=0\n",
      "note_off channel=0 note=58 velocity=0 time=256\n",
      "note_on channel=0 note=60 velocity=64 time=0\n",
      "note_off channel=0 note=60 velocity=0 time=256\n",
      "note_on channel=0 note=61 velocity=64 time=0\n",
      "note_on channel=0 note=49 velocity=48 time=0\n",
      "note_on channel=0 note=58 velocity=48 time=0\n",
      "note_off channel=0 note=61 velocity=0 time=256\n",
      "note_on channel=0 note=63 velocity=64 time=0\n",
      "note_off channel=0 note=63 velocity=0 time=256\n",
      "note_on channel=0 note=65 velocity=64 time=0\n",
      "note_off channel=0 note=41 velocity=0 time=0\n",
      "note_off channel=0 note=65 velocity=0 time=256\n",
      "note_on channel=0 note=72 velocity=64 time=0\n",
      "note_off channel=0 note=72 velocity=0 time=256\n",
      "note_on channel=0 note=70 velocity=64 time=0\n",
      "note_off channel=0 note=49 velocity=0 time=0\n",
      "note_off channel=0 note=58 velocity=0 time=0\n",
      "note_on channel=0 note=29 velocity=64 time=0\n",
      "note_off channel=0 note=70 velocity=0 time=256\n",
      "note_on channel=0 note=66 velocity=64 time=0\n",
      "note_off channel=0 note=66 velocity=0 time=256\n",
      "note_off channel=0 note=29 velocity=0 time=0\n",
      "note_on channel=0 note=64 velocity=64 time=0\n",
      "note_on channel=0 note=41 velocity=64 time=0\n",
      "note_off channel=0 note=64 velocity=0 time=256\n",
      "note_on channel=0 note=65 velocity=64 time=0\n",
      "note_off channel=0 note=65 velocity=0 time=256\n",
      "note_on channel=0 note=66 velocity=64 time=0\n",
      "note_on channel=0 note=51 velocity=48 time=0\n",
      "note_on channel=0 note=57 velocity=48 time=0\n",
      "note_off channel=0 note=66 velocity=0 time=256\n",
      "note_on channel=0 note=65 velocity=64 time=0\n",
      "note_off channel=0 note=65 velocity=0 time=256\n",
      "note_on channel=0 note=70 velocity=64 time=0\n",
      "note_off channel=0 note=41 velocity=0 time=0\n",
      "note_off channel=0 note=70 velocity=0 time=256\n",
      "note_on channel=0 note=69 velocity=64 time=0\n",
      "note_off channel=0 note=69 velocity=0 time=256\n",
      "note_on channel=0 note=78 velocity=64 time=0\n",
      "note_off channel=0 note=51 velocity=0 time=0\n",
      "note_off channel=0 note=57 velocity=0 time=0\n",
      "note_on channel=0 note=41 velocity=64 time=0\n",
      "note_off channel=0 note=78 velocity=0 time=256\n",
      "note_on channel=0 note=77 velocity=64 time=0\n",
      "note_off channel=0 note=77 velocity=0 time=256\n",
      "note_on channel=0 note=75 velocity=64 time=0\n",
      "note_off channel=0 note=41 velocity=0 time=0\n",
      "note_on channel=0 note=46 velocity=64 time=0\n",
      "note_off channel=0 note=75 velocity=0 time=256\n",
      "note_on channel=0 note=73 velocity=64 time=0\n",
      "note_off channel=0 note=73 velocity=0 time=256\n",
      "note_on channel=0 note=70 velocity=64 time=0\n",
      "note_on channel=0 note=53 velocity=48 time=0\n",
      "note_on channel=0 note=61 velocity=48 time=0\n",
      "note_off channel=0 note=70 velocity=0 time=256\n",
      "note_on channel=0 note=65 velocity=64 time=0\n",
      "note_off channel=0 note=65 velocity=0 time=256\n",
      "note_on channel=0 note=63 velocity=64 time=0\n",
      "note_off channel=0 note=46 velocity=0 time=0\n",
      "note_off channel=0 note=63 velocity=0 time=256\n",
      "note_on channel=0 note=61 velocity=64 time=0\n",
      "note_off channel=0 note=61 velocity=0 time=256\n",
      "note_on channel=0 note=58 velocity=64 time=0\n",
      "note_off channel=0 note=53 velocity=0 time=0\n",
      "note_off channel=0 note=61 velocity=0 time=0\n",
      "note_on channel=0 note=37 velocity=64 time=0\n",
      "note_off channel=0 note=58 velocity=0 time=256\n",
      "note_on channel=0 note=53 velocity=64 time=0\n",
      "note_off channel=0 note=53 velocity=0 time=256\n",
      "note_off channel=0 note=37 velocity=0 time=0\n",
      "note_on channel=0 note=57 velocity=64 time=0\n",
      "note_on channel=0 note=39 velocity=64 time=0\n",
      "note_off channel=0 note=57 velocity=0 time=256\n",
      "note_on channel=0 note=58 velocity=64 time=0\n",
      "note_off channel=0 note=58 velocity=0 time=256\n",
      "note_on channel=0 note=60 velocity=64 time=0\n",
      "note_on channel=0 note=45 velocity=48 time=0\n",
      "note_on channel=0 note=54 velocity=48 time=0\n",
      "note_off channel=0 note=60 velocity=0 time=256\n",
      "note_on channel=0 note=61 velocity=64 time=0\n",
      "note_off channel=0 note=61 velocity=0 time=256\n",
      "note_on channel=0 note=63 velocity=64 time=0\n",
      "note_off channel=0 note=39 velocity=0 time=0\n",
      "note_off channel=0 note=63 velocity=0 time=256\n",
      "note_on channel=0 note=64 velocity=64 time=0\n",
      "note_off channel=0 note=64 velocity=0 time=256\n",
      "note_on channel=0 note=65 velocity=64 time=0\n",
      "note_off channel=0 note=45 velocity=0 time=0\n",
      "note_off channel=0 note=54 velocity=0 time=0\n",
      "note_on channel=0 note=39 velocity=64 time=0\n",
      "note_off channel=0 note=65 velocity=0 time=256\n",
      "note_on channel=0 note=66 velocity=64 time=0\n",
      "note_off channel=0 note=66 velocity=0 time=256\n",
      "note_on channel=0 note=64 velocity=64 time=0\n",
      "note_off channel=0 note=39 velocity=0 time=0\n",
      "note_on channel=0 note=37 velocity=64 time=0\n",
      "note_off channel=0 note=64 velocity=0 time=256\n",
      "note_on channel=0 note=65 velocity=64 time=0\n",
      "note_off channel=0 note=65 velocity=0 time=256\n",
      "note_on channel=0 note=62 velocity=64 time=0\n",
      "note_on channel=0 note=46 velocity=48 time=0\n",
      "note_on channel=0 note=53 velocity=48 time=0\n",
      "note_off channel=0 note=62 velocity=0 time=256\n",
      "note_on channel=0 note=63 velocity=64 time=0\n",
      "note_off channel=0 note=63 velocity=0 time=256\n",
      "note_on channel=0 note=60 velocity=64 time=0\n",
      "note_off channel=0 note=37 velocity=0 time=0\n",
      "note_off channel=0 note=60 velocity=0 time=256\n",
      "note_on channel=0 note=61 velocity=64 time=0\n",
      "note_off channel=0 note=61 velocity=0 time=256\n",
      "note_on channel=0 note=60 velocity=64 time=0\n",
      "note_off channel=0 note=46 velocity=0 time=0\n",
      "note_off channel=0 note=53 velocity=0 time=0\n",
      "note_on channel=0 note=37 velocity=64 time=0\n",
      "note_off channel=0 note=60 velocity=0 time=256\n",
      "note_on channel=0 note=58 velocity=64 time=0\n",
      "note_off channel=0 note=58 velocity=0 time=256\n",
      "note_off channel=0 note=37 velocity=0 time=0\n",
      "note_on channel=0 note=57 velocity=64 time=0\n",
      "note_on channel=0 note=39 velocity=64 time=0\n",
      "note_off channel=0 note=57 velocity=0 time=256\n",
      "note_on channel=0 note=58 velocity=64 time=0\n",
      "note_off channel=0 note=58 velocity=0 time=256\n",
      "note_on channel=0 note=60 velocity=64 time=0\n",
      "note_on channel=0 note=45 velocity=48 time=0\n",
      "note_on channel=0 note=54 velocity=48 time=0\n",
      "note_off channel=0 note=60 velocity=0 time=256\n",
      "note_on channel=0 note=61 velocity=64 time=0\n",
      "note_off channel=0 note=61 velocity=0 time=256\n",
      "note_on channel=0 note=63 velocity=64 time=0\n",
      "note_off channel=0 note=39 velocity=0 time=0\n",
      "note_off channel=0 note=63 velocity=0 time=256\n",
      "note_on channel=0 note=64 velocity=64 time=0\n",
      "note_off channel=0 note=64 velocity=0 time=256\n",
      "note_on channel=0 note=65 velocity=64 time=0\n",
      "note_off channel=0 note=45 velocity=0 time=0\n",
      "note_off channel=0 note=54 velocity=0 time=0\n",
      "note_on channel=0 note=39 velocity=64 time=0\n",
      "note_off channel=0 note=65 velocity=0 time=256\n",
      "note_on channel=0 note=66 velocity=64 time=0\n",
      "note_off channel=0 note=66 velocity=0 time=256\n",
      "note_on channel=0 note=64 velocity=64 time=0\n",
      "note_off channel=0 note=39 velocity=0 time=0\n",
      "note_on channel=0 note=37 velocity=64 time=0\n",
      "note_off channel=0 note=64 velocity=0 time=256\n",
      "note_on channel=0 note=65 velocity=64 time=0\n",
      "note_off channel=0 note=65 velocity=0 time=256\n",
      "note_on channel=0 note=62 velocity=64 time=0\n",
      "note_on channel=0 note=46 velocity=48 time=0\n",
      "note_on channel=0 note=53 velocity=48 time=0\n",
      "note_off channel=0 note=62 velocity=0 time=256\n",
      "note_on channel=0 note=63 velocity=64 time=0\n",
      "note_off channel=0 note=63 velocity=0 time=256\n",
      "note_on channel=0 note=60 velocity=64 time=0\n",
      "note_off channel=0 note=37 velocity=0 time=0\n",
      "note_off channel=0 note=60 velocity=0 time=256\n",
      "note_on channel=0 note=61 velocity=64 time=0\n",
      "note_off channel=0 note=61 velocity=0 time=256\n",
      "note_on channel=0 note=60 velocity=64 time=0\n",
      "note_off channel=0 note=46 velocity=0 time=0\n",
      "note_off channel=0 note=53 velocity=0 time=0\n",
      "note_on channel=0 note=37 velocity=64 time=0\n",
      "note_off channel=0 note=60 velocity=0 time=256\n",
      "note_on channel=0 note=58 velocity=64 time=0\n",
      "note_off channel=0 note=58 velocity=0 time=256\n",
      "note_off channel=0 note=37 velocity=0 time=0\n",
      "note_on channel=0 note=59 velocity=64 time=0\n",
      "note_on channel=0 note=47 velocity=64 time=0\n",
      "note_on channel=0 note=54 velocity=64 time=0\n",
      "note_on channel=0 note=39 velocity=64 time=0\n",
      "note_off channel=0 note=59 velocity=0 time=256\n",
      "note_on channel=0 note=61 velocity=64 time=0\n",
      "note_off channel=0 note=61 velocity=0 time=256\n",
      "note_on channel=0 note=63 velocity=64 time=0\n",
      "note_off channel=0 note=63 velocity=0 time=256\n",
      "note_on channel=0 note=64 velocity=64 time=0\n",
      "note_off channel=0 note=64 velocity=0 time=256\n",
      "note_on channel=0 note=66 velocity=64 time=0\n",
      "note_off channel=0 note=66 velocity=0 time=256\n",
      "note_on channel=0 note=68 velocity=64 time=0\n",
      "note_off channel=0 note=68 velocity=0 time=256\n",
      "note_on channel=0 note=70 velocity=64 time=0\n",
      "note_on channel=0 note=51 velocity=64 time=212\n",
      "note_off channel=0 note=70 velocity=0 time=44\n",
      "note_on channel=0 note=71 velocity=64 time=0\n",
      "note_on channel=0 note=54 velocity=64 time=56\n",
      "note_on channel=0 note=59 velocity=64 time=100\n",
      "note_off channel=0 note=71 velocity=0 time=100\n",
      "note_on channel=0 note=73 velocity=64 time=0\n",
      "note_off channel=0 note=47 velocity=0 time=0\n",
      "note_off channel=0 note=54 velocity=0 time=0\n",
      "note_on channel=0 note=66 velocity=80 time=0\n",
      "note_off channel=0 note=39 velocity=0 time=0\n",
      "note_off channel=0 note=73 velocity=0 time=256\n",
      "note_on channel=0 note=75 velocity=64 time=0\n",
      "note_off channel=0 note=75 velocity=0 time=256\n",
      "note_on channel=0 note=76 velocity=64 time=0\n",
      "note_on channel=0 note=49 velocity=64 time=212\n",
      "note_off channel=0 note=76 velocity=0 time=44\n",
      "note_on channel=0 note=78 velocity=64 time=0\n",
      "note_on channel=0 note=54 velocity=64 time=56\n",
      "note_on channel=0 note=58 velocity=64 time=100\n",
      "note_off channel=0 note=78 velocity=0 time=100\n",
      "note_on channel=0 note=80 velocity=64 time=0\n",
      "note_off channel=0 note=54 velocity=0 time=0\n",
      "note_off channel=0 note=59 velocity=0 time=0\n",
      "note_off channel=0 note=66 velocity=0 time=0\n",
      "note_on channel=0 note=64 velocity=80 time=0\n",
      "note_off channel=0 note=51 velocity=0 time=0\n",
      "note_off channel=0 note=80 velocity=0 time=256\n",
      "note_on channel=0 note=82 velocity=64 time=0\n",
      "note_off channel=0 note=82 velocity=0 time=256\n",
      "note_on channel=0 note=83 velocity=64 time=0\n",
      "note_on channel=0 note=47 velocity=64 time=212\n",
      "note_off channel=0 note=83 velocity=0 time=44\n",
      "note_on channel=0 note=85 velocity=64 time=0\n",
      "note_on channel=0 note=54 velocity=64 time=106\n",
      "note_off channel=0 note=85 velocity=0 time=150\n",
      "note_off channel=0 note=54 velocity=0 time=0\n",
      "note_off channel=0 note=58 velocity=0 time=0\n",
      "note_off channel=0 note=64 velocity=0 time=0\n",
      "note_off channel=0 note=49 velocity=0 time=0\n",
      "note_on channel=0 note=88 velocity=64 time=0\n",
      "note_on channel=0 note=63 velocity=80 time=0\n",
      "note_off channel=0 note=88 velocity=0 time=256\n",
      "note_on channel=0 note=87 velocity=64 time=0\n",
      "note_off channel=0 note=87 velocity=0 time=256\n",
      "note_on channel=0 note=83 velocity=64 time=0\n",
      "note_off channel=0 note=83 velocity=0 time=256\n",
      "note_on channel=0 note=80 velocity=64 time=0\n",
      "note_off channel=0 note=80 velocity=0 time=256\n",
      "note_on channel=0 note=78 velocity=64 time=0\n",
      "note_off channel=0 note=78 velocity=0 time=256\n",
      "note_on channel=0 note=75 velocity=64 time=0\n",
      "note_off channel=0 note=75 velocity=0 time=256\n",
      "note_on channel=0 note=71 velocity=64 time=0\n",
      "note_off channel=0 note=71 velocity=0 time=256\n",
      "note_on channel=0 note=68 velocity=64 time=0\n",
      "note_off channel=0 note=68 velocity=0 time=256\n",
      "note_on channel=0 note=66 velocity=64 time=0\n",
      "note_off channel=0 note=54 velocity=0 time=0\n",
      "note_off channel=0 note=63 velocity=0 time=0\n",
      "note_off channel=0 note=47 velocity=0 time=0\n",
      "note_off channel=0 note=66 velocity=0 time=256\n",
      "note_on channel=0 note=63 velocity=64 time=0\n",
      "note_off channel=0 note=63 velocity=0 time=256\n",
      "note_on channel=0 note=59 velocity=64 time=0\n",
      "note_off channel=0 note=59 velocity=0 time=256\n",
      "note_on channel=0 note=56 velocity=64 time=0\n",
      "note_off channel=0 note=56 velocity=0 time=256\n",
      "note_on channel=0 note=54 velocity=64 time=0\n",
      "note_off channel=0 note=54 velocity=0 time=256\n",
      "note_on channel=0 note=51 velocity=64 time=0\n",
      "note_off channel=0 note=51 velocity=0 time=256\n",
      "note_on channel=0 note=47 velocity=64 time=0\n",
      "note_off channel=0 note=47 velocity=0 time=256\n",
      "note_on channel=0 note=44 velocity=64 time=0\n",
      "note_off channel=0 note=44 velocity=0 time=256\n",
      "note_on channel=0 note=40 velocity=64 time=0\n",
      "note_on channel=0 note=28 velocity=64 time=0\n",
      "note_off channel=0 note=40 velocity=0 time=256\n",
      "note_on channel=0 note=41 velocity=64 time=0\n",
      "note_off channel=0 note=28 velocity=0 time=0\n",
      "note_on channel=0 note=29 velocity=64 time=0\n",
      "note_off channel=0 note=41 velocity=0 time=256\n",
      "note_on channel=0 note=46 velocity=64 time=0\n",
      "note_off channel=0 note=29 velocity=0 time=0\n",
      "note_on channel=0 note=34 velocity=64 time=0\n",
      "note_off channel=0 note=46 velocity=0 time=256\n",
      "note_on channel=0 note=45 velocity=64 time=0\n",
      "note_off channel=0 note=34 velocity=0 time=0\n",
      "note_on channel=0 note=33 velocity=64 time=0\n",
      "note_off channel=0 note=45 velocity=0 time=256\n",
      "note_on channel=0 note=42 velocity=64 time=0\n",
      "note_off channel=0 note=33 velocity=0 time=0\n",
      "note_on channel=0 note=30 velocity=64 time=0\n",
      "note_off channel=0 note=42 velocity=0 time=256\n",
      "note_on channel=0 note=41 velocity=64 time=0\n",
      "note_off channel=0 note=30 velocity=0 time=0\n",
      "note_on channel=0 note=29 velocity=64 time=0\n",
      "note_off channel=0 note=41 velocity=0 time=256\n",
      "note_on channel=0 note=49 velocity=64 time=0\n",
      "note_off channel=0 note=29 velocity=0 time=0\n",
      "note_on channel=0 note=37 velocity=64 time=0\n",
      "note_off channel=0 note=49 velocity=0 time=256\n",
      "note_on channel=0 note=48 velocity=64 time=0\n",
      "note_off channel=0 note=37 velocity=0 time=0\n",
      "note_on channel=0 note=36 velocity=64 time=0\n",
      "note_off channel=0 note=48 velocity=0 time=256\n",
      "note_on channel=0 note=46 velocity=64 time=0\n",
      "note_off channel=0 note=36 velocity=0 time=0\n",
      "note_on channel=0 note=34 velocity=64 time=0\n",
      "note_off channel=0 note=46 velocity=0 time=256\n",
      "note_on channel=0 note=45 velocity=64 time=0\n",
      "note_off channel=0 note=34 velocity=0 time=0\n",
      "note_on channel=0 note=33 velocity=64 time=0\n",
      "note_off channel=0 note=45 velocity=0 time=256\n",
      "note_on channel=0 note=54 velocity=64 time=0\n",
      "note_off channel=0 note=33 velocity=0 time=0\n",
      "note_on channel=0 note=42 velocity=64 time=0\n",
      "note_off channel=0 note=54 velocity=0 time=256\n",
      "note_on channel=0 note=53 velocity=64 time=0\n",
      "note_off channel=0 note=42 velocity=0 time=0\n",
      "note_on channel=0 note=41 velocity=64 time=0\n",
      "note_off channel=0 note=53 velocity=0 time=256\n",
      "note_on channel=0 note=49 velocity=64 time=0\n",
      "note_off channel=0 note=41 velocity=0 time=0\n",
      "note_on channel=0 note=37 velocity=64 time=0\n",
      "note_off channel=0 note=49 velocity=0 time=256\n",
      "note_on channel=0 note=48 velocity=64 time=0\n",
      "note_off channel=0 note=37 velocity=0 time=0\n",
      "note_on channel=0 note=36 velocity=64 time=0\n",
      "note_off channel=0 note=48 velocity=0 time=256\n",
      "note_on channel=0 note=58 velocity=64 time=0\n",
      "note_off channel=0 note=36 velocity=0 time=0\n",
      "note_on channel=0 note=46 velocity=64 time=0\n",
      "note_off channel=0 note=58 velocity=0 time=256\n",
      "note_on channel=0 note=57 velocity=64 time=0\n",
      "note_off channel=0 note=46 velocity=0 time=0\n",
      "note_on channel=0 note=45 velocity=64 time=0\n",
      "note_off channel=0 note=57 velocity=0 time=256\n",
      "note_off channel=0 note=45 velocity=0 time=0\n",
      "note_on channel=0 note=54 velocity=64 time=0\n",
      "note_on channel=0 note=42 velocity=64 time=0\n",
      "note_off channel=0 note=54 velocity=0 time=256\n",
      "note_on channel=0 note=53 velocity=64 time=0\n",
      "note_off channel=0 note=42 velocity=0 time=0\n",
      "note_on channel=0 note=41 velocity=64 time=0\n",
      "note_on channel=0 note=61 velocity=64 time=256\n",
      "note_off channel=0 note=53 velocity=0 time=0\n",
      "note_off channel=0 note=41 velocity=0 time=0\n",
      "note_on channel=0 note=49 velocity=64 time=0\n",
      "note_off channel=0 note=61 velocity=0 time=256\n",
      "note_on channel=0 note=60 velocity=64 time=0\n",
      "note_off channel=0 note=49 velocity=0 time=0\n",
      "note_on channel=0 note=48 velocity=64 time=0\n",
      "note_off channel=0 note=60 velocity=0 time=256\n",
      "note_on channel=0 note=58 velocity=64 time=0\n",
      "note_off channel=0 note=48 velocity=0 time=0\n",
      "note_on channel=0 note=46 velocity=64 time=0\n",
      "note_off channel=0 note=58 velocity=0 time=256\n",
      "note_on channel=0 note=57 velocity=64 time=0\n",
      "note_off channel=0 note=46 velocity=0 time=0\n",
      "note_on channel=0 note=45 velocity=64 time=0\n",
      "note_off channel=0 note=57 velocity=0 time=256\n",
      "note_on channel=0 note=66 velocity=64 time=0\n",
      "note_off channel=0 note=45 velocity=0 time=0\n",
      "note_on channel=0 note=54 velocity=64 time=0\n",
      "note_off channel=0 note=66 velocity=0 time=256\n",
      "note_on channel=0 note=65 velocity=64 time=0\n",
      "note_off channel=0 note=54 velocity=0 time=0\n",
      "note_on channel=0 note=53 velocity=64 time=0\n",
      "note_off channel=0 note=65 velocity=0 time=256\n",
      "note_on channel=0 note=61 velocity=64 time=0\n",
      "note_off channel=0 note=53 velocity=0 time=0\n",
      "note_on channel=0 note=49 velocity=64 time=0\n",
      "note_off channel=0 note=61 velocity=0 time=256\n",
      "note_on channel=0 note=60 velocity=64 time=0\n",
      "note_off channel=0 note=49 velocity=0 time=0\n",
      "note_on channel=0 note=48 velocity=64 time=0\n",
      "note_off channel=0 note=60 velocity=0 time=256\n",
      "note_on channel=0 note=70 velocity=64 time=0\n",
      "note_off channel=0 note=48 velocity=0 time=0\n",
      "note_on channel=0 note=58 velocity=64 time=0\n",
      "note_off channel=0 note=70 velocity=0 time=256\n",
      "note_on channel=0 note=69 velocity=64 time=0\n",
      "note_off channel=0 note=58 velocity=0 time=0\n",
      "note_on channel=0 note=57 velocity=64 time=0\n",
      "note_off channel=0 note=69 velocity=0 time=256\n",
      "note_on channel=0 note=66 velocity=64 time=0\n",
      "note_off channel=0 note=57 velocity=0 time=0\n",
      "note_on channel=0 note=54 velocity=64 time=0\n",
      "note_off channel=0 note=66 velocity=0 time=256\n",
      "note_on channel=0 note=65 velocity=64 time=0\n",
      "note_off channel=0 note=54 velocity=0 time=0\n",
      "note_on channel=0 note=53 velocity=64 time=0\n",
      "note_off channel=0 note=65 velocity=0 time=256\n",
      "note_on channel=0 note=73 velocity=64 time=0\n",
      "note_off channel=0 note=53 velocity=0 time=0\n",
      "note_on channel=0 note=61 velocity=64 time=0\n",
      "note_off channel=0 note=73 velocity=0 time=256\n",
      "note_on channel=0 note=72 velocity=64 time=0\n",
      "note_off channel=0 note=61 velocity=0 time=0\n",
      "note_on channel=0 note=60 velocity=64 time=0\n",
      "note_off channel=0 note=72 velocity=0 time=256\n",
      "note_off channel=0 note=60 velocity=0 time=0\n",
      "note_on channel=0 note=70 velocity=64 time=0\n",
      "note_on channel=0 note=58 velocity=64 time=0\n",
      "note_off channel=0 note=70 velocity=0 time=256\n",
      "note_on channel=0 note=69 velocity=64 time=0\n",
      "note_off channel=0 note=58 velocity=0 time=0\n",
      "note_on channel=0 note=57 velocity=64 time=0\n",
      "note_off channel=0 note=69 velocity=0 time=256\n",
      "note_on channel=0 note=78 velocity=64 time=0\n",
      "note_off channel=0 note=57 velocity=0 time=0\n",
      "note_on channel=0 note=66 velocity=64 time=0\n",
      "note_off channel=0 note=78 velocity=0 time=256\n",
      "note_on channel=0 note=77 velocity=64 time=0\n",
      "note_off channel=0 note=66 velocity=0 time=0\n",
      "note_on channel=0 note=65 velocity=64 time=0\n",
      "note_off channel=0 note=77 velocity=0 time=256\n",
      "note_on channel=0 note=73 velocity=64 time=0\n",
      "note_off channel=0 note=65 velocity=0 time=0\n",
      "note_on channel=0 note=61 velocity=64 time=0\n",
      "note_off channel=0 note=73 velocity=0 time=256\n",
      "note_on channel=0 note=72 velocity=64 time=0\n",
      "note_off channel=0 note=61 velocity=0 time=0\n",
      "note_on channel=0 note=60 velocity=64 time=0\n",
      "note_off channel=0 note=72 velocity=0 time=256\n",
      "note_on channel=0 note=82 velocity=64 time=0\n",
      "note_off channel=0 note=60 velocity=0 time=0\n",
      "note_on channel=0 note=70 velocity=64 time=0\n",
      "note_off channel=0 note=82 velocity=0 time=256\n",
      "note_on channel=0 note=81 velocity=64 time=0\n",
      "note_off channel=0 note=70 velocity=0 time=0\n",
      "note_on channel=0 note=69 velocity=64 time=0\n",
      "note_off channel=0 note=81 velocity=0 time=256\n",
      "note_on channel=0 note=78 velocity=64 time=0\n",
      "note_off channel=0 note=69 velocity=0 time=0\n",
      "note_on channel=0 note=66 velocity=64 time=0\n",
      "note_off channel=0 note=78 velocity=0 time=256\n",
      "note_on channel=0 note=77 velocity=64 time=0\n",
      "note_off channel=0 note=66 velocity=0 time=0\n",
      "note_on channel=0 note=65 velocity=64 time=0\n",
      "note_off channel=0 note=77 velocity=0 time=256\n",
      "note_on channel=0 note=85 velocity=64 time=0\n",
      "note_off channel=0 note=65 velocity=0 time=0\n",
      "note_on channel=0 note=73 velocity=64 time=0\n",
      "note_off channel=0 note=85 velocity=0 time=256\n",
      "note_on channel=0 note=84 velocity=64 time=0\n",
      "note_off channel=0 note=73 velocity=0 time=0\n",
      "note_on channel=0 note=72 velocity=64 time=0\n",
      "note_off channel=0 note=84 velocity=0 time=256\n",
      "note_on channel=0 note=82 velocity=64 time=0\n",
      "note_off channel=0 note=72 velocity=0 time=0\n",
      "note_on channel=0 note=70 velocity=64 time=0\n",
      "note_off channel=0 note=82 velocity=0 time=256\n",
      "note_on channel=0 note=81 velocity=64 time=0\n",
      "note_off channel=0 note=70 velocity=0 time=0\n",
      "note_on channel=0 note=69 velocity=64 time=0\n",
      "note_off channel=0 note=81 velocity=0 time=256\n",
      "note_on channel=0 note=90 velocity=64 time=0\n",
      "note_off channel=0 note=69 velocity=0 time=0\n",
      "note_on channel=0 note=78 velocity=64 time=0\n",
      "note_off channel=0 note=90 velocity=0 time=256\n",
      "note_on channel=0 note=89 velocity=64 time=0\n",
      "note_off channel=0 note=78 velocity=0 time=0\n",
      "note_on channel=0 note=77 velocity=64 time=0\n",
      "note_off channel=0 note=89 velocity=0 time=256\n",
      "note_off channel=0 note=77 velocity=0 time=0\n",
      "note_on channel=0 note=85 velocity=64 time=0\n",
      "note_on channel=0 note=73 velocity=64 time=0\n",
      "note_off channel=0 note=85 velocity=0 time=256\n",
      "note_on channel=0 note=84 velocity=64 time=0\n",
      "note_off channel=0 note=73 velocity=0 time=0\n",
      "note_on channel=0 note=72 velocity=64 time=0\n",
      "note_off channel=0 note=84 velocity=0 time=256\n",
      "note_on channel=0 note=94 velocity=64 time=0\n",
      "note_off channel=0 note=72 velocity=0 time=0\n",
      "note_on channel=0 note=82 velocity=64 time=0\n",
      "note_off channel=0 note=94 velocity=0 time=256\n",
      "note_on channel=0 note=93 velocity=64 time=0\n",
      "note_off channel=0 note=82 velocity=0 time=0\n",
      "note_on channel=0 note=81 velocity=64 time=0\n",
      "note_off channel=0 note=93 velocity=0 time=256\n",
      "note_on channel=0 note=90 velocity=64 time=0\n",
      "note_off channel=0 note=81 velocity=0 time=0\n",
      "note_on channel=0 note=78 velocity=64 time=0\n",
      "note_off channel=0 note=90 velocity=0 time=256\n",
      "note_on channel=0 note=89 velocity=64 time=0\n",
      "note_off channel=0 note=78 velocity=0 time=0\n",
      "note_on channel=0 note=77 velocity=64 time=0\n",
      "note_off channel=0 note=89 velocity=0 time=256\n",
      "note_on channel=0 note=97 velocity=64 time=0\n",
      "note_off channel=0 note=77 velocity=0 time=0\n",
      "note_on channel=0 note=85 velocity=64 time=0\n",
      "note_off channel=0 note=97 velocity=0 time=256\n",
      "note_on channel=0 note=96 velocity=64 time=0\n",
      "note_off channel=0 note=85 velocity=0 time=0\n",
      "note_on channel=0 note=84 velocity=64 time=0\n",
      "note_off channel=0 note=96 velocity=0 time=256\n",
      "note_on channel=0 note=101 velocity=64 time=0\n",
      "note_off channel=0 note=84 velocity=0 time=0\n",
      "note_on channel=0 note=89 velocity=64 time=0\n",
      "note_off channel=0 note=101 velocity=0 time=1024\n",
      "note_off channel=0 note=89 velocity=0 time=0\n",
      "note_on channel=0 note=63 velocity=96 time=0\n",
      "note_on channel=0 note=69 velocity=96 time=0\n",
      "note_on channel=0 note=77 velocity=96 time=0\n",
      "note_on channel=0 note=29 velocity=96 time=0\n",
      "note_on channel=0 note=41 velocity=96 time=0\n",
      "note_off channel=0 note=63 velocity=0 time=1024\n",
      "note_off channel=0 note=69 velocity=0 time=0\n",
      "note_off channel=0 note=77 velocity=0 time=0\n",
      "note_off channel=0 note=29 velocity=0 time=0\n",
      "note_off channel=0 note=41 velocity=0 time=0\n",
      "note_on channel=0 note=34 velocity=96 time=0\n",
      "note_on channel=0 note=53 velocity=96 time=300\n",
      "note_on channel=0 note=61 velocity=96 time=0\n",
      "note_on channel=0 note=70 velocity=96 time=0\n",
      "note_on channel=0 note=82 velocity=96 time=0\n",
      "note_on channel=0 note=46 velocity=96 time=0\n",
      "note_off channel=0 note=53 velocity=0 time=3796\n",
      "note_off channel=0 note=61 velocity=0 time=0\n",
      "note_off channel=0 note=70 velocity=0 time=0\n",
      "note_off channel=0 note=82 velocity=0 time=0\n",
      "note_off channel=0 note=34 velocity=0 time=0\n",
      "note_off channel=0 note=46 velocity=0 time=0\n",
      "MetaMessage('end_of_track', time=1)\n"
     ]
    }
   ],
   "source": [
    "# Get an idea for the messages in the tracks\n",
    "for i, track in enumerate(mid.tracks):\n",
    "    print('Track {}: {}'.format(i, track.name))\n",
    "    for msg in track:\n",
    "        print(msg)"
   ]
  },
  {
   "cell_type": "code",
   "execution_count": 85,
   "metadata": {},
   "outputs": [
    {
     "name": "stdout",
     "output_type": "stream",
     "text": [
      "\n",
      "Acoustic Grand Piano\n"
     ]
    }
   ],
   "source": [
    "# Check track names\n",
    "tracks = mid.tracks\n",
    "for track in tracks:\n",
    "    print(track.name)"
   ]
  },
  {
   "cell_type": "markdown",
   "metadata": {},
   "source": [
    "- note_on tells the key is to be pressed (or released, if velocity=0).\n",
    "- note_off tells the key is to be released (velocity should always be set to 0).\n",
    "- channel tells to which channel the sound is to be sent. The standard midi supports 16 channels simultaneously.\n",
    "- note tells which key it is. We can refer to the map below for the corresponding key on piano keyboard to each midi note id.\n",
    "- velocity tells how fast to strike the key, the faster it is, the louder the sound is.\n",
    "- time tells us the waiting time between the last and current operation. The duration of a note is the sum of time from each message in between of 2 nearest messages about the same note, where the first one tells you to on the note (when you see note_on, and velocity > 0) and the last one tells you to off the note (when you see note_off, or note_on with velocity=0)."
   ]
  },
  {
   "cell_type": "code",
   "execution_count": 86,
   "metadata": {},
   "outputs": [],
   "source": [
    "# This is not perfect, many cases will break here or just have undesired\n",
    "# results usually because instrument is not a unique key. Works decently\n",
    "# well for first Chopin file\n",
    "\n",
    "# Gather event data for each track in a more readable format\n",
    "dfs = []\n",
    "events = {}\n",
    "for track in tracks:\n",
    "    for idx, msg in enumerate(track):\n",
    "        if msg.type == \"text\":\n",
    "            instrument = msg.text\n",
    "            events[instrument] = {}\n",
    "        elif msg.type == \"track_name\":\n",
    "            instrument = msg.name\n",
    "            events[instrument] = {}\n",
    "        elif msg.type == \"note_on\" or msg.type == \"note_off\":\n",
    "            events[instrument][idx] = {\"instrument\": instrument, \"type\": msg.type, \"time\": msg.time, \"note\": msg.note, \"velocity\": msg.velocity}\n",
    "    if len(events) > 0:\n",
    "        df = pd.DataFrame.from_dict(events[instrument], orient='index')\n",
    "        dfs.append(df)\n"
   ]
  },
  {
   "cell_type": "code",
   "execution_count": 87,
   "metadata": {},
   "outputs": [
    {
     "data": {
      "text/html": [
       "<div>\n",
       "<style scoped>\n",
       "    .dataframe tbody tr th:only-of-type {\n",
       "        vertical-align: middle;\n",
       "    }\n",
       "\n",
       "    .dataframe tbody tr th {\n",
       "        vertical-align: top;\n",
       "    }\n",
       "\n",
       "    .dataframe thead th {\n",
       "        text-align: right;\n",
       "    }\n",
       "</style>\n",
       "<table border=\"1\" class=\"dataframe\">\n",
       "  <thead>\n",
       "    <tr style=\"text-align: right;\">\n",
       "      <th></th>\n",
       "      <th>instrument</th>\n",
       "      <th>type</th>\n",
       "      <th>time</th>\n",
       "      <th>note</th>\n",
       "      <th>velocity</th>\n",
       "    </tr>\n",
       "  </thead>\n",
       "  <tbody>\n",
       "    <tr>\n",
       "      <th>2</th>\n",
       "      <td>Acoustic Grand Piano</td>\n",
       "      <td>note_on</td>\n",
       "      <td>0</td>\n",
       "      <td>63</td>\n",
       "      <td>80</td>\n",
       "    </tr>\n",
       "    <tr>\n",
       "      <th>3</th>\n",
       "      <td>Acoustic Grand Piano</td>\n",
       "      <td>note_on</td>\n",
       "      <td>0</td>\n",
       "      <td>69</td>\n",
       "      <td>80</td>\n",
       "    </tr>\n",
       "    <tr>\n",
       "      <th>4</th>\n",
       "      <td>Acoustic Grand Piano</td>\n",
       "      <td>note_on</td>\n",
       "      <td>0</td>\n",
       "      <td>78</td>\n",
       "      <td>80</td>\n",
       "    </tr>\n",
       "    <tr>\n",
       "      <th>5</th>\n",
       "      <td>Acoustic Grand Piano</td>\n",
       "      <td>note_on</td>\n",
       "      <td>0</td>\n",
       "      <td>29</td>\n",
       "      <td>80</td>\n",
       "    </tr>\n",
       "    <tr>\n",
       "      <th>6</th>\n",
       "      <td>Acoustic Grand Piano</td>\n",
       "      <td>note_on</td>\n",
       "      <td>0</td>\n",
       "      <td>41</td>\n",
       "      <td>80</td>\n",
       "    </tr>\n",
       "  </tbody>\n",
       "</table>\n",
       "</div>"
      ],
      "text/plain": [
       "             instrument     type  time  note  velocity\n",
       "2  Acoustic Grand Piano  note_on     0    63        80\n",
       "3  Acoustic Grand Piano  note_on     0    69        80\n",
       "4  Acoustic Grand Piano  note_on     0    78        80\n",
       "5  Acoustic Grand Piano  note_on     0    29        80\n",
       "6  Acoustic Grand Piano  note_on     0    41        80"
      ]
     },
     "execution_count": 87,
     "metadata": {},
     "output_type": "execute_result"
    }
   ],
   "source": [
    "# Make sure everything checks out\n",
    "dfs[0].head()"
   ]
  },
  {
   "cell_type": "code",
   "execution_count": 88,
   "metadata": {},
   "outputs": [
    {
     "name": "stdout",
     "output_type": "stream",
     "text": [
      "[('D#', 5), ('A', 5), ('F#', 6), ('F', 2), ('F', 3), ('D#', 5), ('A', 5), ('F#', 6), ('D#', 5), ('A', 5), ('F', 6), ('C', 4), ('F', 4), ('C', 5), ('D#', 5), ('A', 5), ('F', 6), ('D#', 5), ('A', 5), ('E', 6), ('C', 4), ('F', 4), ('C', 5), ('C', 4), ('F', 4), ('C', 5), ('D#', 5), ('A', 5), ('E', 6), ('D#', 5), ('A', 5), ('D#', 6), ('C', 4), ('F', 4), ('C', 5), ('C', 4), ('F', 4), ('C', 5), ('D#', 5), ('A', 5), ('D#', 6), ('D#', 5), ('A', 5), ('C#', 6), ('C', 4), ('F', 4), ('C', 5), ('C', 4), ('F', 4), ('C', 5), ('D#', 5), ('A', 5), ('C#', 6), ('D#', 5), ('A', 5), ('C', 6), ('C', 4), ('F', 4), ('C', 5), ('C', 4), ('F', 4), ('C', 5), ('D#', 5), ('A', 5), ('C', 6), ('C', 4), ('F', 4), ('C', 5), ('F', 2), ('F', 3), ('F', 6), ('A#', 3), ('F', 6), ('C', 6), ('C', 6), ('D#', 6), ('F', 4), ('C#', 5), ('D#', 6), ('C#', 6), ('C#', 6), ('F', 5), ('A#', 3), ('F', 5), ('A', 5), ('A', 5), ('A#', 5), ('F', 4), ('C#', 5), ('F', 3), ('A#', 5), ('C', 6), ('C', 6), ('C#', 6), ('F', 3), ('A#', 3), ('C#', 6), ('D#', 6), ('D#', 6), ('F', 6), ('F', 4), ('C#', 5), ('F', 6), ('G', 6), ('G', 6), ('A', 6), ('A#', 3), ('A', 6), ('A#', 6), ('A#', 6), ('C', 7), ('F', 4), ('C#', 5), ('F', 3), ('C', 7), ('C#', 7), ('C#', 7), ('F', 3), ('D#', 7), ('A#', 3), ('D#', 7), ('F', 7), ('F', 7), ('G', 7), ('F', 4), ('C#', 5), ('G', 7), ('A', 7), ('A', 7), ('A#', 7), ('A#', 3), ('A#', 7), ('C', 8), ('C', 8), ('C#', 8), ('F', 4), ('C#', 5), ('F', 3), ('C#', 8), ('D#', 8), ('D#', 8), ('E', 8), ('F', 3), ('A#', 3), ('E', 8), ('F', 8), ('F', 8), ('D#', 8), ('F', 4), ('C#', 5), ('D#', 8), ('C#', 8), ('C#', 8), ('C', 8), ('A#', 3), ('C', 8), ('A#', 7), ('A#', 7), ('A', 7), ('F', 4), ('C#', 5), ('F', 3), ('A', 7), ('A#', 7), ('A#', 7), ('F', 3), ('G#', 7), ('A#', 3), ('G#', 7), ('F#', 7), ('F#', 7), ('F', 7), ('F', 4), ('C#', 5), ('F', 7), ('E', 7), ('E', 7), ('F', 7), ('A#', 3), ('F', 7), ('D#', 7), ('D#', 7), ('C#', 7), ('F', 4), ('C#', 5), ('F', 3), ('C#', 7), ('C', 7), ('C', 7), ('A#', 6), ('F', 3), ('A#', 3), ('A#', 6), ('A', 6), ('A', 6), ('A#', 6), ('F', 4), ('C#', 5), ('A#', 6), ('G#', 6), ('G#', 6), ('F#', 6), ('A#', 3), ('F#', 6), ('F', 6), ('F', 6), ('D#', 6), ('F', 4), ('C#', 5), ('F', 3), ('D#', 6), ('C#', 6), ('C#', 6), ('F', 3), ('C', 6), ('A#', 3), ('C', 6), ('C#', 6), ('C#', 6), ('D#', 6), ('D#', 4), ('F#', 4), ('D#', 5), ('D#', 6), ('F', 6), ('F', 6), ('F#', 6), ('A#', 3), ('F#', 6), ('G#', 6), ('G#', 6), ('A#', 6), ('D#', 4), ('F#', 4), ('D#', 5), ('A#', 2), ('A#', 6), ('C', 7), ('C', 7), ('A#', 6), ('A#', 2), ('A#', 3), ('A#', 6), ('G#', 6), ('G#', 6), ('F#', 6), ('D#', 4), ('F#', 4), ('D#', 5), ('F#', 6), ('F', 6), ('F', 6), ('D#', 6), ('A#', 3), ('D#', 6), ('C#', 6), ('C#', 6), ('C', 6), ('D#', 4), ('F#', 4), ('D#', 5), ('A#', 2), ('C', 6), ('D#', 6), ('D#', 6), ('A#', 2), ('F#', 6), ('A#', 3), ('F#', 6), ('D', 6), ('D', 6), ('F', 6), ('D#', 4), ('F#', 4), ('D#', 5), ('F', 6), ('D#', 6), ('D#', 6), ('C', 6), ('A#', 3), ('C', 6), ('F#', 5), ('F#', 5), ('B', 5), ('D#', 4), ('F#', 4), ('D#', 5), ('A#', 2), ('B', 5), ('C', 6), ('C', 6), ('C#', 6), ('A#', 2), ('A#', 3), ('C#', 6), ('C', 6), ('C', 6), ('D', 6), ('D#', 4), ('F#', 4), ('D#', 5), ('D', 6), ('D#', 6), ('D#', 6), ('F', 6), ('A#', 3), ('F', 6), ('D#', 6), ('D#', 6), ('E', 6), ('D#', 4), ('F#', 4), ('D#', 5), ('A#', 2), ('E', 6), ('F', 6), ('F', 6), ('A#', 2), ('G#', 6), ('A#', 3), ('G#', 6), ('F#', 6), ('F#', 6), ('A', 6), ('D#', 4), ('F#', 4), ('D#', 5), ('A', 6), ('A#', 6), ('A#', 6), ('C#', 7), ('A#', 3), ('C#', 7), ('C', 7), ('C', 7), ('D', 7), ('D#', 4), ('F#', 4), ('D#', 5), ('A#', 2), ('D', 7), ('D#', 7), ('D#', 7), ('F', 7), ('A#', 2), ('A#', 3), ('F', 7), ('D#', 7), ('D#', 7), ('E', 7), ('D#', 4), ('F#', 4), ('D#', 5), ('E', 7), ('F', 7), ('F', 7), ('G#', 7), ('A#', 3), ('G#', 7), ('A#', 7), ('A#', 7), ('G#', 7), ('D#', 4), ('F#', 4), ('D#', 5), ('A#', 3), ('G#', 7), ('G', 7), ('G', 7), ('A#', 3), ('F#', 7), ('A', 3), ('F#', 7), ('F', 8), ('F', 8), ('D#', 8), ('F#', 4), ('D#', 5), ('D#', 8), ('D#', 7), ('D#', 7), ('C#', 8), ('A', 3), ('C#', 8), ('C', 8), ('C', 8), ('C', 7), ('F#', 4), ('D#', 5), ('A', 2), ('C', 7), ('A#', 7), ('A#', 7), ('A', 7), ('A', 2), ('A', 3), ('A', 7), ('A', 6), ('A', 6), ('G#', 7), ('F#', 4), ('D#', 5), ('G#', 7), ('F#', 7), ('F#', 7), ('F#', 6), ('A', 3), ('F#', 6), ('F', 7), ('F', 7), ('D#', 7), ('F#', 4), ('D#', 5), ('A', 3), ('D#', 7), ('F#', 6), ('F#', 6), ('A', 3), ('F', 6), ('A#', 3), ('F', 6), ('D#', 7), ('D#', 7), ('C#', 7), ('F', 4), ('C#', 5), ('C#', 7), ('F', 6), ('F', 6), ('C#', 7), ('A#', 3), ('C#', 7), ('C', 7), ('C', 7), ('D#', 6), ('F', 4), ('C#', 5), ('A#', 3), ('D#', 6), ('C', 7), ('C', 7), ('C#', 6), ('A#', 3), ('C#', 4), ('C#', 6), ('A#', 6), ('A#', 6), ('G#', 6), ('F', 4), ('A#', 4), ('F', 5), ('G#', 6), ('C', 6), ('C', 6), ('G#', 6), ('C#', 4), ('G#', 6), ('F#', 6), ('F#', 6), ('A#', 5), ('F', 4), ('A#', 4), ('F', 5), ('C#', 4), ('A#', 5), ('F#', 6), ('F#', 6), ('C#', 4), ('A', 5), ('D#', 4), ('A', 5), ('A#', 5), ('A#', 5), ('C', 6), ('A', 4), ('F#', 5), ('C', 6), ('C#', 6), ('C#', 6), ('D#', 6), ('D#', 4), ('D#', 6), ('E', 6), ('E', 6), ('F', 6), ('A', 4), ('F#', 5), ('D#', 4), ('F', 6), ('F#', 6), ('F#', 6), ('E', 6), ('D#', 4), ('C#', 4), ('E', 6), ('F', 6), ('F', 6), ('D', 6), ('F', 4), ('A#', 4), ('F', 5), ('D', 6), ('D#', 6), ('D#', 6), ('C', 6), ('C#', 4), ('C', 6), ('C#', 6), ('C#', 6), ('C', 6), ('F', 4), ('A#', 4), ('F', 5), ('C#', 4), ('C', 6), ('A#', 5), ('A#', 5), ('C#', 4), ('A', 5), ('D#', 4), ('A', 5), ('A#', 5), ('A#', 5), ('C', 6), ('A', 4), ('F#', 5), ('C', 6), ('C#', 6), ('C#', 6), ('D#', 6), ('D#', 4), ('D#', 6), ('E', 6), ('E', 6), ('F', 6), ('A', 4), ('F#', 5), ('D#', 4), ('F', 6), ('F#', 6), ('F#', 6), ('E', 6), ('D#', 4), ('C#', 4), ('E', 6), ('F', 6), ('F', 6), ('D', 6), ('F', 4), ('A#', 4), ('F', 5), ('D', 6), ('D#', 6), ('D#', 6), ('C', 6), ('C#', 4), ('C', 6), ('C#', 6), ('C#', 6), ('C', 6), ('F', 4), ('A#', 4), ('F', 5), ('C#', 4), ('C', 6), ('A#', 5), ('A#', 5), ('C#', 4), ('B', 5), ('F', 4), ('B', 5), ('C', 6), ('C', 6), ('D', 6), ('B', 4), ('G#', 5), ('D', 6), ('D#', 6), ('D#', 6), ('E', 6), ('F', 4), ('E', 6), ('F', 6), ('F', 6), ('G', 6), ('B', 4), ('G#', 5), ('F', 4), ('G', 6), ('G#', 6), ('G#', 6), ('F#', 6), ('F', 4), ('D#', 4), ('F#', 6), ('G', 6), ('G', 6), ('E', 6), ('G', 4), ('C', 5), ('G', 5), ('E', 6), ('F', 6), ('F', 6), ('D', 6), ('D#', 4), ('D', 6), ('D#', 6), ('D#', 6), ('D', 6), ('G', 4), ('C', 5), ('G', 5), ('D#', 4), ('D', 6), ('C', 6), ('C', 6), ('D#', 4), ('B', 5), ('F', 4), ('B', 5), ('C', 6), ('C', 6), ('D', 6), ('B', 4), ('G#', 5), ('D', 6), ('D#', 6), ('D#', 6), ('E', 6), ('F', 4), ('E', 6), ('F', 6), ('F', 6), ('G', 6), ('B', 4), ('G#', 5), ('F', 4), ('G', 6), ('G#', 6), ('G#', 6), ('F#', 6), ('F', 4), ('D#', 4), ('F#', 6), ('G', 6), ('G', 6), ('E', 6), ('G', 4), ('C', 5), ('G', 5), ('E', 6), ('F', 6), ('F', 6), ('D', 6), ('D#', 4), ('D', 6), ('D#', 6), ('D#', 6), ('D', 6), ('G', 4), ('C', 5), ('G', 5), ('D#', 4), ('D', 6), ('C', 6), ('C', 6), ('D#', 4), ('C#', 6), ('F', 4), ('C#', 6), ('D#', 6), ('D#', 6), ('F', 6), ('G#', 4), ('C#', 5), ('G#', 5), ('F', 6), ('F#', 6), ('F#', 6), ('G#', 6), ('F', 4), ('G#', 6), ('A#', 6), ('A#', 6), ('B', 6), ('G#', 4), ('C#', 5), ('G#', 5), ('F', 4), ('B', 6), ('C', 7), ('C', 7), ('C#', 7), ('F', 4), ('F#', 4), ('C#', 7), ('D', 7), ('D', 7), ('F', 7), ('A', 4), ('C', 5), ('A', 5), ('F', 7), ('D#', 7), ('D#', 7), ('C', 7), ('F#', 4), ('C', 7), ('A', 6), ('A', 6), ('F#', 6), ('A', 4), ('C', 5), ('A', 5), ('F#', 4), ('F#', 6), ('D#', 6), ('D#', 6), ('F#', 4), ('C#', 6), ('F', 4), ('C#', 6), ('D#', 6), ('D#', 6), ('F', 6), ('G#', 4), ('C#', 5), ('G#', 5), ('F', 6), ('F#', 6), ('F#', 6), ('G#', 6), ('F', 4), ('G#', 6), ('A#', 6), ('A#', 6), ('B', 6), ('G#', 4), ('C#', 5), ('G#', 5), ('F', 4), ('B', 6), ('C', 7), ('C', 7), ('C#', 7), ('F', 4), ('E', 4), ('C#', 7), ('C', 7), ('C', 7), ('D#', 7), ('A#', 4), ('C#', 5), ('G', 5), ('D#', 7), ('C#', 7), ('C#', 7), ('A#', 6), ('E', 4), ('A#', 6), ('G', 6), ('G', 6), ('E', 6), ('A#', 4), ('C#', 5), ('G', 5), ('E', 4), ('E', 6), ('C#', 6), ('C#', 6), ('E', 4), ('C', 6), ('D#', 4), ('C', 6), ('C#', 6), ('C#', 6), ('D', 6), ('A', 4), ('C', 5), ('F#', 5), ('D', 6), ('D#', 6), ('D#', 6), ('E', 6), ('D#', 4), ('E', 6), ('F', 6), ('F', 6), ('F#', 6), ('A', 4), ('C', 5), ('F#', 5), ('D#', 4), ('F#', 6), ('G', 6), ('G', 6), ('G#', 6), ('D#', 4), ('C#', 4), ('G#', 6), ('A', 6), ('A', 6), ('C', 7), ('F', 4), ('A#', 4), ('F', 5), ('C', 7), ('A#', 6), ('A#', 6), ('F#', 6), ('C#', 4), ('F#', 6), ('F', 6), ('F', 6), ('D#', 6), ('F', 4), ('A#', 4), ('F', 5), ('D#', 6), ('C#', 6), ('C#', 6), ('C', 6), ('F', 3), ('C', 6), ('A#', 5), ('A#', 5), ('A', 5), ('C', 4), ('A', 5), ('C', 6), ('F', 4), ('A', 4), ('C', 6), ('F#', 5), ('D#', 5), ('F', 3), ('F#', 5), ('F', 5), ('F', 5), ('E', 5), ('E', 5), ('F', 5), ('F', 5), ('F#', 5), ('F#', 5), ('F', 5), ('F', 5), ('A#', 5), ('A#', 5), ('A', 5), ('A', 5), ('C#', 6), ('C', 4), ('F', 4), ('A', 4), ('D#', 5), ('C#', 6), ('C', 6), ('C', 6), ('G#', 6), ('G#', 6), ('F#', 6), ('F#', 6), ('F', 6), ('A#', 2), ('A#', 3), ('F', 6), ('C', 6), ('C', 6), ('D#', 6), ('C#', 4), ('F', 4), ('C#', 5), ('D#', 6), ('C#', 6), ('C#', 6), ('F', 5), ('A#', 2), ('A#', 3), ('F', 5), ('A', 5), ('A', 5), ('A#', 5), ('C#', 4), ('F', 4), ('C#', 5), ('F', 2), ('F', 3), ('A#', 5), ('C', 6), ('C', 6), ('C#', 6), ('F', 2), ('F', 3), ('A#', 2), ('A#', 3), ('C#', 6), ('D#', 6), ('D#', 6), ('F', 6), ('C#', 4), ('F', 4), ('C#', 5), ('F', 6), ('G', 6), ('G', 6), ('A', 6), ('A#', 2), ('A#', 3), ('A', 6), ('A#', 6), ('A#', 6), ('C', 7), ('F', 2), ('F', 3), ('C', 7), ('C#', 7), ('C#', 7), ('C#', 4), ('F', 4), ('C#', 5), ('F', 2), ('F', 3), ('D#', 7), ('A#', 2), ('A#', 3), ('D#', 7), ('F', 7), ('F', 7), ('G', 7), ('C#', 4), ('F', 4), ('C#', 5), ('G', 7), ('A', 7), ('A', 7), ('A#', 7), ('A#', 2), ('A#', 3), ('A#', 7), ('C', 8), ('C', 8), ('C#', 8), ('C#', 4), ('F', 4), ('C#', 5), ('F', 2), ('F', 3), ('C#', 8), ('D#', 8), ('D#', 8), ('E', 8), ('F', 2), ('F', 3), ('A#', 2), ('A#', 3), ('E', 8), ('F', 8), ('F', 8), ('D#', 8), ('C#', 4), ('F', 4), ('C#', 5), ('D#', 8), ('C#', 8), ('C#', 8), ('C', 8), ('A#', 2), ('A#', 3), ('C', 8), ('A#', 7), ('A#', 7), ('A', 7), ('C#', 4), ('F', 4), ('C#', 5), ('F', 2), ('F', 3), ('A', 7), ('A#', 7), ('A#', 7), ('F', 2), ('F', 3), ('G#', 7), ('A#', 2), ('A#', 3), ('G#', 7), ('F#', 7), ('F#', 7), ('F', 7), ('C#', 4), ('F', 4), ('C#', 5), ('F', 7), ('E', 7), ('E', 7), ('F', 7), ('A#', 2), ('A#', 3), ('F', 7), ('D#', 7), ('D#', 7), ('C#', 7), ('C#', 4), ('F', 4), ('C#', 5), ('F', 2), ('F', 3), ('C#', 7), ('C', 7), ('C', 7), ('A#', 6), ('F', 2), ('F', 3), ('A#', 2), ('A#', 3), ('A#', 6), ('A', 6), ('A', 6), ('A#', 6), ('C#', 4), ('F', 4), ('C#', 5), ('A#', 6), ('G#', 6), ('G#', 6), ('F#', 6), ('A#', 2), ('A#', 3), ('F#', 6), ('F', 6), ('F', 6), ('D#', 6), ('C#', 4), ('F', 4), ('C#', 5), ('F', 2), ('F', 3), ('D#', 6), ('C#', 6), ('C#', 6), ('F', 2), ('F', 3), ('C', 6), ('A#', 2), ('A#', 3), ('C', 6), ('C#', 6), ('C#', 6), ('D#', 6), ('D#', 4), ('F#', 4), ('D#', 5), ('D#', 6), ('F', 6), ('F', 6), ('F#', 6), ('A#', 2), ('A#', 3), ('F#', 6), ('G#', 6), ('G#', 6), ('A#', 6), ('D#', 4), ('F#', 4), ('D#', 5), ('F', 2), ('F', 3), ('A#', 6), ('C', 7), ('C', 7), ('A#', 6), ('F', 2), ('F', 3), ('A#', 2), ('A#', 3), ('A#', 6), ('G#', 6), ('G#', 6), ('F#', 6), ('D#', 4), ('F#', 4), ('D#', 5), ('F#', 6), ('F', 6), ('F', 6), ('D#', 6), ('A#', 2), ('A#', 3), ('D#', 6), ('C#', 6), ('C#', 6), ('C', 6), ('D#', 4), ('F#', 4), ('D#', 5), ('F', 2), ('F', 3), ('C', 6), ('D#', 6), ('D#', 6), ('F', 2), ('F', 3), ('F#', 6), ('A', 2), ('A', 3), ('F#', 6), ('D', 6), ('D', 6), ('E', 6), ('D#', 4), ('F#', 4), ('D#', 5), ('E', 6), ('D#', 6), ('D#', 6), ('C', 6), ('A', 2), ('A', 3), ('C', 6), ('F#', 5), ('F#', 5), ('B', 5), ('D#', 4), ('F#', 4), ('D#', 5), ('D#', 2), ('D#', 3), ('B', 5), ('C', 6), ('C', 6), ('C#', 6), ('D#', 2), ('D#', 3), ('A', 2), ('A', 3), ('C#', 6), ('C', 6), ('C', 6), ('D', 6), ('D#', 4), ('F#', 4), ('D#', 5), ('D', 6), ('D#', 6), ('D#', 6), ('E', 6), ('A', 2), ('A', 3), ('E', 6), ('D#', 6), ('D#', 6), ('E', 6), ('D#', 4), ('F#', 4), ('D#', 5), ('D#', 2), ('D#', 3), ('E', 6), ('F', 6), ('F', 6), ('D#', 2), ('D#', 3), ('G#', 6), ('A', 2), ('A', 3), ('G#', 6), ('F#', 6), ('F#', 6), ('B', 6), ('D#', 4), ('F#', 4), ('D#', 5), ('B', 6), ('C', 7), ('C', 7), ('C#', 7), ('A', 2), ('A', 3), ('C#', 7), ('C', 7), ('C', 7), ('D', 7), ('D#', 4), ('F#', 4), ('D#', 5), ('D#', 2), ('D#', 3), ('D', 7), ('D#', 7), ('D#', 7), ('E', 7), ('D#', 2), ('D#', 3), ('A', 2), ('A', 3), ('E', 7), ('D#', 7), ('D#', 7), ('E', 7), ('D#', 4), ('F#', 4), ('D#', 5), ('E', 7), ('F', 7), ('F', 7), ('G#', 7), ('A', 2), ('A', 3), ('G#', 7), ('A#', 7), ('A#', 7), ('G#', 7), ('D#', 4), ('F#', 4), ('D#', 5), ('D#', 2), ('D#', 3), ('G#', 7), ('G', 7), ('G', 7), ('D#', 2), ('D#', 3), ('F#', 7), ('G#', 2), ('G#', 3), ('F#', 7), ('F', 8), ('F', 8), ('D#', 8), ('D#', 4), ('C', 5), ('F#', 5), ('D#', 8), ('F#', 7), ('F#', 7), ('D#', 8), ('G#', 2), ('G#', 3), ('D#', 8), ('C#', 8), ('C#', 8), ('F', 7), ('D#', 4), ('C', 5), ('F#', 5), ('D#', 2), ('D#', 3), ('F', 7), ('C#', 8), ('C#', 8), ('C', 8), ('D#', 2), ('D#', 3), ('G#', 2), ('G#', 3), ('C', 8), ('D#', 7), ('D#', 7), ('C', 8), ('D#', 4), ('C', 5), ('F#', 5), ('C', 8), ('A#', 7), ('A#', 7), ('C#', 7), ('G#', 2), ('G#', 3), ('C#', 7), ('A#', 7), ('A#', 7), ('G#', 7), ('G#', 2), ('G#', 7), ('C', 7), ('C', 7), ('D#', 4), ('C', 5), ('F#', 5), ('G#', 2), ('G#', 7), ('G#', 3), ('G#', 7), ('F#', 7), ('F#', 7), ('A#', 6), ('F', 4), ('C#', 5), ('F', 5), ('A#', 6), ('F#', 7), ('F#', 7), ('F', 7), ('G#', 3), ('F', 7), ('G#', 6), ('G#', 6), ('F', 7), ('F', 4), ('C#', 5), ('F', 5), ('G#', 2), ('F', 7), ('D#', 7), ('D#', 7), ('F#', 6), ('G#', 2), ('G#', 3), ('F#', 6), ('D#', 7), ('D#', 7), ('C#', 7), ('F', 4), ('C#', 5), ('C#', 7), ('F', 6), ('F', 6), ('A#', 6), ('G#', 3), ('A#', 6), ('G#', 6), ('G#', 6), ('F', 6), ('F', 4), ('C#', 5), ('G#', 2), ('F', 6), ('C#', 6), ('C#', 6), ('G#', 2), ('C', 6), ('G#', 3), ('C', 6), ('C#', 6), ('C#', 6), ('D#', 6), ('D#', 4), ('F#', 4), ('C', 5), ('D#', 6), ('E', 6), ('E', 6), ('F', 6), ('G#', 3), ('F', 6), ('F#', 6), ('F#', 6), ('G#', 6), ('D#', 4), ('F#', 4), ('C', 5), ('G#', 2), ('G#', 6), ('A', 6), ('A', 6), ('G', 6), ('G#', 2), ('G#', 3), ('G', 6), ('G#', 6), ('G#', 6), ('D#', 6), ('E', 4), ('C#', 5), ('D#', 6), ('E', 6), ('E', 6), ('G#', 5), ('G#', 3), ('G#', 5), ('E', 6), ('E', 6), ('D#', 6), ('G#', 2), ('D#', 6), ('C#', 6), ('C#', 6), ('E', 4), ('C#', 5), ('G#', 2), ('C', 6), ('G#', 3), ('C', 6), ('C#', 6), ('C#', 6), ('D#', 6), ('D#', 4), ('F#', 4), ('C', 5), ('D#', 6), ('E', 6), ('E', 6), ('F', 6), ('G#', 3), ('F', 6), ('F#', 6), ('F#', 6), ('G#', 6), ('D#', 4), ('F#', 4), ('C', 5), ('G#', 3), ('G#', 6), ('A', 6), ('A', 6), ('G', 6), ('G#', 3), ('C#', 4), ('G', 6), ('G#', 6), ('G#', 6), ('D#', 6), ('E', 4), ('C#', 5), ('D#', 6), ('E', 6), ('E', 6), ('G#', 5), ('C#', 4), ('G#', 5), ('E', 6), ('E', 6), ('C#', 6), ('E', 4), ('C#', 5), ('G', 3), ('C#', 6), ('B', 5), ('B', 5), ('G', 3), ('A#', 5), ('F#', 3), ('A#', 5), ('B', 5), ('B', 5), ('C#', 6), ('F#', 4), ('A#', 4), ('E', 5), ('C#', 6), ('D', 6), ('D', 6), ('D#', 6), ('F#', 3), ('D#', 6), ('E', 6), ('E', 6), ('F#', 6), ('F#', 4), ('A#', 4), ('E', 5), ('F#', 2), ('F#', 6), ('G', 6), ('G', 6), ('F', 6), ('F#', 2), ('F#', 3), ('F', 6), ('F#', 6), ('F#', 6), ('D#', 6), ('F#', 4), ('B', 4), ('D', 5), ('D#', 6), ('E', 6), ('E', 6), ('C#', 6), ('F#', 3), ('C#', 6), ('D', 6), ('D', 6), ('B', 5), ('F#', 4), ('B', 4), ('D', 5), ('F', 3), ('B', 5), ('A', 5), ('A', 5), ('F', 3), ('G#', 5), ('E', 3), ('G#', 5), ('A', 5), ('A', 5), ('B', 5), ('E', 4), ('G#', 4), ('D', 5), ('B', 5), ('C', 6), ('C', 6), ('C#', 6), ('E', 3), ('C#', 6), ('D', 6), ('D', 6), ('E', 6), ('E', 4), ('G#', 4), ('D', 5), ('E', 2), ('E', 6), ('F', 6), ('F', 6), ('D#', 6), ('E', 2), ('E', 3), ('D#', 6), ('E', 6), ('E', 6), ('C#', 6), ('E', 4), ('A', 4), ('C', 5), ('C#', 6), ('D', 6), ('D', 6), ('B', 5), ('E', 3), ('B', 5), ('C', 6), ('C', 6), ('B', 5), ('E', 4), ('A', 4), ('C', 5), ('E', 2), ('E', 3), ('B', 5), ('A', 5), ('A', 5), ('E', 2), ('E', 3), ('G#', 5), ('F', 2), ('F', 3), ('G#', 5), ('A', 5), ('A', 5), ('C#', 6), ('C#', 6), ('C', 6), ('C', 4), ('F', 4), ('C', 6), ('A#', 5), ('D#', 5), ('F', 2), ('F', 3), ('A#', 5), ('A', 5), ('A', 5), ('F#', 6), ('F#', 6), ('F', 6), ('A#', 3), ('F', 4), ('F', 6), ('D#', 6), ('F', 4), ('D#', 5), ('C#', 5), ('C', 4), ('D#', 6), ('C#', 6), ('C#', 6), ('C', 7), ('C', 7), ('A#', 6), ('D#', 4), ('A#', 4), ('A#', 6), ('G#', 6), ('F', 4), ('C#', 5), ('F#', 5), ('A#', 3), ('G#', 6), ('F#', 6), ('F#', 6), ('F', 6), ('F', 6), ('D#', 6), ('G#', 3), ('F#', 4), ('D#', 6), ('A#', 4), ('F#', 5), ('D#', 4), ('C#', 6), ('C', 5), ('C#', 6), ('C', 6), ('C', 6), ('A#', 6), ('A#', 6), ('G#', 6), ('C#', 4), ('G#', 4), ('G#', 6), ('F#', 6), ('F#', 4), ('C', 5), ('F', 5), ('G#', 3), ('F#', 6), ('F', 6), ('F', 6), ('D#', 6), ('D#', 6), ('C#', 6), ('F#', 3), ('C#', 4), ('C#', 6), ('C', 6), ('G#', 4), ('F', 5), ('A#', 4), ('C#', 4), ('C', 6), ('A#', 5), ('A#', 5), ('G#', 6), ('G#', 6), ('F#', 6), ('C', 4), ('F#', 4), ('F#', 6), ('F', 6), ('C#', 4), ('A#', 4), ('D#', 5), ('F#', 3), ('F', 6), ('D#', 6), ('D#', 6), ('C#', 6), ('C#', 6), ('C', 6), ('C', 6), ('F#', 4), ('D#', 5), ('C', 4), ('A#', 5), ('F', 4), ('A#', 4), ('C#', 5), ('C#', 4), ('A#', 5), ('A', 5), ('A', 5), ('G#', 5), ('G#', 5), ('G', 5), ('G', 5), ('G#', 5), ('F', 4), ('A#', 4), ('C#', 5), ('F#', 4), ('A#', 4), ('C', 5), ('C#', 4), ('D#', 4), ('G#', 5), ('G', 5), ('G', 5), ('F#', 5), ('F#', 5), ('F', 5), ('F', 5), ('G', 5), ('F#', 4), ('A#', 4), ('C', 5), ('D#', 4), ('G', 5), ('F#', 5), ('F#', 5), ('F', 5), ('F', 5), ('E', 5), ('E', 5), ('F#', 5), ('F#', 4), ('F#', 5), ('F', 5), ('F#', 4), ('F', 4), ('F', 5), ('E', 5), ('F', 4), ('E', 4), ('E', 5), ('D#', 5), ('E', 4), ('D#', 4), ('D#', 5), ('D#', 4), ('F', 5), ('F', 4), ('F', 5), ('E', 5), ('F', 4), ('E', 4), ('E', 5), ('D#', 5), ('E', 4), ('D#', 4), ('D#', 5), ('D', 5), ('D#', 4), ('D', 4), ('D', 5), ('E', 5), ('D', 4), ('E', 4), ('E', 5), ('D#', 5), ('E', 4), ('D#', 4), ('D#', 5), ('D', 5), ('D#', 4), ('D', 4), ('D', 5), ('C#', 5), ('D', 4), ('C#', 4), ('C#', 5), ('D#', 5), ('C#', 4), ('D#', 4), ('D#', 5), ('D', 5), ('D#', 4), ('D', 4), ('D', 5), ('C#', 5), ('D', 4), ('C#', 4), ('C#', 5), ('C', 5), ('C#', 4), ('C', 4), ('C', 5), ('D#', 5), ('C', 4), ('D#', 4), ('D#', 5), ('C#', 5), ('D#', 4), ('C#', 4), ('C#', 5), ('C', 5), ('C#', 4), ('C', 4), ('C', 5), ('A#', 4), ('C', 4), ('A#', 3), ('A#', 4), ('A#', 3), ('A', 4), ('D#', 3), ('A', 4), ('A#', 4), ('A#', 4), ('C', 5), ('A', 3), ('F#', 4), ('C', 5), ('C#', 5), ('C#', 5), ('D#', 5), ('D#', 3), ('D#', 5), ('E', 5), ('E', 5), ('F', 5), ('A', 3), ('F#', 4), ('D#', 3), ('F', 5), ('F#', 5), ('F#', 5), ('E', 5), ('D#', 3), ('C#', 3), ('E', 5), ('F', 5), ('F', 5), ('D', 5), ('A#', 3), ('F', 4), ('D', 5), ('D#', 5), ('D#', 5), ('C', 5), ('C#', 3), ('C', 5), ('C#', 5), ('C#', 5), ('C', 5), ('A#', 3), ('F', 4), ('C#', 3), ('C', 5), ('A#', 4), ('A#', 4), ('C#', 3), ('A', 4), ('D#', 3), ('A', 4), ('A#', 4), ('A#', 4), ('C', 5), ('A', 3), ('F#', 4), ('C', 5), ('C#', 5), ('C#', 5), ('D#', 5), ('D#', 3), ('D#', 5), ('E', 5), ('E', 5), ('F', 5), ('A', 3), ('F#', 4), ('D#', 3), ('F', 5), ('F#', 5), ('F#', 5), ('E', 5), ('D#', 3), ('C#', 3), ('E', 5), ('F', 5), ('F', 5), ('D', 5), ('A#', 3), ('F', 4), ('D', 5), ('D#', 5), ('D#', 5), ('C', 5), ('C#', 3), ('C', 5), ('C#', 5), ('C#', 5), ('C', 5), ('A#', 3), ('F', 4), ('C#', 3), ('C', 5), ('A#', 4), ('A#', 4), ('C#', 3), ('C', 5), ('D#', 3), ('C', 5), ('C#', 5), ('C#', 5), ('D#', 5), ('A#', 3), ('F#', 4), ('D#', 5), ('F', 5), ('F', 5), ('F#', 5), ('D#', 3), ('F#', 5), ('C', 6), ('C', 6), ('A#', 5), ('A#', 3), ('F#', 4), ('D#', 3), ('A#', 5), ('C', 5), ('C', 5), ('A#', 4), ('D#', 3), ('F', 3), ('A#', 4), ('C', 5), ('C', 5), ('C#', 5), ('C#', 4), ('A#', 4), ('C#', 5), ('D#', 5), ('D#', 5), ('F', 5), ('F', 3), ('F', 5), ('C', 6), ('C', 6), ('A#', 5), ('C#', 4), ('A#', 4), ('F', 2), ('A#', 5), ('F#', 5), ('F#', 5), ('F', 2), ('E', 5), ('F', 3), ('E', 5), ('F', 5), ('F', 5), ('F#', 5), ('D#', 4), ('A', 4), ('F#', 5), ('F', 5), ('F', 5), ('A#', 5), ('F', 3), ('A#', 5), ('A', 5), ('A', 5), ('F#', 6), ('D#', 4), ('A', 4), ('F', 3), ('F#', 6), ('F', 6), ('F', 6), ('D#', 6), ('F', 3), ('A#', 3), ('D#', 6), ('C#', 6), ('C#', 6), ('A#', 5), ('F', 4), ('C#', 5), ('A#', 5), ('F', 5), ('F', 5), ('D#', 5), ('A#', 3), ('D#', 5), ('C#', 5), ('C#', 5), ('A#', 4), ('F', 4), ('C#', 5), ('C#', 3), ('A#', 4), ('F', 4), ('F', 4), ('C#', 3), ('A', 4), ('D#', 3), ('A', 4), ('A#', 4), ('A#', 4), ('C', 5), ('A', 3), ('F#', 4), ('C', 5), ('C#', 5), ('C#', 5), ('D#', 5), ('D#', 3), ('D#', 5), ('E', 5), ('E', 5), ('F', 5), ('A', 3), ('F#', 4), ('D#', 3), ('F', 5), ('F#', 5), ('F#', 5), ('E', 5), ('D#', 3), ('C#', 3), ('E', 5), ('F', 5), ('F', 5), ('D', 5), ('A#', 3), ('F', 4), ('D', 5), ('D#', 5), ('D#', 5), ('C', 5), ('C#', 3), ('C', 5), ('C#', 5), ('C#', 5), ('C', 5), ('A#', 3), ('F', 4), ('C#', 3), ('C', 5), ('A#', 4), ('A#', 4), ('C#', 3), ('A', 4), ('D#', 3), ('A', 4), ('A#', 4), ('A#', 4), ('C', 5), ('A', 3), ('F#', 4), ('C', 5), ('C#', 5), ('C#', 5), ('D#', 5), ('D#', 3), ('D#', 5), ('E', 5), ('E', 5), ('F', 5), ('A', 3), ('F#', 4), ('D#', 3), ('F', 5), ('F#', 5), ('F#', 5), ('E', 5), ('D#', 3), ('C#', 3), ('E', 5), ('F', 5), ('F', 5), ('D', 5), ('A#', 3), ('F', 4), ('D', 5), ('D#', 5), ('D#', 5), ('C', 5), ('C#', 3), ('C', 5), ('C#', 5), ('C#', 5), ('C', 5), ('A#', 3), ('F', 4), ('C#', 3), ('C', 5), ('A#', 4), ('A#', 4), ('C#', 3), ('B', 4), ('B', 3), ('F#', 4), ('D#', 3), ('B', 4), ('C#', 5), ('C#', 5), ('D#', 5), ('D#', 5), ('E', 5), ('E', 5), ('F#', 5), ('F#', 5), ('G#', 5), ('G#', 5), ('A#', 5), ('D#', 4), ('A#', 5), ('B', 5), ('F#', 4), ('B', 4), ('B', 5), ('C#', 6), ('B', 3), ('F#', 4), ('F#', 5), ('D#', 3), ('C#', 6), ('D#', 6), ('D#', 6), ('E', 6), ('C#', 4), ('E', 6), ('F#', 6), ('F#', 4), ('A#', 4), ('F#', 6), ('G#', 6), ('F#', 4), ('B', 4), ('F#', 5), ('E', 5), ('D#', 4), ('G#', 6), ('A#', 6), ('A#', 6), ('B', 6), ('B', 3), ('B', 6), ('C#', 7), ('F#', 4), ('C#', 7), ('F#', 4), ('A#', 4), ('E', 5), ('C#', 4), ('E', 7), ('D#', 5), ('E', 7), ('D#', 7), ('D#', 7), ('B', 6), ('B', 6), ('G#', 6), ('G#', 6), ('F#', 6), ('F#', 6), ('D#', 6), ('D#', 6), ('B', 5), ('B', 5), ('G#', 5), ('G#', 5), ('F#', 5), ('F#', 4), ('D#', 5), ('B', 3), ('F#', 5), ('D#', 5), ('D#', 5), ('B', 4), ('B', 4), ('G#', 4), ('G#', 4), ('F#', 4), ('F#', 4), ('D#', 4), ('D#', 4), ('B', 3), ('B', 3), ('G#', 3), ('G#', 3), ('E', 3), ('E', 2), ('E', 3), ('F', 3), ('E', 2), ('F', 2), ('F', 3), ('A#', 3), ('F', 2), ('A#', 2), ('A#', 3), ('A', 3), ('A#', 2), ('A', 2), ('A', 3), ('F#', 3), ('A', 2), ('F#', 2), ('F#', 3), ('F', 3), ('F#', 2), ('F', 2), ('F', 3), ('C#', 4), ('F', 2), ('C#', 3), ('C#', 4), ('C', 4), ('C#', 3), ('C', 3), ('C', 4), ('A#', 3), ('C', 3), ('A#', 2), ('A#', 3), ('A', 3), ('A#', 2), ('A', 2), ('A', 3), ('F#', 4), ('A', 2), ('F#', 3), ('F#', 4), ('F', 4), ('F#', 3), ('F', 3), ('F', 4), ('C#', 4), ('F', 3), ('C#', 3), ('C#', 4), ('C', 4), ('C#', 3), ('C', 3), ('C', 4), ('A#', 4), ('C', 3), ('A#', 3), ('A#', 4), ('A', 4), ('A#', 3), ('A', 3), ('A', 4), ('A', 3), ('F#', 4), ('F#', 3), ('F#', 4), ('F', 4), ('F#', 3), ('F', 3), ('C#', 5), ('F', 4), ('F', 3), ('C#', 4), ('C#', 5), ('C', 5), ('C#', 4), ('C', 4), ('C', 5), ('A#', 4), ('C', 4), ('A#', 3), ('A#', 4), ('A', 4), ('A#', 3), ('A', 3), ('A', 4), ('F#', 5), ('A', 3), ('F#', 4), ('F#', 5), ('F', 5), ('F#', 4), ('F', 4), ('F', 5), ('C#', 5), ('F', 4), ('C#', 4), ('C#', 5), ('C', 5), ('C#', 4), ('C', 4), ('C', 5), ('A#', 5), ('C', 4), ('A#', 4), ('A#', 5), ('A', 5), ('A#', 4), ('A', 4), ('A', 5), ('F#', 5), ('A', 4), ('F#', 4), ('F#', 5), ('F', 5), ('F#', 4), ('F', 4), ('F', 5), ('C#', 6), ('F', 4), ('C#', 5), ('C#', 6), ('C', 6), ('C#', 5), ('C', 5), ('C', 6), ('C', 5), ('A#', 5), ('A#', 4), ('A#', 5), ('A', 5), ('A#', 4), ('A', 4), ('A', 5), ('F#', 6), ('A', 4), ('F#', 5), ('F#', 6), ('F', 6), ('F#', 5), ('F', 5), ('F', 6), ('C#', 6), ('F', 5), ('C#', 5), ('C#', 6), ('C', 6), ('C#', 5), ('C', 5), ('C', 6), ('A#', 6), ('C', 5), ('A#', 5), ('A#', 6), ('A', 6), ('A#', 5), ('A', 5), ('A', 6), ('F#', 6), ('A', 5), ('F#', 5), ('F#', 6), ('F', 6), ('F#', 5), ('F', 5), ('F', 6), ('C#', 7), ('F', 5), ('C#', 6), ('C#', 7), ('C', 7), ('C#', 6), ('C', 6), ('C', 7), ('A#', 6), ('C', 6), ('A#', 5), ('A#', 6), ('A', 6), ('A#', 5), ('A', 5), ('A', 6), ('F#', 7), ('A', 5), ('F#', 6), ('F#', 7), ('F', 7), ('F#', 6), ('F', 6), ('F', 7), ('F', 6), ('C#', 7), ('C#', 6), ('C#', 7), ('C', 7), ('C#', 6), ('C', 6), ('C', 7), ('A#', 7), ('C', 6), ('A#', 6), ('A#', 7), ('A', 7), ('A#', 6), ('A', 6), ('A', 7), ('F#', 7), ('A', 6), ('F#', 6), ('F#', 7), ('F', 7), ('F#', 6), ('F', 6), ('F', 7), ('C#', 8), ('F', 6), ('C#', 7), ('C#', 8), ('C', 8), ('C#', 7), ('C', 7), ('C', 8), ('F', 8), ('C', 7), ('F', 7), ('F', 8), ('F', 7), ('D#', 5), ('A', 5), ('F', 6), ('F', 2), ('F', 3), ('D#', 5), ('A', 5), ('F', 6), ('F', 2), ('F', 3), ('A#', 2), ('F', 4), ('C#', 5), ('A#', 5), ('A#', 6), ('A#', 3), ('F', 4), ('C#', 5), ('A#', 5), ('A#', 6), ('A#', 2), ('A#', 3)]\n"
     ]
    }
   ],
   "source": [
    "# Convert note values to note names and octaves\n",
    "# https://gist.github.com/devxpy/063968e0a2ef9b6db0bd6af8079dad2a#file-midi_numbers-py-L153-L159\n",
    "NOTES = ['C', 'C#', 'D', 'D#', 'E', 'F', 'F#', 'G', 'G#', 'A', 'A#', 'B']\n",
    "OCTAVES = list(range(11))\n",
    "NOTES_IN_OCTAVE = len(NOTES)\n",
    "def number_to_note(number: int) -> tuple:\n",
    "    octave = number // NOTES_IN_OCTAVE\n",
    "    note = NOTES[number % NOTES_IN_OCTAVE]\n",
    "\n",
    "    return note, octave\n",
    "\n",
    "note_names = [number_to_note(note) for note in df[\"note\"]]\n",
    "print(note_names)"
   ]
  }
 ],
 "metadata": {
  "kernelspec": {
   "display_name": "venv",
   "language": "python",
   "name": "python3"
  },
  "language_info": {
   "codemirror_mode": {
    "name": "ipython",
    "version": 3
   },
   "file_extension": ".py",
   "mimetype": "text/x-python",
   "name": "python",
   "nbconvert_exporter": "python",
   "pygments_lexer": "ipython3",
   "version": "3.10.11"
  }
 },
 "nbformat": 4,
 "nbformat_minor": 2
}
